<svg width="680" height="1014" viewBox="0 0 680 1014" fill="none" xmlns="http://www.w3.org/2000/svg">
<path fill-rule="evenodd" clip-rule="evenodd" d="M28.2845 297.377C65.1979 209.901 137.181 144.673 217.678 92.7298C299.108 40.1848 389.689 2.74402 487.909 0.791219C592.674 -1.29153 702 17.1076 784.929 81.4522C868.562 146.344 896.622 251.926 936.308 348.707C982.037 460.225 1053.54 569.425 1033.17 686.837C1010.88 815.353 924.738 923.127 822.438 1005.21C710.412 1095.09 578.123 1175.2 432.138 1169.07C284.833 1162.88 132.023 1091.93 46.7398 972.625C-32.4596 861.83 15.3538 715.06 11.6866 580.882C9.03153 483.739 -9.35172 386.566 28.2845 297.377Z" fill="url(#paint0_linear)"/>
<defs>
<linearGradient id="paint0_linear" x1="308.5" y1="300.213" x2="573.5" y2="531.713" gradientUnits="userSpaceOnUse">
<stop stop-color="#FF69FF"/>
<stop offset="1" stop-color="#FFBFFF"/>
</linearGradient>
</defs>
</svg>
