<svg width="1282" height="1024" viewBox="0 0 1282 1024" fill="none" xmlns="http://www.w3.org/2000/svg">
<path fill-rule="evenodd" clip-rule="evenodd" d="M322.069 1104.07C178.597 1105.3 18.3539 1280.09 -93.3283 1175.07C-206.92 1068.25 -73.4432 836.347 -129.559 679.391C-194.487 497.789 -480.781 413.477 -433.041 224.888C-385.831 38.3903 -129.615 100.105 30.7513 46.104C127.651 13.4745 225.097 14.655 318.962 -28.3378C501.624 -112.003 641.726 -362.891 834.964 -322.25C1026.78 -281.907 1157.23 -50.3681 1225.48 162.32C1295.23 379.666 1306.58 639.274 1208.22 840.88C1115.3 1031.34 917.108 1113.84 734.833 1167.98C597.008 1208.91 464.329 1102.85 322.069 1104.07Z" fill="url(#paint0_linear)"/>
<defs>
<linearGradient id="paint0_linear" x1="697.5" y1="-7.78652" x2="1058.5" y2="1104.71" gradientUnits="userSpaceOnUse">
<stop stop-color="#DD06FF"/>
<stop offset="0.97397" stop-color="#FF71FF"/>
</linearGradient>
</defs>
</svg>
