<svg width="400" height="318" viewBox="0 0 400 318" fill="none" xmlns="http://www.w3.org/2000/svg">
<g clip-path="url(#clip0)">
<path d="M298.385 314.022C292.848 309.343 289.485 301.953 290.367 294.758C291.249 287.563 296.712 280.949 303.798 279.421C310.883 277.893 318.961 282.123 321.113 289.044C322.297 275.7 323.662 261.796 330.757 250.431C337.181 240.141 348.308 232.778 360.368 231.461C372.427 230.144 385.124 235.119 392.644 244.637C400.165 254.155 402.007 267.992 396.739 278.92C392.859 286.97 385.71 292.961 378.22 297.835C354.016 313.452 324.987 319.802 296.473 315.718" fill="#F2F2F2"/>
<path d="M380.719 235.394C370.769 243.499 361.641 252.563 353.466 262.457C340.673 277.886 330.321 295.186 322.77 313.752C322.218 315.107 324.417 315.696 324.964 314.357C337.318 284.182 357.041 257.587 382.328 237.003C383.463 236.078 381.845 234.477 380.719 235.394Z" fill="white"/>
<path d="M97.7951 317.224H66.3948C65.3338 317.223 64.3166 316.801 63.5663 316.051C62.8161 315.301 62.394 314.283 62.3928 313.222V247.959C62.394 246.898 62.8161 245.881 63.5663 245.131C64.3166 244.38 65.3338 243.958 66.3948 243.957H97.7951C98.8561 243.958 99.8734 244.38 100.624 245.131C101.374 245.881 101.796 246.898 101.797 247.959V313.222C101.796 314.283 101.374 315.301 100.624 316.051C99.8734 316.801 98.8561 317.223 97.7951 317.224Z" fill="#6C63FF"/>
<path d="M172.294 317.839H140.894C139.669 317.838 138.496 317.351 137.63 316.485C136.764 315.62 136.277 314.446 136.276 313.222V186.389C136.277 185.165 136.764 183.991 137.63 183.125C138.496 182.26 139.669 181.773 140.894 181.771H172.294C173.518 181.773 174.692 182.26 175.558 183.125C176.423 183.991 176.91 185.165 176.912 186.389V313.222C176.91 314.446 176.423 315.62 175.558 316.485C174.692 317.351 173.518 317.838 172.294 317.839ZM140.894 183.003C139.996 183.004 139.135 183.361 138.5 183.996C137.865 184.631 137.508 185.491 137.507 186.389V313.222C137.508 314.12 137.865 314.98 138.5 315.615C139.135 316.25 139.996 316.607 140.894 316.608H172.294C173.192 316.607 174.052 316.25 174.687 315.615C175.322 314.98 175.679 314.12 175.68 313.222V186.389C175.679 185.491 175.322 184.631 174.687 183.996C174.052 183.361 173.192 183.004 172.294 183.003H140.894Z" fill="#3F3D56"/>
<path d="M246.793 317.84H215.392C214.168 317.838 212.994 317.352 212.129 316.486C211.263 315.62 210.776 314.446 210.775 313.222V105.734C210.776 104.51 211.263 103.336 212.129 102.47C212.994 101.605 214.168 101.118 215.392 101.116H246.793C248.017 101.118 249.191 101.605 250.056 102.47C250.922 103.336 251.409 104.51 251.41 105.734V313.222C251.409 314.446 250.922 315.62 250.056 316.486C249.191 317.352 248.017 317.838 246.793 317.84ZM215.392 102.348C214.495 102.349 213.634 102.706 212.999 103.341C212.364 103.975 212.007 104.836 212.006 105.734V313.222C212.007 314.12 212.364 314.981 212.999 315.616C213.634 316.25 214.495 316.607 215.392 316.608H246.793C247.69 316.607 248.551 316.25 249.186 315.616C249.821 314.981 250.178 314.12 250.179 313.222V105.734C250.178 104.836 249.821 103.975 249.186 103.341C248.551 102.706 247.69 102.349 246.793 102.348H215.392Z" fill="#3F3D56"/>
<path d="M321.987 317.532H290.586C289.525 317.531 288.508 317.109 287.758 316.358C287.008 315.608 286.586 314.591 286.584 313.53V21.0762C286.586 20.0152 287.008 18.998 287.758 18.2477C288.508 17.4975 289.525 17.0754 290.586 17.0742H321.987C323.048 17.0754 324.065 17.4975 324.815 18.2477C325.566 18.998 325.988 20.0152 325.989 21.0762V313.53C325.988 314.591 325.566 315.608 324.815 316.358C324.065 317.109 323.048 317.531 321.987 317.532Z" fill="#6C63FF"/>
<path d="M126.697 136.904C126.811 136.006 126.727 135.094 126.45 134.232C126.173 133.371 125.711 132.58 125.096 131.916C124.48 131.252 123.727 130.731 122.889 130.39C122.05 130.049 121.147 129.896 120.243 129.941L109.298 109.864L106.836 118.484L114.334 136.884C114.511 138.398 115.238 139.794 116.375 140.808C117.513 141.822 118.983 142.383 120.507 142.385C122.031 142.388 123.503 141.831 124.643 140.821C125.784 139.811 126.515 138.417 126.697 136.904V136.904Z" fill="#A0616A"/>
<path d="M42.3694 216.177L48.4654 220.628L68.5338 199.231L59.5361 192.662L42.3694 216.177Z" fill="#A0616A"/>
<path d="M56.0903 234.873L36.93 220.885L42.3345 213.482L54.092 222.066C56.0553 223.499 57.3689 225.654 57.7436 228.056C58.1184 230.457 57.5237 232.91 56.0903 234.873L56.0903 234.873Z" fill="#2F2E41"/>
<path d="M74.6226 239.737L82.171 239.736L85.7617 210.621L74.6213 210.622L74.6226 239.737Z" fill="#A0616A"/>
<path d="M96.7285 246.744L73.0054 246.745L73.005 237.58L87.5624 237.579C89.9933 237.579 92.3247 238.544 94.0436 240.263C95.7626 241.982 96.7284 244.313 96.7285 246.744Z" fill="#2F2E41"/>
<path d="M97.2924 126.18C97.2924 126.18 100.987 161.89 91.7511 186.518L84.9785 233.311H73.2804L74.5118 177.898L70.2019 128.643C70.2019 128.643 78.8216 106.478 97.2924 126.18Z" fill="#2F2E41"/>
<path d="M57.2721 128.643L69.586 171.126L45.574 209.299L57.58 219.457L84.9783 176.667L76.9743 124.333L57.2721 128.643Z" fill="#2F2E41"/>
<path d="M88.6748 33.3788C97.0264 33.3788 103.797 26.6085 103.797 18.2568C103.797 9.90513 97.0264 3.13477 88.6748 3.13477C80.3231 3.13477 73.5527 9.90513 73.5527 18.2568C73.5527 26.6085 80.3231 33.3788 88.6748 33.3788Z" fill="#A0616A"/>
<path d="M76.0508 39.0602C76.0508 39.0602 85.2861 32.9033 95.7529 46.4485L98.5235 131.722C98.5235 131.722 90.5195 120.639 73.8958 131.106C57.2721 141.573 53.578 129.875 53.578 129.875C53.578 129.875 41.8798 41.8308 76.0508 39.0602Z" fill="#CCCCCC"/>
<path d="M95.0082 46.2335C97.6644 46.3771 100.174 47.4978 102.053 49.3801C103.933 51.2623 105.05 53.7732 105.19 56.4295L107.143 93.5489L120.073 128.643L112.685 134.8L88.6727 92.9332L83.7565 58.5203C83.5312 56.943 83.6584 55.3354 84.1289 53.8131C84.5994 52.2909 85.4016 50.8919 86.4776 49.7168C87.5537 48.5418 88.8768 47.6199 90.3519 47.0176C91.827 46.4153 93.4172 46.1475 95.0082 46.2335Z" fill="#CCCCCC"/>
<path d="M77.5635 29.6003C80.0356 32.2337 84.6268 30.82 84.9489 27.2224C84.9742 26.9431 84.9724 26.662 84.9435 26.383C84.7771 24.7895 83.8565 23.3427 84.077 21.6601C84.1269 21.2414 84.283 20.8423 84.5303 20.5007C86.5003 17.8627 91.1247 21.6806 92.9839 19.2925C94.124 17.8282 92.7839 15.5226 93.6587 13.886C94.8134 11.7259 98.2334 12.7915 100.378 11.6085C102.764 10.2923 102.622 6.63111 101.051 4.40418C99.1352 1.68837 95.7765 0.239178 92.4596 0.0303049C89.1426 -0.178569 85.8486 0.718088 82.7519 1.92488C79.2335 3.29603 75.7445 5.19101 73.5794 8.28475C70.9463 12.0471 70.6929 17.1051 72.0097 21.5045C72.8108 24.1806 75.5447 27.4498 77.5635 29.6003Z" fill="#2F2E41"/>
<path d="M399.267 317.578H0.732918C0.538858 317.578 0.352932 317.5 0.215908 317.363C0.078885 317.226 0.00195312 317.039 0.00195312 316.845C0.00195312 316.651 0.078885 316.465 0.215908 316.328C0.352932 316.19 0.538858 316.113 0.732918 316.112H399.267C399.461 316.113 399.647 316.19 399.784 316.328C399.921 316.465 399.998 316.651 399.998 316.845C399.998 317.039 399.921 317.226 399.784 317.363C399.647 317.5 399.461 317.578 399.267 317.578Z" fill="#3F3D56"/>
</g>
<defs>
<clipPath id="clip0">
<rect width="400" height="317.84" fill="white"/>
</clipPath>
</defs>
</svg>
