<svg width="500" height="339" viewBox="0 0 500 339" fill="none" xmlns="http://www.w3.org/2000/svg">
<g clip-path="url(#clip0)">
<path opacity="0.1" d="M270.525 49.5854C239.798 49.5368 210.193 39.9907 181.868 29.3671C153.542 18.7436 125.443 6.89693 95.2719 1.81476C75.844 -1.45267 53.811 -1.2319 38.6792 10.3719C24.1215 21.5385 19.9534 40.0701 17.9576 57.2109C16.4608 70.0951 15.7896 83.6285 21.565 95.4353C25.5786 103.635 32.4226 110.399 37.2663 118.219C54.12 145.418 44.1191 180.035 27.8879 207.773C20.2713 220.759 11.3477 233.224 5.60319 246.982C-0.141301 260.741 -2.46824 276.354 3.46611 289.966C9.35631 303.464 22.6026 313.306 36.7718 320.022C65.6002 333.71 99.1001 336.721 131.704 337.945C203.887 340.656 276.181 335.825 348.285 330.968C374.968 329.176 401.77 327.365 427.891 322.009C442.396 319.038 457.325 314.609 467.586 304.824C480.612 292.408 483.226 272.075 473.684 257.429C457.674 232.839 415.656 228.088 404.132 201.516C397.787 186.888 403.174 170.167 411.135 156.099C428.218 125.946 457.691 98.9765 458.093 65.1896C458.367 41.982 442.935 19.2999 419.957 9.14439C395.866 -1.51448 363.086 1.10829 346.294 20.7482C329.003 40.9709 297.658 49.6296 270.525 49.5854Z" fill="#6C63FF"/>
<path d="M423.37 276.406C423.37 276.406 417.943 272.825 412.565 275.373C412.565 275.373 414.221 278.565 421.03 278.261L423.37 276.406Z" fill="#6C63FF"/>
<path d="M424.037 276.601C424.037 276.601 425.688 282.888 421.551 287.167C421.551 287.167 419.061 284.57 421.551 278.221L424.037 276.601Z" fill="#6C63FF"/>
<path d="M430.806 270.565C430.806 270.565 430.404 265.214 418.332 266.989C418.332 266.989 418.275 270.442 422.514 272.075C426.752 273.709 428.691 272.331 430.806 270.565Z" fill="#6C63FF"/>
<path d="M431.547 270.525C431.547 270.525 436.656 272.168 432.104 283.494C432.104 283.494 428.735 282.739 428.13 278.235C427.525 273.731 429.335 272.168 431.547 270.525Z" fill="#6C63FF"/>
<path d="M438.387 262.94C438.387 262.94 439.076 254.14 426.735 255.045C426.735 255.045 425.852 262.993 436.206 265.055L438.387 262.94Z" fill="#6C63FF"/>
<path d="M446.542 253.005C446.542 253.005 444.847 243.035 432.515 246.006C432.515 246.006 432.466 254.63 444.525 255.385L446.542 253.005Z" fill="#6C63FF"/>
<path d="M452.499 242.735C452.499 242.735 449.668 233.021 437.446 235.931C437.446 235.931 440.352 244.664 451.686 244.532L452.499 242.735Z" fill="#6C63FF"/>
<path d="M458.159 232.707C458.159 232.707 455.391 222.626 443.588 225.642C443.588 225.642 447.527 235.219 457.382 234.416L458.159 232.707Z" fill="#6C63FF"/>
<path d="M461.811 223.179C461.811 223.179 459.683 210.868 448.693 213.579C448.693 213.579 451.889 224.795 461.012 224.971L461.811 223.179Z" fill="#6C63FF"/>
<path d="M465.228 211.667C465.228 211.667 462.676 199.238 451.54 202.836C451.54 202.836 455.907 214.577 464.442 213.363L465.228 211.667Z" fill="#6C63FF"/>
<path d="M467.348 200.951C467.348 200.951 463.29 188.526 454.684 188.861C454.684 188.861 458.835 201.988 466.606 203.432L467.348 200.951Z" fill="#6C63FF"/>
<path d="M468.695 190.499C468.695 190.499 464.279 175.54 457.276 176.692C457.276 176.692 460.332 188.128 468.447 192.826L468.695 190.499Z" fill="#6C63FF"/>
<path d="M469.445 178.013C469.445 178.013 465.308 165.543 458.407 165.049C458.407 165.049 461.224 177.315 469.304 181.249L469.445 178.013Z" fill="#6C63FF"/>
<path d="M470.297 166.387C470.297 166.387 465.136 153.904 460.583 153.626C460.583 153.626 462.822 165.91 469.856 168.435L470.297 166.387Z" fill="#6C63FF"/>
<path d="M470.867 155.561C470.867 155.561 467.679 141.988 463.131 140.884C463.131 140.884 463.758 151.967 470.412 156.572L470.867 155.561Z" fill="#6C63FF"/>
<path d="M472.584 141.391C472.584 141.391 469.246 130.591 465.551 128.944C465.551 128.944 466.284 141.678 471.732 144.036L472.584 141.391Z" fill="#6C63FF"/>
<path d="M474.011 132.088L474.686 113.04C474.686 113.04 467.789 127.412 473.503 135.448L474.011 132.088Z" fill="#6C63FF"/>
<path d="M479.349 113.159C479.349 113.159 484.321 99.2463 485.531 98.4736C485.531 98.4736 475.773 107.494 476.726 119.107L479.349 113.159Z" fill="#6C63FF"/>
<path d="M438.723 262.878C438.723 262.878 447.474 261.73 447.209 274.102C447.209 274.102 439.301 275.387 436.722 265.161L438.723 262.878Z" fill="#6C63FF"/>
<path d="M446.953 252.674C446.953 252.674 457.069 252.639 456.225 265.302C456.225 265.302 447.739 266.816 444.935 255.063L446.953 252.674Z" fill="#6C63FF"/>
<path d="M452.596 243.542C452.596 243.542 461.775 239.237 467.652 250.347C467.652 250.347 459.17 253.936 451.788 245.335L452.596 243.542Z" fill="#6C63FF"/>
<path d="M458.367 232.799C458.367 232.799 467.763 228.216 473.282 239.074C473.282 239.074 463.493 242.447 457.59 234.517L458.367 232.799Z" fill="#6C63FF"/>
<path d="M461.692 223.443C461.692 223.443 470.739 214.802 477.958 223.545C477.958 223.545 468.717 230.654 461.272 225.368L461.692 223.443Z" fill="#6C63FF"/>
<path d="M464.716 211.372C464.716 211.372 473.821 202.541 480.983 211.778C480.983 211.778 470.765 219.032 464.394 213.226L464.716 211.372Z" fill="#6C63FF"/>
<path d="M466.421 200.598C466.421 200.598 473.432 189.56 481.685 192.028C481.685 192.028 474.413 203.715 466.5 203.194L466.421 200.598Z" fill="#6C63FF"/>
<path d="M468.487 190.429C468.487 190.429 475.552 176.525 482.232 178.949C482.232 178.949 477.141 189.634 468.306 192.774L468.487 190.429Z" fill="#6C63FF"/>
<path d="M468.973 177.311C468.973 177.311 476.236 166.369 483.04 167.703C483.04 167.703 477.106 178.799 468.271 180.476L468.973 177.311Z" fill="#6C63FF"/>
<path d="M469.529 166.14C469.529 166.14 475.154 153.865 479.733 153.755C479.733 153.755 477.031 165.95 469.904 168.207L469.529 166.14Z" fill="#6C63FF"/>
<path d="M470.642 155.291C470.642 155.291 476.898 142.857 481.601 142.835C481.601 142.835 478.4 153.463 470.854 156.386L470.642 155.291Z" fill="#6C63FF"/>
<path d="M471.587 142.155C471.587 142.155 476.267 131.867 480.139 130.701C480.139 130.701 477.799 143.241 472.099 144.884L471.587 142.155Z" fill="#6C63FF"/>
<path d="M474.571 131.726L485.027 115.795C485.027 115.795 482.352 131.509 473.044 134.781L474.571 131.726Z" fill="#6C63FF"/>
<path d="M481.751 114.44C481.751 114.44 493.907 106.05 494.344 104.69C494.344 104.69 488.162 116.444 476.682 118.52L481.751 114.44Z" fill="#6C63FF"/>
<path d="M482.475 110.665C482.475 110.665 496.432 97.246 499.996 97.2637C499.996 97.2637 488.485 97.7891 482.14 109.949L482.475 110.665Z" fill="#6C63FF"/>
<path d="M471.719 144.146L472.227 144.212C474.85 123.681 478.673 111.538 482.996 110.046L482.828 109.564C478.25 111.154 474.408 123.111 471.719 144.146Z" fill="#444053"/>
<path d="M467.864 193.233L468.633 193.299C468.792 191.383 468.915 189.418 468.999 187.466C469.732 170.471 470.871 154.871 472.364 143.175L471.922 142.623C470.425 154.342 468.968 170.418 468.235 187.431C468.147 189.374 468.023 191.325 467.864 193.233Z" fill="#444053"/>
<path d="M409.037 286.183C409.174 286.121 422.699 280.085 436.735 265.677C444.958 257.241 451.791 247.554 456.98 236.977C463.467 223.761 467.423 207.521 468.752 191.745L467.953 192.12C464.972 227.528 448.851 251.729 436.029 264.905C422.129 279.184 408.759 285.163 408.627 285.216L409.037 286.183Z" fill="#444053"/>
<path d="M463.052 21.583H38.7811C37.7787 21.583 36.8173 21.9812 36.1085 22.69C35.3997 23.3988 35.0015 24.3602 35.0015 25.3626V36.3747H466.831V25.3626C466.831 24.3602 466.433 23.3988 465.725 22.69C465.016 21.9812 464.054 21.583 463.052 21.583Z" fill="#3F3D56"/>
<path d="M35.0015 36.374V284.186C35.0015 286.207 35.8044 288.146 37.2336 289.575C38.6628 291.004 40.6013 291.807 42.6225 291.807H459.21C461.232 291.807 463.17 291.004 464.599 289.575C466.029 288.146 466.831 286.207 466.831 284.186V36.374H35.0015Z" fill="white"/>
<path opacity="0.8" d="M41.8454 30.63C42.8208 30.63 43.6116 29.8393 43.6116 28.8638C43.6116 27.8884 42.8208 27.0977 41.8454 27.0977C40.87 27.0977 40.0792 27.8884 40.0792 28.8638C40.0792 29.8393 40.87 30.63 41.8454 30.63Z" fill="#FA5959"/>
<path opacity="0.8" d="M46.7024 30.63C47.6778 30.63 48.4685 29.8393 48.4685 28.8638C48.4685 27.8884 47.6778 27.0977 46.7024 27.0977C45.7269 27.0977 44.9362 27.8884 44.9362 28.8638C44.9362 29.8393 45.7269 30.63 46.7024 30.63Z" fill="#FED253"/>
<path opacity="0.8" d="M51.5593 30.63C52.5348 30.63 53.3255 29.8393 53.3255 28.8638C53.3255 27.8884 52.5348 27.0977 51.5593 27.0977C50.5839 27.0977 49.7932 27.8884 49.7932 28.8638C49.7932 29.8393 50.5839 30.63 51.5593 30.63Z" fill="#8CCF4D"/>
<g opacity="0.3">
<path opacity="0.3" d="M450.715 51.3828H51.5594V276.57H450.715V51.3828Z" stroke="#3F3D56" stroke-miterlimit="10"/>
<path opacity="0.3" d="M398.613 51.3828H103.662V276.57H398.613V51.3828Z" stroke="#3F3D56" stroke-miterlimit="10"/>
<path opacity="0.3" d="M346.511 51.3828H155.764V276.57H346.511V51.3828Z" stroke="#3F3D56" stroke-miterlimit="10"/>
<path opacity="0.3" d="M294.409 51.3828H207.866V276.57H294.409V51.3828Z" stroke="#3F3D56" stroke-miterlimit="10"/>
<path opacity="0.3" d="M251.137 51.3828V276.57" stroke="#3F3D56" stroke-miterlimit="10"/>
<path opacity="0.3" d="M450.715 84.0566H51.5594V243.896H450.715V84.0566Z" stroke="#3F3D56" stroke-miterlimit="10"/>
<path opacity="0.3" d="M450.715 116.29H51.5594V211.664H450.715V116.29Z" stroke="#3F3D56" stroke-miterlimit="10"/>
<path opacity="0.3" d="M450.715 148.522H51.5594V179.431H450.715V148.522Z" stroke="#3F3D56" stroke-miterlimit="10"/>
</g>
<path opacity="0.1" d="M145.387 63.9668H114.038V75.4469H145.387V63.9668Z" fill="#3F3D56"/>
<path opacity="0.1" d="M88.4283 95.3164H65.0265V106.797H88.4283V95.3164Z" fill="#3F3D56"/>
<path opacity="0.1" d="M196.165 63.9668H164.815V75.4469H196.165V63.9668Z" fill="#3F3D56"/>
<path opacity="0.1" d="M243.852 63.9668H212.502V75.4469H243.852V63.9668Z" fill="#3F3D56"/>
<path opacity="0.1" d="M288.006 63.9668H256.656V75.4469H288.006V63.9668Z" fill="#3F3D56"/>
<path opacity="0.1" d="M337.459 63.9668H306.109V75.4469H337.459V63.9668Z" fill="#3F3D56"/>
<path opacity="0.1" d="M387.795 63.9668H356.445V75.4469H387.795V63.9668Z" fill="#3F3D56"/>
<path opacity="0.1" d="M441.222 63.9668H409.872V75.4469H441.222V63.9668Z" fill="#3F3D56"/>
<path d="M196.452 126.202H176.083V145.922H196.452V126.202Z" fill="url(#paint0_linear)"/>
<path d="M196.103 126.542H176.437V145.581H196.103V126.542Z" fill="#7CFCFF"/>
<path d="M238.416 121.928H218.048V141.647H238.416V121.928Z" fill="url(#paint1_linear)"/>
<path d="M238.067 122.268H218.401V141.307H238.067V122.268Z" fill="#FFFFA5"/>
<path d="M319.219 189.043H298.85V208.762H319.219V189.043Z" fill="url(#paint2_linear)"/>
<path d="M318.87 189.383H299.204V208.422H318.87V189.383Z" fill="#FFFFA5"/>
<path d="M139.837 91.0596H119.468V110.779H139.837V91.0596Z" fill="url(#paint3_linear)"/>
<path d="M139.484 91.3994H119.817V110.439H139.484V91.3994Z" fill="#FFFFA5"/>
<path d="M180.309 119.318H159.94V139.038H180.309V119.318Z" fill="url(#paint4_linear)"/>
<path d="M179.956 119.658H160.29V138.698H179.956V119.658Z" fill="#FF69B4"/>
<path d="M343.044 188.901H322.676V208.621H343.044V188.901Z" fill="url(#paint5_linear)"/>
<path d="M342.696 189.241H323.029V208.281H342.696V189.241Z" fill="#7CFCFF"/>
<path d="M378.809 91.3203H358.441V111.04H378.809V91.3203Z" fill="url(#paint6_linear)"/>
<path d="M378.461 91.6602H358.794V110.7H378.461V91.6602Z" fill="#7CFCFF"/>
<path d="M376.602 154.02H356.233V173.739H376.602V154.02Z" fill="url(#paint7_linear)"/>
<path d="M376.253 154.359H356.587V173.399H376.253V154.359Z" fill="#7CFCFF"/>
<path d="M392.056 158.435H371.687V178.154H392.056V158.435Z" fill="url(#paint8_linear)"/>
<path d="M391.707 158.774H372.041V177.814H391.707V158.774Z" fill="#7CFCFF"/>
<path d="M326.901 182.018H306.533V201.737H326.901V182.018Z" fill="url(#paint9_linear)"/>
<path d="M326.548 182.357H306.882V201.397H326.548V182.357Z" fill="#FF69B4"/>
<path d="M329.109 122.409H308.741V142.129H329.109V122.409Z" fill="url(#paint10_linear)"/>
<path d="M328.756 122.749H309.09V141.788H328.756V122.749Z" fill="#FF69B4"/>
<path opacity="0.1" d="M88.4283 126.224H65.0265V137.704H88.4283V126.224Z" fill="#3F3D56"/>
<path opacity="0.1" d="M88.4283 158.457H65.0265V169.937H88.4283V158.457Z" fill="#3F3D56"/>
<path opacity="0.1" d="M88.4283 190.689H65.0265V202.17H88.4283V190.689Z" fill="#3F3D56"/>
<path opacity="0.1" d="M88.4283 222.922H65.0265V234.402H88.4283V222.922Z" fill="#3F3D56"/>
<path opacity="0.1" d="M88.4283 255.155H65.0265V266.635H88.4283V255.155Z" fill="#3F3D56"/>
<path d="M136.115 155.017C136.769 154.602 136.508 153.489 135.837 153.105C135.166 152.721 134.331 152.849 133.576 152.999C133.608 152.806 133.579 152.609 133.491 152.434C133.404 152.26 133.264 152.117 133.09 152.028V151.86C133.532 151.418 133.364 150.535 132.826 150.147C132.287 149.758 131.448 149.74 130.724 149.776C130.775 149.337 130.722 148.892 130.569 148.477C130.415 148.063 130.166 147.691 129.841 147.391C129.714 147.255 129.541 147.171 129.355 147.157C128.913 147.157 128.79 147.722 128.759 148.142C128.675 149.244 128.493 150.336 128.216 151.405L114.493 174.365C112.965 176.573 117.711 169.95 116.184 172.18C115.41 173.393 114.504 174.517 113.481 175.531C112.564 176.35 111.537 177.038 110.43 177.575C109.691 177.597 108.964 177.39 108.346 176.984C107.571 176.441 106.893 175.77 106.342 175.001C105.145 173.48 104.064 171.873 103.105 170.193C102.773 169.661 102.523 169.082 102.363 168.475C102.16 167.521 102.363 166.488 101.988 165.592C101.828 165.258 101.63 164.943 101.396 164.656L100.447 163.397V163.34C100.341 161.477 98.8266 160.037 97.4137 158.81C96.2127 157.759 94.9101 156.664 93.325 156.461C92.4772 156.35 91.6074 156.514 90.7596 156.408C90.0664 156.319 89.4085 156.059 88.7197 155.944C88.0567 155.853 87.3855 155.84 86.7195 155.904L86.4369 155.644C87.9024 155.025 89.1472 153.978 90.009 152.641C90.6625 151.586 91.0201 150.367 91.625 149.281C92.3624 147.956 93.4575 146.861 94.2743 145.59C96.248 142.574 96.6101 138.693 95.8109 135.178C95.0117 131.664 93.1395 128.471 90.9539 125.623C86.7151 120.139 79.6062 118.117 72.9124 119.177C72.4709 119.247 72.0293 119.331 71.5878 119.428C70.4616 119.665 69.3624 120.016 68.3071 120.475C66.8791 121.059 65.6401 122.027 64.7262 123.27C64.4798 123.633 64.2712 124.021 64.1036 124.427C63.9803 124.737 63.8799 125.056 63.8034 125.38C63.5981 126.361 63.543 127.368 63.64 128.365C63.6665 128.705 63.7018 129.045 63.7415 129.385L63.8078 129.897C63.8519 130.237 63.9005 130.577 63.9491 130.917C64.0197 131.429 64.0859 131.942 64.1345 132.445C64.1734 132.801 64.1926 133.16 64.1919 133.518C64.1919 133.611 64.1919 133.699 64.1919 133.787C64.1763 134.054 64.1364 134.318 64.0727 134.578C64.0379 134.72 63.9936 134.86 63.9402 134.997C63.7812 135.403 63.572 135.787 63.3177 136.141C62.9737 136.621 62.6006 137.08 62.2005 137.514L61.8164 137.956C61.6884 138.101 61.5647 138.251 61.4367 138.397C60.9319 138.986 60.47 139.61 60.0546 140.265C59.852 140.594 59.6706 140.937 59.5115 141.289C59.3907 141.556 59.286 141.831 59.198 142.11C59.0857 142.486 59.0059 142.87 58.9596 143.258C58.9596 143.356 58.9596 143.453 58.9331 143.55C58.9331 143.74 58.9331 143.934 58.9331 144.128C58.9428 144.321 58.9634 144.512 58.9949 144.702C59.026 144.891 59.0703 145.077 59.1274 145.259C59.1827 145.443 59.2521 145.623 59.3349 145.797C59.3349 145.846 59.3791 145.894 59.4056 145.943L59.4762 146.089C59.5248 146.186 59.5734 146.279 59.6175 146.376C59.6842 146.516 59.7331 146.665 59.7632 146.817C59.7632 146.866 59.7632 146.919 59.7632 146.972C59.7632 147.025 59.7632 147.087 59.7632 147.14C59.693 147.583 59.46 147.985 59.1097 148.266C59.0214 148.349 58.9331 148.425 58.8404 148.504L58.6991 148.619L58.4121 148.844L58.1383 149.065C57.8978 149.266 57.6748 149.488 57.4716 149.727C54.9854 149.594 52.4933 149.838 50.0802 150.451C49.2228 150.73 48.3316 150.892 47.4309 150.932C47.2148 150.952 46.997 150.919 46.7968 150.835C46.5967 150.751 46.4202 150.619 46.2829 150.451C46.1299 150.12 46.0881 149.748 46.1637 149.392C46.2827 147.913 46.0403 146.428 45.4572 145.064C45.3163 144.665 45.0726 144.31 44.7507 144.036C44.5867 143.902 44.3846 143.824 44.1735 143.813C43.9625 143.802 43.7533 143.858 43.5762 143.974C44.323 146.389 44.2155 148.989 43.2716 151.334C42.7868 152.44 42.2185 153.507 41.5716 154.527C40.5649 156.244 39.9997 158.209 39.1034 159.989C40.1057 163.384 39.8805 167.009 40.428 170.515C40.9181 173.778 42.0573 176.904 43.2009 179.999C44.084 182.335 45.0024 184.772 46.8746 186.415C47.4779 187.024 48.2918 187.378 49.1485 187.404C49.7826 187.326 50.3885 187.095 50.9147 186.733C51.4608 186.435 51.9642 186.066 52.4115 185.633C52.577 185.452 52.7248 185.255 52.8531 185.046C52.9079 185.342 53.0204 185.624 53.1842 185.876C54.2616 183.554 55.4449 181.284 56.7166 179.063C57.0953 178.862 57.4507 178.619 57.7763 178.339C57.7763 178.419 57.816 178.498 57.8381 178.578C57.7807 178.79 57.7277 179.019 57.6703 179.218C57.6129 179.417 57.5467 179.628 57.4849 179.827C57.423 180.026 57.3921 180.123 57.3436 180.269C57.295 180.414 57.2243 180.622 57.1581 180.799C57.0919 180.975 57.0168 181.183 56.9418 181.373C56.8667 181.562 56.8402 181.646 56.7828 181.779C56.6459 182.114 56.5046 182.441 56.3413 182.768C56.4643 182.828 56.5911 182.879 56.721 182.922L56.8049 182.949C56.9193 182.985 57.0358 183.015 57.1537 183.037H57.2817C57.3681 183.051 57.455 183.059 57.5423 183.064H57.6394H57.9264C58.2424 183.05 58.5554 182.996 58.8581 182.905L59.0303 183.611C59.4707 185.199 59.7547 186.825 59.878 188.468C59.9619 190.323 59.6396 192.208 59.9972 194.032C60.1783 194.981 60.5448 195.89 60.6772 196.844C60.7626 197.742 60.7463 198.647 60.6286 199.542C60.4226 201.709 60.2165 203.877 60.0105 206.046C59.9916 206.842 59.8018 207.625 59.4541 208.342C59.1495 208.872 58.655 209.477 58.964 210.002C59.4729 209.867 59.9908 209.768 60.5138 209.706C60.324 210.395 60.1518 211.088 59.9884 211.786C59.8291 212.305 59.7869 212.852 59.8648 213.389C59.9752 213.892 60.3063 214.347 60.3416 214.859C60.4211 215.654 59.8692 216.356 59.5645 217.093C58.7874 218.974 59.6131 221.094 60.4476 222.957L62.8849 228.485L64.8851 233.02C65.4768 234.345 66.0729 235.713 66.6513 237.073C69.258 243.266 71.3866 249.648 73.0184 256.166C73.0729 256.462 73.1854 256.744 73.3495 256.996C73.6851 257.437 74.2989 257.579 74.7978 257.852C76.2946 258.678 76.4668 261.142 75.098 262.166C75.3762 265.487 72.8903 268.697 71.6099 271.77C68.6603 278.835 69.1946 286.809 68.1835 294.403L69.3271 293.737C69.4627 293.798 69.5878 293.88 69.698 293.979C69.6715 294.121 69.6406 294.268 69.6052 294.421C69.4505 295.067 69.2037 295.687 68.8723 296.262C68.2055 297.406 67.1856 298.426 67.031 299.742C66.9383 300.536 67.1812 301.331 67.1767 302.13C67.1767 302.205 67.1767 302.276 67.1767 302.351C67.0752 302.254 66.9207 302.263 66.6911 302.444C66.3316 302.821 66.0827 303.29 65.9713 303.799C65.7726 304.369 65.6137 304.947 65.4547 305.526L64.8631 307.566C64.5609 308.795 64.1608 309.999 63.6665 311.164C63.2437 311.945 62.8892 312.76 62.6068 313.602C62.4494 314.288 62.3884 314.992 62.4257 315.695C62.4141 316.368 62.511 317.039 62.7127 317.682C62.9778 318.315 63.3718 318.885 63.8698 319.357C64.3678 319.83 64.9587 320.193 65.6049 320.424C66.8982 320.878 68.2529 321.134 69.6229 321.183C69.9741 321.228 70.3302 321.218 70.6782 321.152C71.0508 321.045 71.3978 320.863 71.6982 320.618C73.5615 319.249 74.524 316.732 74.6918 314.436C74.6447 313.962 74.5605 313.493 74.4401 313.032C74.5549 310.52 74.1885 307.994 74.3783 305.491C74.4181 305.778 74.4578 306.06 74.502 306.343L74.9435 309.155C74.9176 309.055 74.8658 308.964 74.7934 308.89C74.4666 309.932 74.4088 311.039 74.6256 312.109C74.8458 313.174 75.1559 314.219 75.5528 315.231L76.1533 316.909C76.298 317.415 76.5411 317.888 76.8686 318.3C77.3941 318.878 78.1933 319.095 78.9616 319.28C80.613 319.762 82.3132 320.059 84.0305 320.163C84.2601 320.19 84.4925 320.147 84.6972 320.039C84.8023 319.962 84.9026 319.878 84.9975 319.788C85.15 319.678 85.3127 319.584 85.4832 319.505C86.221 319.117 86.7785 318.456 87.0374 317.664C87.1616 317.27 87.2003 316.853 87.1508 316.443C87.1013 316.033 86.9648 315.637 86.7504 315.284C86.5496 314.986 86.3204 314.708 86.066 314.454L83.0458 311.253C82.5841 310.704 82.0917 310.182 81.5711 309.69C81.5089 309.626 81.4323 309.578 81.3477 309.551C81.2632 309.523 81.1732 309.516 81.0854 309.531C80.2641 307.482 80.3701 305.089 80.5114 302.841C80.5555 302.17 80.922 300.779 81.0677 299.636C81.6502 299.439 82.193 299.14 82.6705 298.753C83.1308 298.416 83.4576 297.929 83.5934 297.375C85.1167 289.595 87.5672 282.053 89.8809 274.472C90.1105 273.726 90.3225 272.975 90.5565 272.229C90.6536 271.911 90.742 271.589 90.8347 271.266C90.9274 270.944 90.9892 270.745 91.0643 270.485C91.1879 270.043 91.3116 269.602 91.4308 269.16C91.4661 269.041 91.497 268.922 91.5323 268.803C91.5303 268.779 91.5303 268.756 91.5323 268.732C91.678 268.189 91.8193 267.646 91.9739 267.103C92.0268 266.891 92.0842 266.688 92.1372 266.476C92.3094 265.787 92.4816 265.089 92.645 264.396C92.6719 264.3 92.6926 264.203 92.7068 264.105C92.7665 263.86 92.7495 263.602 92.6583 263.367C92.6143 263.276 92.5561 263.193 92.4861 263.12C92.4375 263.063 92.3845 263.005 92.3315 262.952C92.2785 262.899 92.2167 262.829 92.1637 262.762C92.0243 262.591 91.9194 262.395 91.8546 262.184C91.8546 261.972 91.8546 261.742 91.8546 261.548C91.8546 261.354 91.8282 261.107 91.8149 260.877C91.8622 260.579 91.9286 260.284 92.0136 259.994C92.0666 259.822 92.124 259.649 92.177 259.477C92.23 259.305 92.3094 259.036 92.3801 258.837C92.6443 258.536 92.7874 258.147 92.7819 257.746C93.0556 257.063 93.3574 256.394 93.6871 255.737C94.0937 255.072 94.3681 254.334 94.4951 253.565C94.4932 252.87 94.4072 252.177 94.239 251.503C93.7974 248.633 95.1221 245.838 96.0979 243.114C96.8218 241.104 97.3714 239.036 97.7404 236.932C98.0274 235.32 98.2261 233.629 99.0871 232.234C99.3713 231.842 99.6139 231.422 99.8113 230.98C99.9449 230.518 100.01 230.039 100.006 229.558C100.114 227.609 100.586 225.696 101.396 223.92C101.576 223.575 101.698 223.204 101.758 222.82C101.761 222.795 101.761 222.77 101.758 222.745V222.639L101.984 222.604C102.368 220.171 102.756 217.46 102.491 215.009C102.147 212.171 100.764 209.56 98.6103 207.68H98.6544C99.4139 207.296 99.7539 206.355 99.7671 205.525C99.7689 204.896 99.6294 204.275 99.3589 203.707C99.0883 203.139 98.6937 202.639 98.2041 202.244C97.9851 202.108 97.8031 201.92 97.6742 201.697C97.601 201.467 97.5784 201.225 97.608 200.986C97.6115 200.265 97.4006 199.559 97.002 198.959C96.6033 198.358 96.035 197.889 95.3693 197.613C95.2311 197.574 95.105 197.501 95.0029 197.401C94.8894 197.206 94.8547 196.975 94.9057 196.756C94.9467 196.039 94.7911 195.325 94.4557 194.69C94.1203 194.055 93.6179 193.523 93.0027 193.153C93.1793 192.208 93.3559 191.219 93.0866 190.292C92.8172 189.364 91.9474 188.526 90.9936 188.658C91.7708 186.539 90.6669 184.181 90.9583 181.942C91.0864 180.98 91.4705 180.057 91.5191 179.09C91.5632 178.207 91.3469 177.262 91.7752 176.493C92.2035 175.725 93.2146 175.125 92.9541 174.286C92.8437 173.928 92.5125 173.681 92.358 173.332C92.2035 172.983 92.8216 172.449 93.1395 172.643C93.2897 172.528 93.4398 172.409 93.5811 172.286C93.6272 172.735 93.7159 173.178 93.846 173.61C94.0624 174.334 94.3935 175.014 94.6187 175.734C94.9631 176.833 95.0603 178.026 95.6166 179.032C96.4997 180.644 98.3674 181.443 99.6302 182.781C100.372 183.563 100.906 184.547 101.67 185.289C102.25 185.831 102.887 186.309 103.569 186.715L107.649 189.364C108.072 189.672 108.543 189.906 109.044 190.058C109.361 190.118 109.688 190.113 110.004 190.044C110.319 189.974 110.617 189.84 110.88 189.652C111.142 189.463 111.363 189.222 111.53 188.945C111.696 188.668 111.804 188.36 111.848 188.04C111.473 187.907 111.131 187.695 110.845 187.417C110.903 187.417 110.96 187.417 111.018 187.391C111.987 187.137 112.883 186.661 113.636 186C116.541 183.686 118.63 180.529 120.67 177.425C122.807 174.171 133.09 165.561 133.09 165.561V162.073C134.399 161.314 135.56 160.325 136.517 159.154C137.033 158.529 137.335 157.755 137.378 156.946C137.398 156.533 137.286 156.123 137.059 155.777C136.832 155.43 136.502 155.164 136.115 155.017ZM50.5879 163.384C50.3907 164.653 50.1479 165.913 49.8594 167.164C49.5416 168.611 49.1346 170.037 48.6407 171.433L48.4818 171.875C48.3361 171.601 48.1904 171.332 48.0402 171.054C47.7091 170.36 47.4397 169.641 47.1571 168.921L45.4528 164.329C45.232 163.733 45.0112 163.044 45.3424 162.497C45.5851 162.161 45.9238 161.907 46.3138 161.768C47.5121 161.218 48.7639 160.794 50.0493 160.501C50.4557 160.419 50.8567 160.313 51.2503 160.183C50.9334 161.228 50.7117 162.299 50.5879 163.384ZM52.4733 157.644C52.4165 157.542 52.3867 157.427 52.3867 157.311C52.3867 157.194 52.4165 157.079 52.4733 156.977C52.6009 156.849 52.7504 156.744 52.9149 156.668L53.0429 156.58C52.8663 156.946 52.6676 157.3 52.4733 157.657V157.644ZM56.0057 152.65C55.5044 153.066 55.0486 153.534 54.6457 154.045C54.2134 154.616 53.8238 155.219 53.48 155.847C53.5321 155.603 53.5142 155.349 53.4282 155.115C53.3423 154.88 53.1919 154.675 52.9944 154.522C52.838 154.436 52.6901 154.336 52.5528 154.222C52.4053 154.025 52.3419 153.778 52.3767 153.535C52.4115 153.291 52.5415 153.071 52.7383 152.924C53.1446 152.645 53.6195 152.483 54.1115 152.456L56.147 152.156C56.0852 152.328 56.0454 152.496 56.0013 152.663L56.0057 152.65ZM75.0627 300.413C75.0986 299.802 75.0586 299.19 74.9435 298.589C75.1952 298.589 75.4469 298.589 75.6941 298.589C75.4866 299.176 75.2747 299.799 75.0627 300.413Z" fill="url(#paint11_linear)"/>
<path d="M72.9873 120.502C69.4549 121.071 65.5252 122.431 64.1564 125.743C63.1365 128.246 63.9268 131.063 64.1873 133.752C64.2861 134.462 64.2607 135.184 64.1123 135.885C63.8208 137.02 63.0172 137.938 62.2401 138.817C61.1605 139.932 60.2542 141.203 59.5511 142.588C58.9153 144.001 58.7122 145.678 59.3701 147.091C59.5939 147.454 59.7439 147.858 59.8116 148.279C59.8558 149.198 58.8932 149.78 58.1867 150.368C55.5375 152.575 55.6479 156.549 55.6258 160.007C55.5851 167.056 54.0201 174.013 51.0381 180.401C52.1557 180.967 53.4179 181.183 54.6601 181.021C55.9022 180.859 57.0666 180.326 58.0013 179.492C57.6341 181.062 57.1043 182.589 56.4206 184.049C58.6636 185.135 61.3703 183.351 62.4962 181.126C63.6222 178.9 63.7546 176.313 64.5538 173.951C65.353 171.588 66.7615 169.535 67.3841 167.155C67.5828 166.369 67.7064 165.53 68.1877 164.877C68.5932 164.404 69.0699 163.997 69.6007 163.671C71.9296 161.99 73.6755 159.624 74.5945 156.902C77.3409 157.507 80.1447 158.117 82.9441 157.861C85.7435 157.605 88.6047 156.337 90.0839 153.944C90.7374 152.889 91.0906 151.675 91.6955 150.588C92.4373 149.264 93.5279 148.169 94.3448 146.902C96.3141 143.886 96.6761 140.013 95.8769 136.499C95.0777 132.984 93.2277 129.805 91.0199 126.957C86.79 121.464 79.6811 119.429 72.9873 120.502Z" fill="#303D5C"/>
<path d="M50.6937 164.665C50.495 165.928 50.2521 167.191 49.9695 168.441C49.6491 169.885 49.2422 171.31 48.7509 172.706C48.462 173.317 48.33 173.991 48.3667 174.666C48.4539 175.08 48.6138 175.475 48.8392 175.832C50.4508 178.698 52.632 181.466 52.8131 184.751C52.8572 185.568 52.8131 186.456 53.2546 187.131C54.4998 184.45 55.8745 181.836 57.3786 179.289C58.9505 176.64 60.6991 173.929 61.1494 170.865C61.329 169.426 61.3097 167.97 61.092 166.538C60.8845 164.926 60.5224 163.275 59.5422 161.985C58.4737 160.59 55.5683 158.484 53.6564 158.921C51.4355 159.429 50.9763 162.868 50.6937 164.665Z" fill="#6C63FF"/>
<path d="M107.604 180.11C109.715 179.249 111.87 178.344 113.543 176.79C114.565 175.776 115.471 174.652 116.245 173.439L121.213 166.272C122.387 164.568 123.601 162.78 123.862 160.727C126.771 157.655 128.524 153.669 128.82 149.449C128.856 149.03 128.997 148.478 129.417 148.465C129.602 148.479 129.776 148.562 129.902 148.699C130.227 148.998 130.476 149.369 130.63 149.783C130.783 150.196 130.836 150.641 130.785 151.079C131.509 151.043 132.295 151.026 132.887 151.45C133.479 151.874 133.638 152.924 133.002 153.273C133.215 153.338 133.396 153.478 133.513 153.668C133.629 153.857 133.672 154.083 133.633 154.302C134.393 154.152 135.227 154.028 135.898 154.408C136.57 154.788 136.826 155.9 136.177 156.315C136.555 156.462 136.879 156.721 137.104 157.059C137.33 157.396 137.445 157.795 137.435 158.201C137.395 159.011 137.092 159.785 136.574 160.409C134.667 162.97 131.302 164.003 129.09 166.308C128.363 167.113 127.711 167.984 127.143 168.908L120.736 178.658C118.7 181.748 116.612 184.914 113.706 187.219C112.954 187.88 112.057 188.357 111.088 188.61C110.603 188.732 110.094 188.726 109.611 188.592C109.129 188.459 108.69 188.201 108.337 187.846C107.697 187.118 107.6 186.08 107.538 185.104C107.432 183.462 107.715 181.766 107.604 180.11Z" fill="#EE8E9E"/>
<path d="M86.1496 315.514C86.4051 315.767 86.6344 316.045 86.834 316.344C87.0483 316.696 87.1847 317.091 87.2342 317.5C87.2837 317.91 87.2451 318.326 87.121 318.719C86.865 319.511 86.3085 320.171 85.5712 320.556C85.3988 320.634 85.2346 320.728 85.081 320.839C84.9872 320.931 84.8868 321.017 84.7808 321.095C84.5746 321.198 84.3435 321.241 84.1141 321.218C82.3987 321.11 80.7005 320.813 79.0496 320.335C78.2901 320.145 77.4865 319.929 76.9566 319.355C76.6291 318.943 76.386 318.47 76.2413 317.964L75.6408 316.291C75.2466 315.279 74.9379 314.237 74.718 313.173C74.4989 312.105 74.5567 310.999 74.8858 309.959C75.0347 310.145 75.1129 310.378 75.1066 310.617C75.2833 311.743 75.7252 312.812 76.3959 313.734C76.536 313.965 76.7052 314.177 76.8992 314.366C77.3382 314.703 77.8569 314.92 78.4049 314.997C79.4596 315.226 80.5321 315.364 81.6105 315.408C81.7598 315.428 81.9118 315.41 82.0521 315.355C82.2252 315.259 82.356 315.101 82.4185 314.913C82.573 314.485 82.573 314.017 82.4185 313.588C82.1271 312.772 81.3279 312.237 80.9482 311.46C80.6612 310.886 81.0542 310.255 81.637 310.741C82.1602 311.232 82.6541 311.754 83.1162 312.304L86.1496 315.514Z" fill="#303D5C"/>
<path d="M80.5992 303.915C80.427 306.613 80.3078 309.527 81.7826 311.792C82.3168 312.604 83.0277 313.289 83.6326 314.053C83.9795 314.435 84.2094 314.908 84.295 315.417C84.3788 316.406 83.4516 317.254 82.4758 317.439C81.5 317.625 80.5021 317.316 79.5572 316.998C78.6631 316.775 77.8214 316.379 77.0801 315.832C75.7952 314.746 75.4552 312.935 75.1992 311.275L74.5987 307.416C74.1438 305.465 74.336 303.42 75.1462 301.588L76.1352 298.691C76.2 298.41 76.355 298.157 76.5768 297.972C76.8069 297.845 77.0715 297.795 77.3318 297.83C78.2767 297.879 80.6655 298.223 81.1247 299.225C81.5132 300.095 80.6655 302.877 80.5992 303.915Z" fill="#EE8E9E"/>
<path opacity="0.05" d="M80.5992 303.915C80.427 306.613 80.3078 309.527 81.7826 311.792C82.3168 312.604 83.0277 313.289 83.6326 314.053C83.9795 314.435 84.2094 314.908 84.295 315.417C84.3788 316.406 83.4516 317.254 82.4758 317.439C81.5 317.625 80.5021 317.316 79.5572 316.998C78.6631 316.775 77.8214 316.379 77.0801 315.832C75.7952 314.746 75.4552 312.935 75.1992 311.275L74.5987 307.416C74.1438 305.465 74.336 303.42 75.1462 301.588L76.1352 298.691C76.2 298.41 76.355 298.157 76.5768 297.972C76.8069 297.845 77.0715 297.795 77.3318 297.83C78.2767 297.879 80.6655 298.223 81.1247 299.225C81.5132 300.095 80.6655 302.877 80.5992 303.915Z" fill="black"/>
<path d="M101.824 223.947C101.826 223.972 101.826 223.997 101.824 224.022C101.768 224.403 101.646 224.773 101.462 225.112C100.652 226.884 100.179 228.792 100.067 230.738C100.072 231.218 100.006 231.697 99.8727 232.159C99.6746 232.599 99.432 233.018 99.1485 233.409C98.2875 234.809 98.0888 236.5 97.8018 238.102C97.4319 240.197 96.8823 242.257 96.1593 244.258C95.1746 246.986 93.85 249.777 94.3004 252.647C94.4686 253.321 94.5546 254.014 94.5565 254.709C94.4307 255.477 94.1562 256.214 93.7485 256.877C93.4188 257.53 93.1244 258.2 92.8654 258.886C92.5784 259.619 92.3223 260.37 92.0971 261.129C91.8322 262.052 91.6555 263.147 92.2649 263.889C92.4542 264.07 92.6216 264.273 92.7638 264.494C92.8785 264.831 92.8785 265.198 92.7638 265.536C92.4135 267.007 92.0397 268.479 91.6423 269.951C91.3332 271.099 91.0065 272.238 90.6709 273.377C88.1894 281.709 85.3724 289.957 83.7122 298.492C83.4737 299.72 81.8974 300.599 80.6788 300.868C80.0651 300.999 79.429 300.983 78.8227 300.821C78.2165 300.659 77.6571 300.356 77.1906 299.936C77.1067 299.861 77.0272 299.777 76.9521 299.698C75.6716 298.32 75.4818 296.205 75.5789 294.298C76.0205 285.515 80.4359 277.475 82.5377 268.94C83.2978 265.854 83.7562 262.701 83.9064 259.526C84.3966 248.929 84.5953 237.723 81.5972 227.536C80.9746 225.417 80.2372 223.024 81.3587 221.125C82.0652 219.924 83.3766 219.213 84.6747 218.701C87.3222 217.669 90.149 217.177 92.9894 217.253C95.8298 217.329 98.6264 217.971 101.215 219.143C101.219 219.355 101.21 219.567 101.188 219.778C101.076 220.766 101.191 221.765 101.524 222.701C101.695 223.096 101.797 223.517 101.824 223.947Z" fill="#303D5C"/>
<path d="M65.5207 306.63L64.9599 308.67C64.6613 309.897 64.2625 311.098 63.7678 312.26C63.345 313.04 62.9905 313.856 62.7081 314.697C62.5507 315.383 62.4897 316.087 62.527 316.79C62.5154 317.462 62.6124 318.131 62.814 318.773C63.0784 319.405 63.4717 319.975 63.969 320.446C64.4662 320.918 65.0564 321.28 65.7017 321.51C66.9948 321.965 68.3498 322.22 69.7198 322.265C70.0706 322.314 70.4271 322.305 70.7751 322.239C71.1477 322.131 71.4947 321.95 71.795 321.704C73.6583 320.34 74.6165 317.823 74.7843 315.523C74.7361 314.986 74.631 314.456 74.4708 313.942C74.3251 313.748 72.9166 314.543 73.5215 315.209C74.4046 316.19 71.8039 315.682 70.4792 315.598C69.8974 315.548 69.3202 315.453 68.7528 315.315L66.6069 314.874C65.9048 314.724 65.0968 314.481 64.8407 313.81C64.5846 313.139 65.1321 312.335 65.556 311.681C66.6775 309.946 66.969 307.822 67.2295 305.774C67.278 305.372 67.7814 302.762 66.7438 303.566C66.3876 303.946 66.1391 304.414 66.024 304.921C65.8342 305.473 65.6752 306.052 65.5207 306.63Z" fill="#303D5C"/>
<path opacity="0.05" d="M92.243 263.893C91.6336 263.151 91.8014 262.056 92.0796 261.134C92.1767 260.789 92.2871 260.449 92.4019 260.109L83.9773 257.257C83.9464 258.016 83.911 258.767 83.8757 259.518C83.7288 262.694 83.2719 265.848 82.5113 268.936C80.4052 277.466 75.9853 285.507 75.5526 294.285C75.451 296.307 75.6674 298.568 77.1642 299.928C77.6299 300.347 78.1883 300.651 78.7938 300.814C79.3993 300.976 80.0347 300.994 80.648 300.864C81.8711 300.594 83.443 299.711 83.6858 298.484C85.3549 289.949 88.1587 281.705 90.6446 273.364C91.4188 270.777 92.1164 268.169 92.7375 265.54C92.8522 265.204 92.8522 264.839 92.7375 264.503C92.5992 264.279 92.433 264.075 92.243 263.893Z" fill="black"/>
<path d="M68.965 297.375C68.2982 298.523 67.2827 299.539 67.1281 300.854C67.0354 301.645 67.2783 302.44 67.2739 303.239C67.2412 303.9 67.124 304.555 66.925 305.186C66.1038 308.15 65.1589 311.073 64.0903 313.955C63.9147 314.327 63.8371 314.737 63.8651 315.147C63.9711 315.823 64.629 316.269 65.256 316.538C67.265 317.395 69.5257 317.337 71.707 317.249C72.3413 317.275 72.9701 317.122 73.5217 316.807C74.3032 316.273 74.4975 315.218 74.5461 314.273C74.6962 311.535 74.2326 308.785 74.5461 306.065C74.6565 305.071 74.864 304.095 75.0185 303.111C75.2349 301.742 75.3453 300.303 74.8949 298.991C74.522 298.05 74.0002 297.175 73.3495 296.399C72.7754 295.559 72.049 294.835 71.208 294.262C70.9519 294.112 70.2234 293.644 69.9629 293.935C69.8304 294.086 69.8878 294.487 69.8701 294.673C69.8359 294.958 69.7858 295.241 69.72 295.521C69.5586 296.172 69.3043 296.796 68.965 297.375Z" fill="#EE8E9E"/>
<path opacity="0.05" d="M85.1518 227.365C84.7588 227.899 84.8383 228.641 84.9972 229.285C85.2754 230.451 85.7434 231.568 86.1232 232.703C86.7446 234.741 87.2285 236.818 87.5714 238.92C87.9247 240.819 88.6753 242.934 88.3706 244.845C90.6737 249.229 92.1877 253.983 92.8435 258.891C93.0157 260.149 90.2207 261.774 90.2737 263.041C90.3796 265.567 92.3931 265.77 90.9095 267.784C90.8344 267.885 91.4659 270.141 91.382 270.239C90.777 270.967 90.0088 271.563 89.3597 272.23C88.5225 273.178 87.8062 274.227 87.227 275.352C83.3856 282.293 77.831 290.161 79.5442 297.91C79.5791 298.189 79.5275 298.472 79.3964 298.721C79.2653 298.97 79.0611 299.172 78.8112 299.301C78.3041 299.545 77.7491 299.673 77.1863 299.676H76.9214C75.6409 298.299 75.4511 296.184 75.5482 294.276C75.9897 285.494 80.4052 277.453 82.5069 268.918C83.2671 265.832 83.7255 262.68 83.8757 259.505C84.3658 248.908 84.5645 237.701 81.5664 227.515C80.9439 225.395 80.2065 223.002 81.328 221.104C82.0345 219.903 83.3459 219.192 84.644 218.68C87.2914 217.648 90.1183 217.155 92.9587 217.231C95.799 217.307 98.5956 217.95 101.184 219.121C101.189 219.333 101.18 219.546 101.158 219.757C101.045 220.744 101.16 221.744 101.493 222.68C101.678 223.081 101.791 223.511 101.824 223.952C101.824 223.952 101.975 222.243 101.97 222.269C98.5482 222.759 94.9364 224.998 91.4835 225.506C89.6934 225.697 87.9298 226.085 86.2247 226.663C85.8093 226.793 85.438 227.036 85.1518 227.365Z" fill="black"/>
<path d="M61.3128 208.563C60.8507 210.035 60.443 211.521 60.0898 213.023C59.9326 213.541 59.8904 214.088 59.9661 214.625C60.0765 215.129 60.4077 215.579 60.443 216.091C60.5225 216.886 59.9705 217.588 59.6659 218.325C58.8888 220.202 59.7189 222.321 60.549 224.18L62.9863 229.7L64.9909 234.23C65.587 235.577 66.1787 236.923 66.7571 238.279C69.3623 244.464 71.4894 250.839 73.1197 257.349C73.1746 257.644 73.2855 257.926 73.4465 258.179C73.7865 258.621 74.4002 258.762 74.8947 259.036C76.396 259.857 76.5682 262.321 75.195 263.345C75.4776 266.661 72.9873 269.863 71.7112 272.936C68.7617 280 69.296 287.948 68.2848 295.543L69.4284 294.872C70.5279 295.375 70.4881 296.934 71.0798 297.989C71.9629 299.574 74.1353 299.795 75.9368 299.676C76.4982 299.673 77.0519 299.545 77.5572 299.3C77.8075 299.172 78.0122 298.969 78.1433 298.721C78.2745 298.472 78.3258 298.188 78.2902 297.909C76.5814 290.16 82.1316 282.292 85.9775 275.351C86.5551 274.226 87.27 273.178 88.1057 272.229C88.7592 271.54 89.5231 270.962 90.1324 270.238C91.8279 268.202 92.0443 265.332 91.9295 262.683C91.6602 256.453 90.0167 250.36 87.1167 244.84C87.4258 242.933 86.6751 240.818 86.3219 238.919C85.9776 236.817 85.4893 234.742 84.8604 232.707C84.4807 231.563 84.017 230.45 83.7344 229.285C83.5799 228.64 83.496 227.898 83.889 227.364C84.1793 227.034 84.5552 226.791 84.9752 226.662C86.6802 226.084 88.4438 225.696 90.234 225.505L102.081 223.805C102.46 221.372 102.849 218.661 102.584 216.215C102.299 213.948 101.356 211.815 99.8697 210.079C98.3839 208.344 96.4214 207.083 94.2255 206.452C93.7089 206.315 93.104 206.227 92.6801 206.554C82.2264 204.502 71.4193 205.194 61.3128 208.563Z" fill="#303D5C"/>
<path d="M72.0558 144.579C72.2285 145.736 72.0484 146.917 71.5392 147.97C71.1952 148.545 70.7458 149.05 70.2145 149.458C69.0691 150.379 67.7373 151.041 66.3113 151.397C65.4724 151.609 64.5451 151.75 63.9755 152.417C63.1454 153.419 63.7018 154.938 64.4171 156.033C65.6446 157.94 67.3489 159.667 69.5346 160.263C71.3007 160.74 73.142 160.448 74.9258 160.757C76.2195 160.982 77.4382 161.517 78.7143 161.821C80.5301 162.237 82.4209 162.192 84.2151 161.692C86.0093 161.191 87.6502 160.251 88.989 158.956C87.0903 157.499 85.1211 155.949 84.132 153.768C83.4359 152.207 83.3047 150.452 83.7611 148.805C84.2026 147.189 85.2403 145.617 84.9224 143.948C84.6045 142.279 82.9796 141.162 81.39 140.605C79.9306 140.162 78.4309 139.865 76.9128 139.718C76.0782 139.603 70.7797 138.433 70.4486 139.011C70.2631 139.338 71.3626 141.272 71.4994 141.7C71.8222 142.628 72.0096 143.598 72.0558 144.579Z" fill="#EE8E9E"/>
<path d="M78.7359 148.447C84.6714 148.447 89.483 143.636 89.483 137.7C89.483 131.765 84.6714 126.953 78.7359 126.953C72.8004 126.953 67.9887 131.765 67.9887 137.7C67.9887 143.636 72.8004 148.447 78.7359 148.447Z" fill="#EE8E9E"/>
<path d="M73.0581 155.463L80.348 156.69C82.1398 157.055 83.9637 157.238 85.7922 157.238C86.7906 157.139 87.7964 157.139 88.7947 157.238C89.4835 157.353 90.1414 157.613 90.8302 157.702C91.6824 157.808 92.5479 157.644 93.4 157.755C94.9808 157.958 96.2833 159.053 97.4843 160.099C98.8928 161.327 100.407 162.748 100.518 164.625C100.538 164.838 100.507 165.053 100.429 165.252C100.291 165.477 100.106 165.67 99.8863 165.817C98.5617 166.917 97.7978 168.555 96.8441 170.003C95.8621 171.497 94.6385 172.818 93.2234 173.911C92.9055 173.708 92.3006 174.242 92.4375 174.595C92.5743 174.948 92.9232 175.191 93.038 175.549C93.2985 176.375 92.2785 176.984 91.8546 177.757C91.4307 178.529 91.6471 179.47 91.603 180.348C91.55 181.315 91.1614 182.238 91.0422 183.196C90.7464 185.435 91.8546 187.793 91.0731 189.908C92.0312 189.789 92.8967 190.614 93.166 191.537C93.4354 192.46 93.2632 193.453 93.0821 194.398C93.6975 194.767 94.2004 195.296 94.5366 195.93C94.8728 196.563 95.0294 197.277 94.9896 197.993C94.9521 198.077 94.934 198.169 94.9366 198.261C94.9393 198.354 94.9627 198.444 95.0051 198.527C95.0475 198.609 95.1077 198.68 95.1815 198.736C95.2552 198.792 95.3405 198.831 95.4311 198.849C96.0958 199.126 96.6633 199.594 97.0618 200.194C97.4603 200.794 97.6719 201.498 97.6698 202.218C97.6402 202.459 97.6628 202.703 97.736 202.933C97.8647 203.154 98.045 203.341 98.2614 203.477C98.7512 203.87 99.146 204.369 99.4166 204.936C99.6872 205.504 99.8266 206.124 99.8245 206.753C99.8245 207.605 99.4713 208.519 98.7162 208.903C97.1708 209.689 95.515 209.994 93.8195 210.36C92.2572 210.729 90.6755 211.011 89.0817 211.204C87.6132 211.324 86.1395 211.369 84.6663 211.34L74.917 211.301C72.175 211.301 69.433 211.301 66.6999 211.093C64.1477 210.921 61.5382 210.603 59.0656 211.274C58.7565 210.749 59.251 210.144 59.5557 209.618C59.9049 208.902 60.0948 208.119 60.112 207.322L60.7302 200.827C60.8478 199.934 60.8641 199.031 60.7788 198.134C60.6463 197.176 60.2842 196.271 60.0988 195.321C59.7456 193.502 60.0679 191.621 59.984 189.767C59.8579 188.124 59.5725 186.497 59.1318 184.91L57.1978 176.962C56.8888 175.686 56.7254 174.202 56.2485 172.988C54.762 169.161 53.2033 165.376 51.5726 161.631C51.5136 161.467 51.4909 161.292 51.5061 161.118C51.5214 160.945 51.5742 160.776 51.6609 160.625L53.2725 157.737C53.7037 156.916 54.1967 156.129 54.7473 155.384C56.1084 153.662 58.0359 152.479 60.1871 152.045C62.3412 151.624 64.5746 151.955 66.5144 152.982C67.265 153.383 67.9627 153.865 68.7221 154.262C70.0247 154.88 71.6143 155.56 73.0581 155.463Z" fill="#6C63FF"/>
<path d="M98.9237 162.541L101.463 165.928C101.696 166.215 101.895 166.53 102.054 166.864C102.434 167.747 102.226 168.789 102.43 169.738C102.588 170.346 102.84 170.925 103.176 171.456C104.13 173.134 105.209 174.738 106.403 176.255C106.955 177.026 107.635 177.696 108.412 178.238C108.802 178.507 109.245 178.69 109.711 178.773C110.177 178.856 110.656 178.837 111.115 178.719C110.731 178.869 110.417 179.155 110.232 179.523C109.265 181.439 109.194 183.709 109.605 185.81C109.72 186.532 109.959 187.228 110.311 187.868C110.664 188.514 111.238 189.011 111.927 189.268C111.884 189.588 111.776 189.896 111.609 190.173C111.443 190.45 111.221 190.69 110.959 190.878C110.696 191.067 110.398 191.2 110.083 191.269C109.767 191.338 109.441 191.342 109.123 191.281C108.624 191.131 108.153 190.897 107.733 190.588L103.653 187.939C102.972 187.531 102.335 187.053 101.754 186.512C100.99 185.753 100.46 184.79 99.7185 184.009C98.4557 182.684 96.6012 181.872 95.7093 180.265C95.1485 179.258 95.0514 178.057 94.707 176.971C94.4818 176.251 94.1506 175.571 93.9343 174.847C93.2631 172.613 93.7488 170.162 94.7688 168.065C95.7888 165.967 97.4136 164.325 98.9237 162.541Z" fill="#6C63FF"/>
<path d="M89.3553 131.571C88.3607 130.029 87.0773 128.693 85.5757 127.637C83.5667 126.14 81.2574 124.895 78.7539 124.754C77.7071 124.701 76.661 124.871 75.6851 125.253C75.6366 122.22 74.8859 120.197 72.9873 120.502C69.4549 121.072 65.5252 122.432 64.1564 125.743C63.1365 128.247 63.9268 131.064 64.1873 133.753C64.2861 134.463 64.2607 135.184 64.1123 135.885C63.8208 137.02 63.0172 137.939 62.2401 138.817C61.1605 139.933 60.2542 141.204 59.5511 142.588C58.9153 144.001 58.7122 145.679 59.3701 147.092C59.5939 147.455 59.7439 147.858 59.8116 148.28C59.8558 149.198 58.8932 149.781 58.1867 150.368C55.5375 152.576 55.6479 156.55 55.6258 160.007C55.5851 167.056 54.0201 174.014 51.0381 180.402C52.1557 180.968 53.4179 181.184 54.6601 181.022C55.9022 180.859 57.0666 180.326 58.0013 179.492C57.6341 181.062 57.1043 182.589 56.4206 184.049C58.6636 185.135 61.3703 183.351 62.4962 181.126C63.6222 178.901 63.7546 176.313 64.5538 173.951C65.353 171.589 66.7615 169.535 67.3841 167.156C67.5828 166.37 67.7064 165.531 68.1877 164.877C68.5932 164.404 69.0699 163.998 69.6007 163.672C71.9143 162.012 68.5056 149.432 69.4108 146.73C70.7354 147.026 73.2301 140.548 74.6387 133.925C75.621 134.264 76.6688 134.368 77.6986 134.23C78.0566 134.152 78.4239 134.127 78.7892 134.155C79.1283 134.224 79.4517 134.356 79.7429 134.543C80.7852 135.183 81.8745 135.742 83.0015 136.217C85.3329 137.1 87.8938 136.972 90.3797 136.848C90.7165 135.023 90.3505 133.138 89.3553 131.571Z" fill="#303D5C"/>
<g opacity="0.1">
<path opacity="0.1" d="M52.301 180.401C55.292 174.022 56.8647 167.07 56.9107 160.024C56.9328 156.58 56.818 152.58 59.4716 150.385C60.1781 149.798 61.1407 149.215 61.0965 148.297C61.0271 147.876 60.8771 147.473 60.655 147.109C59.9971 145.705 60.2134 144.018 60.8316 142.605C61.5348 141.22 62.4428 139.949 63.525 138.834C64.2977 137.951 65.1057 137.037 65.3927 135.902C65.5407 135.201 65.5676 134.48 65.4722 133.77C65.2073 131.081 64.4213 128.264 65.4413 125.76C66.7659 122.555 70.4705 121.181 73.9145 120.581C73.615 120.485 73.2968 120.464 72.9873 120.519C69.4549 121.089 65.5252 122.449 64.1564 125.76C63.1365 128.264 63.9268 131.081 64.1873 133.77C64.2861 134.48 64.2607 135.201 64.1123 135.902C63.8208 137.037 63.0172 137.956 62.2401 138.834C61.1605 139.95 60.2542 141.221 59.5511 142.605C58.9153 144.018 58.7122 145.696 59.3701 147.109C59.5939 147.472 59.7439 147.875 59.8116 148.297C59.8558 149.215 58.8932 149.798 58.1867 150.385C55.5375 152.593 55.6479 156.567 55.6258 160.024C55.5825 167.068 54.0176 174.019 51.0381 180.401C52.0887 180.944 53.2754 181.167 54.4513 181.041C53.6998 180.969 52.9695 180.752 52.301 180.401Z" fill="black"/>
<path opacity="0.1" d="M57.6836 184.03C58.3628 182.57 58.8881 181.043 59.2511 179.474C58.7977 179.888 58.2822 180.229 57.7233 180.485C57.3788 181.696 56.9358 182.878 56.3987 184.017C57.0445 184.324 57.7716 184.417 58.4739 184.282C58.2009 184.232 57.9354 184.147 57.6836 184.03Z" fill="black"/>
<path opacity="0.1" d="M76.9479 125.252C77.6046 124.996 78.2945 124.836 78.9966 124.775H78.7538C78.1455 124.744 77.5357 124.79 76.939 124.912C76.9434 125.009 76.9479 125.128 76.9479 125.252Z" fill="black"/>
<path opacity="0.1" d="M84.2642 136.202C83.1386 135.728 82.0508 135.168 81.0101 134.529C80.7173 134.342 80.3925 134.21 80.0519 134.14C79.7181 134.11 79.3816 134.131 79.054 134.202C79.2933 134.289 79.5239 134.399 79.7428 134.529C80.7851 135.168 81.8744 135.728 83.0014 136.202C84.7564 136.781 86.6055 137.021 88.4501 136.909C87.0252 136.908 85.6104 136.67 84.2642 136.202Z" fill="black"/>
<path opacity="0.1" d="M75.9015 133.911C75.9015 134.008 75.8618 134.105 75.8397 134.203C76.3688 134.281 76.9055 134.296 77.4381 134.247C76.915 134.192 76.3996 134.08 75.9015 133.911Z" fill="black"/>
</g>
<path d="M53.5329 183.753C53.5944 184.322 53.5314 184.897 53.3484 185.439C53.1654 185.981 52.8668 186.477 52.4732 186.892C52.0256 187.324 51.5222 187.694 50.9764 187.992C50.4498 188.352 49.8439 188.581 49.2102 188.658C48.356 188.631 47.5444 188.279 46.9407 187.674C45.0685 186.031 44.1325 183.598 43.267 181.262C42.1234 178.172 40.9842 175.05 40.4941 171.787C39.9687 168.29 40.1939 164.669 39.1916 161.274C40.0747 159.508 40.6487 157.538 41.6598 155.825C42.3015 154.804 42.8696 153.739 43.3597 152.637C44.2987 150.292 44.4047 147.695 43.66 145.281C43.8371 145.166 44.0462 145.109 44.2573 145.121C44.4684 145.132 44.6705 145.209 44.8345 145.343C45.1554 145.619 45.3989 145.973 45.541 146.372C46.124 147.734 46.3665 149.217 46.2475 150.694C46.1719 151.05 46.2137 151.42 46.3667 151.75C46.5035 151.919 46.6798 152.051 46.88 152.136C47.0802 152.221 47.2982 152.255 47.5147 152.235C48.4149 152.191 49.3055 152.029 50.1639 151.754C52.8313 151.073 55.594 150.845 58.3369 151.079C58.8896 151.095 59.4327 151.227 59.9309 151.467C60.1772 151.59 60.3845 151.779 60.5295 152.013C60.6745 152.247 60.7516 152.516 60.7522 152.792L54.2173 153.75C53.7254 153.777 53.2504 153.939 52.8441 154.218C52.6487 154.365 52.5195 154.584 52.4847 154.827C52.45 155.069 52.5125 155.315 52.6587 155.512C52.7967 155.624 52.9445 155.725 53.1002 155.812C53.2678 155.939 53.4027 156.104 53.494 156.293C53.5852 156.482 53.6301 156.691 53.6249 156.901C53.6197 157.111 53.5646 157.317 53.4642 157.501C53.3637 157.686 53.2208 157.844 53.0472 157.962C52.8828 158.038 52.7333 158.143 52.6057 158.271C52.3408 158.629 52.694 159.101 52.8088 159.534C52.8583 159.853 52.8097 160.18 52.6693 160.471C52.529 160.762 52.3035 161.003 52.0229 161.163C51.4561 161.474 50.8387 161.682 50.1993 161.777C48.9161 162.073 47.6661 162.497 46.4682 163.044C46.0782 163.183 45.7396 163.437 45.4968 163.773C45.1745 164.32 45.3864 165.009 45.6072 165.605L47.3116 170.189C47.5765 170.908 47.8458 171.628 48.1947 172.321C48.6362 173.204 49.1616 174.061 49.6076 174.97C50.0536 175.88 50.345 176.67 50.6717 177.536C51.5239 179.872 53.2415 181.285 53.5329 183.753Z" fill="#EE8E9E"/>
<path d="M132.869 154.02H112.501V173.739H132.869V154.02Z" fill="url(#paint12_linear)"/>
<path d="M132.521 154.359H112.854V173.399H132.521V154.359Z" fill="#7CFCFF"/>
<path d="M129.112 152.858C128.748 153.129 128.486 153.512 128.365 153.949C128.338 154.039 128.339 154.135 128.37 154.224C128.401 154.313 128.46 154.39 128.538 154.443C128.635 154.475 128.74 154.475 128.838 154.443C129.327 154.357 129.784 154.142 130.163 153.821C130.012 153.901 129.879 154.009 129.77 154.139C129.716 154.205 129.682 154.285 129.673 154.369C129.663 154.454 129.679 154.54 129.717 154.616C129.771 154.681 129.838 154.735 129.914 154.774C129.99 154.813 130.073 154.836 130.158 154.841C130.788 154.955 131.436 154.925 132.052 154.753C131.765 154.86 131.499 155.016 131.266 155.216C131.151 155.318 131.059 155.444 130.997 155.585C130.935 155.726 130.905 155.879 130.909 156.033C130.909 156.091 130.922 156.148 130.946 156.201C130.971 156.253 131.006 156.3 131.05 156.338C131.114 156.378 131.187 156.404 131.262 156.413C131.846 156.515 132.444 156.515 133.028 156.413C133.179 156.407 133.326 156.363 133.455 156.286C133.585 156.209 133.693 156.101 133.77 155.971C133.8 155.825 133.8 155.674 133.771 155.528C133.741 155.381 133.682 155.242 133.598 155.119C133.285 154.445 133.133 153.707 133.156 152.964C133.175 152.814 133.154 152.662 133.094 152.523C132.997 152.388 132.86 152.287 132.701 152.236C132.079 151.962 131.231 151.582 130.538 151.794C129.997 152.052 129.512 152.413 129.112 152.858Z" fill="#EE8E9E"/>
</g>
<defs>
<linearGradient id="paint0_linear" x1="186.27" y1="145.922" x2="186.27" y2="126.202" gradientUnits="userSpaceOnUse">
<stop stop-color="#808080" stop-opacity="0.25"/>
<stop offset="0.54" stop-color="#808080" stop-opacity="0.12"/>
<stop offset="1" stop-color="#808080" stop-opacity="0.1"/>
</linearGradient>
<linearGradient id="paint1_linear" x1="10746.5" y1="6447.9" x2="10746.5" y2="5567.23" gradientUnits="userSpaceOnUse">
<stop stop-color="#808080" stop-opacity="0.25"/>
<stop offset="0.54" stop-color="#808080" stop-opacity="0.12"/>
<stop offset="1" stop-color="#808080" stop-opacity="0.1"/>
</linearGradient>
<linearGradient id="paint2_linear" x1="14554.7" y1="9512.36" x2="14554.7" y2="8631.69" gradientUnits="userSpaceOnUse">
<stop stop-color="#808080" stop-opacity="0.25"/>
<stop offset="0.54" stop-color="#808080" stop-opacity="0.12"/>
<stop offset="1" stop-color="#808080" stop-opacity="0.1"/>
</linearGradient>
<linearGradient id="paint3_linear" x1="6100.25" y1="5038.45" x2="6100.25" y2="4157.78" gradientUnits="userSpaceOnUse">
<stop stop-color="#808080" stop-opacity="0.25"/>
<stop offset="0.54" stop-color="#808080" stop-opacity="0.12"/>
<stop offset="1" stop-color="#808080" stop-opacity="0.1"/>
</linearGradient>
<linearGradient id="paint4_linear" x1="8007.68" y1="6328.75" x2="8007.68" y2="5448.08" gradientUnits="userSpaceOnUse">
<stop stop-color="#808080" stop-opacity="0.25"/>
<stop offset="0.54" stop-color="#808080" stop-opacity="0.12"/>
<stop offset="1" stop-color="#808080" stop-opacity="0.1"/>
</linearGradient>
<linearGradient id="paint5_linear" x1="15677.6" y1="9505.91" x2="15677.6" y2="8625.24" gradientUnits="userSpaceOnUse">
<stop stop-color="#808080" stop-opacity="0.25"/>
<stop offset="0.54" stop-color="#808080" stop-opacity="0.12"/>
<stop offset="1" stop-color="#808080" stop-opacity="0.1"/>
</linearGradient>
<linearGradient id="paint6_linear" x1="17363.2" y1="5050.34" x2="17363.2" y2="4169.68" gradientUnits="userSpaceOnUse">
<stop stop-color="#808080" stop-opacity="0.25"/>
<stop offset="0.54" stop-color="#808080" stop-opacity="0.12"/>
<stop offset="1" stop-color="#808080" stop-opacity="0.1"/>
</linearGradient>
<linearGradient id="paint7_linear" x1="17259.2" y1="7913.18" x2="17259.2" y2="7032.52" gradientUnits="userSpaceOnUse">
<stop stop-color="#808080" stop-opacity="0.25"/>
<stop offset="0.54" stop-color="#808080" stop-opacity="0.12"/>
<stop offset="1" stop-color="#808080" stop-opacity="0.1"/>
</linearGradient>
<linearGradient id="paint8_linear" x1="17987.5" y1="8114.8" x2="17987.5" y2="7234.14" gradientUnits="userSpaceOnUse">
<stop stop-color="#808080" stop-opacity="0.25"/>
<stop offset="0.54" stop-color="#808080" stop-opacity="0.12"/>
<stop offset="1" stop-color="#808080" stop-opacity="0.1"/>
</linearGradient>
<linearGradient id="paint9_linear" x1="14916.6" y1="9191.6" x2="14916.6" y2="8310.93" gradientUnits="userSpaceOnUse">
<stop stop-color="#808080" stop-opacity="0.25"/>
<stop offset="0.54" stop-color="#808080" stop-opacity="0.12"/>
<stop offset="1" stop-color="#808080" stop-opacity="0.1"/>
</linearGradient>
<linearGradient id="paint10_linear" x1="15020.7" y1="6469.87" x2="15020.7" y2="5589.21" gradientUnits="userSpaceOnUse">
<stop stop-color="#808080" stop-opacity="0.25"/>
<stop offset="0.54" stop-color="#808080" stop-opacity="0.12"/>
<stop offset="1" stop-color="#808080" stop-opacity="0.1"/>
</linearGradient>
<linearGradient id="paint11_linear" x1="12056.4" y1="114381" x2="33938.7" y2="114381" gradientUnits="userSpaceOnUse">
<stop stop-color="#808080" stop-opacity="0.25"/>
<stop offset="0.54" stop-color="#808080" stop-opacity="0.12"/>
<stop offset="1" stop-color="#808080" stop-opacity="0.1"/>
</linearGradient>
<linearGradient id="paint12_linear" x1="5772.08" y1="7913.18" x2="5772.08" y2="7032.52" gradientUnits="userSpaceOnUse">
<stop stop-color="#808080" stop-opacity="0.25"/>
<stop offset="0.54" stop-color="#808080" stop-opacity="0.12"/>
<stop offset="1" stop-color="#808080" stop-opacity="0.1"/>
</linearGradient>
<clipPath id="clip0">
<rect width="500" height="338.722" fill="white"/>
</clipPath>
</defs>
</svg>
