<svg width="500" height="378" viewBox="0 0 500 378" fill="none" xmlns="http://www.w3.org/2000/svg">
<g clip-path="url(#clip0)">
<path d="M230.577 80.5347H107.233C106.627 80.534 106.047 80.2931 105.618 79.8649C105.19 79.4367 104.949 78.8561 104.949 78.2506V47.6543C104.949 47.0487 105.19 46.4681 105.618 46.0399C106.047 45.6117 106.627 45.3708 107.233 45.3701H230.577C231.182 45.3708 231.763 45.6117 232.191 46.0399C232.619 46.4681 232.86 47.0487 232.861 47.6543V78.2506C232.86 78.8561 232.619 79.4367 232.191 79.8649C231.763 80.2931 231.182 80.534 230.577 80.5347ZM107.233 46.2838C106.869 46.2842 106.521 46.4287 106.264 46.6856C106.007 46.9425 105.863 47.2909 105.862 47.6542V78.2506C105.863 78.6139 106.007 78.9623 106.264 79.2192C106.521 79.4761 106.869 79.6206 107.233 79.621H230.577C230.94 79.6206 231.288 79.4761 231.545 79.2192C231.802 78.9623 231.947 78.6139 231.947 78.2506V47.6543C231.947 47.2909 231.802 46.9425 231.545 46.6856C231.288 46.4287 230.94 46.2842 230.577 46.2838L107.233 46.2838Z" fill="#3F3D56"/>
<path d="M126.398 71.0824C131.537 71.0824 135.703 66.9167 135.703 61.778C135.703 56.6393 131.537 52.4736 126.398 52.4736C121.259 52.4736 117.094 56.6393 117.094 61.778C117.094 66.9167 121.259 71.0824 126.398 71.0824Z" fill="#6C63FF"/>
<path d="M147.887 55.5752C147.475 55.5752 147.081 55.7386 146.79 56.0294C146.499 56.3202 146.336 56.7146 146.336 57.1259C146.336 57.5372 146.499 57.9316 146.79 58.2225C147.081 58.5133 147.475 58.6767 147.887 58.6767H220.992C221.404 58.6767 221.798 58.5133 222.089 58.2225C222.38 57.9316 222.543 57.5372 222.543 57.1259C222.543 56.7146 222.38 56.3202 222.089 56.0294C221.798 55.7386 221.404 55.5752 220.992 55.5752H147.887Z" fill="#E6E6E6"/>
<path d="M147.887 64.8799C147.475 64.8799 147.081 65.0433 146.79 65.3341C146.499 65.6249 146.336 66.0193 146.336 66.4306C146.336 66.8419 146.499 67.2363 146.79 67.5271C147.081 67.818 147.475 67.9813 147.887 67.9813H179.344C179.548 67.9817 179.75 67.9419 179.939 67.8641C180.127 67.7863 180.298 67.6722 180.443 67.5281C180.587 67.3841 180.701 67.213 180.78 67.0247C180.858 66.8364 180.898 66.6345 180.898 66.4306C180.898 66.2267 180.858 66.0248 180.78 65.8365C180.701 65.6482 180.587 65.4771 180.443 65.3331C180.298 65.189 180.127 65.0749 179.939 64.9971C179.75 64.9193 179.548 64.8795 179.344 64.8799H147.887Z" fill="#E6E6E6"/>
<path d="M177.028 189.596H122.209C121.603 189.595 121.022 189.355 120.594 188.926C120.166 188.498 119.925 187.918 119.924 187.312V130.22C119.925 129.614 120.166 129.034 120.594 128.605C121.022 128.177 121.603 127.936 122.209 127.936H177.028C177.634 127.936 178.214 128.177 178.642 128.605C179.071 129.034 179.312 129.614 179.312 130.22V187.312C179.312 187.918 179.071 188.498 178.642 188.926C178.214 189.355 177.634 189.595 177.028 189.596ZM122.209 128.849C121.845 128.85 121.497 128.994 121.24 129.251C120.983 129.508 120.838 129.856 120.838 130.22V187.312C120.838 187.675 120.983 188.024 121.24 188.281C121.497 188.538 121.845 188.682 122.209 188.682H177.028C177.392 188.682 177.74 188.538 177.997 188.281C178.254 188.024 178.398 187.675 178.399 187.312V130.22C178.398 129.856 178.254 129.508 177.997 129.251C177.74 128.994 177.392 128.85 177.028 128.849H122.209Z" fill="#3F3D56"/>
<path d="M133.889 139.709C133.478 139.709 133.084 139.872 132.793 140.163C132.502 140.454 132.339 140.848 132.339 141.26C132.339 141.671 132.502 142.065 132.793 142.356C133.084 142.647 133.478 142.81 133.889 142.81H165.347C165.758 142.81 166.153 142.647 166.444 142.356C166.734 142.065 166.898 141.671 166.898 141.26C166.898 140.848 166.734 140.454 166.444 140.163C166.153 139.872 165.758 139.709 165.347 139.709H133.889Z" fill="#E6E6E6"/>
<path d="M133.89 148.846C133.686 148.845 133.484 148.885 133.295 148.963C133.107 149.041 132.936 149.155 132.791 149.299C132.647 149.443 132.532 149.614 132.454 149.802C132.376 149.991 132.336 150.193 132.336 150.396C132.336 150.6 132.376 150.802 132.454 150.991C132.532 151.179 132.647 151.35 132.791 151.494C132.936 151.638 133.107 151.752 133.295 151.83C133.484 151.908 133.686 151.948 133.89 151.947H165.347C165.759 151.947 166.153 151.784 166.444 151.493C166.735 151.202 166.898 150.808 166.898 150.396C166.898 149.985 166.735 149.591 166.444 149.3C166.153 149.009 165.759 148.846 165.347 148.846H133.89Z" fill="#E6E6E6"/>
<path d="M149.619 177.823C147.688 177.823 145.801 177.251 144.196 176.178C142.591 175.105 141.339 173.581 140.601 171.797C139.862 170.014 139.669 168.051 140.045 166.158C140.422 164.264 141.352 162.525 142.717 161.16C144.082 159.795 145.821 158.865 147.715 158.488C149.608 158.112 151.571 158.305 153.354 159.044C155.138 159.783 156.662 161.034 157.735 162.639C158.807 164.244 159.38 166.131 159.38 168.062C159.377 170.65 158.348 173.131 156.518 174.961C154.688 176.791 152.207 177.82 149.619 177.823Z" fill="#6C63FF"/>
<path d="M266.832 0H321.651C322.257 0.000711079 322.837 0.241589 323.266 0.669794C323.694 1.098 323.935 1.67857 323.935 2.28414V59.3765C323.935 59.9821 323.694 60.5626 323.266 60.9908C322.837 61.419 322.257 61.6599 321.651 61.6606H266.832C266.226 61.6599 265.646 61.419 265.217 60.9908C264.789 60.5626 264.548 59.9821 264.548 59.3765V2.28414C264.548 1.67857 264.789 1.098 265.217 0.669794C265.646 0.241589 266.226 0.000711079 266.832 0ZM321.651 60.747C322.015 60.7466 322.363 60.6021 322.62 60.3451C322.877 60.0882 323.021 59.7398 323.022 59.3765V2.28414C323.021 1.92079 322.877 1.57243 322.62 1.3155C322.363 1.05857 322.015 0.914052 321.651 0.913655H266.832C266.468 0.914052 266.12 1.05857 265.863 1.3155C265.606 1.57243 265.462 1.92079 265.461 2.28414V59.3765C265.462 59.7398 265.606 60.0882 265.863 60.3451C266.12 60.6021 266.468 60.7466 266.832 60.747H321.651Z" fill="#3F3D56"/>
<path d="M309.97 49.8876C310.382 49.8876 310.776 49.7242 311.067 49.4334C311.358 49.1426 311.521 48.7481 311.521 48.3369C311.521 47.9256 311.358 47.5311 311.067 47.2403C310.776 46.9495 310.382 46.7861 309.97 46.7861H278.513C278.101 46.7861 277.707 46.9495 277.416 47.2403C277.125 47.5311 276.962 47.9256 276.962 48.3369C276.962 48.7481 277.125 49.1426 277.416 49.4334C277.707 49.7242 278.101 49.8876 278.513 49.8876H309.97Z" fill="#E6E6E6"/>
<path d="M309.97 40.7509C310.382 40.7509 310.776 40.5875 311.067 40.2967C311.358 40.0059 311.521 39.6114 311.521 39.2001C311.521 38.7889 311.358 38.3944 311.067 38.1036C310.776 37.8128 310.382 37.6494 309.97 37.6494H278.513C278.101 37.6494 277.707 37.8128 277.416 38.1036C277.125 38.3944 276.962 38.7889 276.962 39.2001C276.962 39.6114 277.125 40.0059 277.416 40.2967C277.707 40.5875 278.101 40.7509 278.513 40.7509H309.97Z" fill="#E6E6E6"/>
<path d="M294.241 11.7734C296.172 11.7734 298.059 12.3459 299.664 13.4185C301.27 14.4911 302.521 16.0155 303.26 17.7991C303.998 19.5828 304.192 21.5454 303.815 23.4389C303.438 25.3323 302.509 27.0716 301.144 28.4367C299.779 29.8019 298.039 30.7315 296.146 31.1082C294.252 31.4848 292.29 31.2915 290.506 30.5527C288.722 29.8139 287.198 28.5628 286.125 26.9576C285.053 25.3524 284.48 23.4651 284.48 21.5346C284.483 18.9467 285.513 16.4656 287.343 14.6356C289.173 12.8057 291.654 11.7764 294.241 11.7734Z" fill="#6C63FF"/>
<path d="M105.653 118.115C115.354 110.602 126.687 105.479 138.736 103.16C150.881 100.846 163.404 101.489 175.248 105.036C181.201 106.809 186.922 109.287 192.286 112.419C197.753 115.614 202.692 119.548 207.444 123.713C212.259 127.932 216.914 132.339 221.94 136.311C236.288 147.78 254.101 154.046 272.469 154.086C273.987 154.089 275.503 154.047 277.018 153.961C277.84 153.916 277.845 152.632 277.018 152.677C258.295 153.708 239.805 148.121 224.785 136.894C219.576 132.999 214.82 128.545 209.965 124.23C205.257 120.046 200.424 115.976 195.083 112.614C182.02 104.384 166.822 100.183 151.387 100.535C135.951 100.887 120.961 105.776 108.286 114.593C107.081 115.431 105.904 116.306 104.746 117.208C104.094 117.715 105.009 118.617 105.653 118.115V118.115Z" fill="#3F3D56"/>
<path d="M104.972 124.32C108.656 124.32 111.643 121.334 111.643 117.649C111.643 113.965 108.656 110.979 104.972 110.979C101.287 110.979 98.3008 113.965 98.3008 117.649C98.3008 121.334 101.287 124.32 104.972 124.32Z" fill="#3F3D56"/>
<path d="M353.142 212.891C356.826 212.891 359.812 209.904 359.812 206.22C359.812 202.535 356.826 199.549 353.142 199.549C349.457 199.549 346.471 202.535 346.471 206.22C346.471 209.904 349.457 212.891 353.142 212.891Z" fill="#3F3D56"/>
<path d="M388.089 168.219H279.24C278.635 168.219 278.054 167.978 277.626 167.55C277.198 167.121 276.957 166.541 276.956 165.935V109.3C276.957 108.694 277.198 108.114 277.626 107.685C278.054 107.257 278.635 107.016 279.24 107.016H388.089C388.694 107.016 389.275 107.257 389.703 107.685C390.131 108.114 390.372 108.694 390.373 109.3V165.935C390.372 166.541 390.131 167.121 389.703 167.55C389.275 167.978 388.694 168.219 388.089 168.219ZM279.24 107.929C278.877 107.93 278.529 108.074 278.272 108.331C278.015 108.588 277.87 108.936 277.87 109.3V165.935C277.87 166.299 278.015 166.647 278.272 166.904C278.529 167.161 278.877 167.305 279.24 167.306H388.089C388.452 167.305 388.8 167.161 389.057 166.904C389.314 166.647 389.459 166.299 389.459 165.935V109.3C389.459 108.936 389.314 108.588 389.057 108.331C388.8 108.074 388.452 107.93 388.089 107.929H279.24Z" fill="#3F3D56"/>
<path d="M297.492 136.383C302.63 136.383 306.796 132.217 306.796 127.079C306.796 121.94 302.63 117.774 297.492 117.774C292.353 117.774 288.187 121.94 288.187 127.079C288.187 132.217 292.353 136.383 297.492 136.383Z" fill="#6C63FF"/>
<path d="M318.98 120.876C318.777 120.876 318.575 120.915 318.386 120.993C318.198 121.071 318.026 121.185 317.882 121.329C317.738 121.473 317.623 121.644 317.545 121.833C317.467 122.021 317.427 122.223 317.427 122.427C317.427 122.631 317.467 122.832 317.545 123.021C317.623 123.209 317.738 123.38 317.882 123.524C318.026 123.668 318.198 123.782 318.386 123.86C318.575 123.938 318.777 123.978 318.98 123.977H377.591C378.002 123.977 378.397 123.814 378.687 123.523C378.978 123.232 379.142 122.838 379.142 122.427C379.142 122.015 378.978 121.621 378.687 121.33C378.397 121.039 378.002 120.876 377.591 120.876H318.98Z" fill="#E6E6E6"/>
<path d="M318.98 130.18C318.777 130.179 318.575 130.219 318.386 130.297C318.198 130.375 318.026 130.489 317.882 130.633C317.738 130.777 317.623 130.948 317.545 131.136C317.467 131.325 317.427 131.527 317.427 131.73C317.427 131.934 317.467 132.136 317.545 132.325C317.623 132.513 317.738 132.684 317.882 132.828C318.026 132.972 318.198 133.086 318.386 133.164C318.575 133.242 318.777 133.282 318.98 133.281H350.438C350.849 133.281 351.244 133.118 351.535 132.827C351.825 132.536 351.989 132.142 351.989 131.73C351.989 131.319 351.825 130.925 351.535 130.634C351.244 130.343 350.849 130.18 350.438 130.18H318.98Z" fill="#E6E6E6"/>
<path d="M290.355 145.055C289.175 145.055 288.216 145.75 288.216 146.605C288.216 147.46 289.175 148.156 290.355 148.156H376.723C377.903 148.156 378.863 147.46 378.863 146.605C378.863 145.75 377.903 145.055 376.723 145.055H290.355Z" fill="#E6E6E6"/>
<path d="M290.355 154.359C289.175 154.359 288.216 155.055 288.216 155.91C288.216 156.765 289.175 157.461 290.355 157.461H376.723C377.903 157.461 378.863 156.765 378.863 155.91C378.863 155.055 377.903 154.359 376.723 154.359H290.355Z" fill="#E6E6E6"/>
<path d="M270.491 212.431C276.631 209.767 283.487 212.089 289.275 214.544C292.256 215.809 295.205 217.159 298.29 218.157C300.886 218.995 303.543 219.625 306.239 220.041C311.647 220.869 317.148 220.903 322.566 220.141C328.012 219.381 333.32 217.838 338.324 215.559C343.3 213.304 347.899 210.296 351.961 206.643C352.478 206.176 352.984 205.699 353.481 205.211C354.072 204.631 353.164 203.724 352.573 204.303C348.662 208.116 344.172 211.285 339.27 213.694C334.387 216.095 329.18 217.768 323.813 218.66C318.428 219.568 312.938 219.662 307.526 218.941C304.825 218.576 302.159 217.996 299.551 217.207C296.555 216.233 293.617 215.092 290.749 213.789C284.907 211.28 278.416 208.823 271.996 210.553C271.261 210.757 270.541 211.014 269.843 211.322C269.087 211.65 269.74 212.756 270.491 212.431V212.431Z" fill="#3F3D56"/>
<path d="M268.118 228.174H216.692L228.795 207.212C229.011 206.836 229.323 206.524 229.699 206.307C230.075 206.09 230.501 205.976 230.935 205.976C231.369 205.976 231.795 206.09 232.17 206.307C232.546 206.524 232.858 206.836 233.075 207.212L238.245 216.166L247.036 200.941C247.307 200.47 247.698 200.08 248.168 199.808C248.638 199.537 249.172 199.394 249.715 199.394C250.258 199.394 250.792 199.537 251.262 199.808C251.733 200.08 252.123 200.47 252.395 200.941L268.118 228.174Z" fill="#6C63FF"/>
<path d="M268.167 228.168H213.347C212.742 228.168 212.161 227.927 211.733 227.499C211.305 227.071 211.064 226.49 211.063 225.884V195.288C211.064 194.682 211.305 194.102 211.733 193.674C212.161 193.246 212.742 193.005 213.347 193.004H268.167C268.772 193.005 269.353 193.246 269.781 193.674C270.209 194.102 270.45 194.682 270.451 195.288V225.884C270.45 226.49 270.209 227.071 269.781 227.499C269.353 227.927 268.772 228.168 268.167 228.168ZM213.347 193.918C212.984 193.918 212.635 194.062 212.378 194.319C212.122 194.576 211.977 194.925 211.977 195.288V225.884C211.977 226.248 212.122 226.596 212.378 226.853C212.635 227.11 212.984 227.254 213.347 227.255H268.167C268.53 227.254 268.878 227.11 269.135 226.853C269.392 226.596 269.537 226.248 269.537 225.884V195.288C269.537 194.925 269.392 194.576 269.135 194.319C268.878 194.062 268.53 193.918 268.167 193.918H213.347Z" fill="#3F3D56"/>
<path d="M375.688 201.241L365.916 206.203C362.429 207.974 359.063 207.671 357.774 203.978C357.467 203.099 357.354 202.165 357.442 201.238C357.53 200.311 357.817 199.415 358.284 198.609C358.751 197.804 359.386 197.109 360.146 196.572C360.906 196.035 361.774 195.668 362.689 195.497L371.975 193.764L411.749 180.568L435.843 163.483L444.675 177.555L416.836 192.577L375.688 201.241Z" fill="#FFB8B8"/>
<path d="M421.302 365.942L413.825 364.696L414.656 350.574H422.548L421.302 365.942Z" fill="#FFB8B8"/>
<path d="M493.862 352.149L486.626 354.406L481.004 341.426L488.048 337.869L493.862 352.149Z" fill="#FFB8B8"/>
<path d="M489.832 339.776L480.695 343.514L437.085 286.197L423.378 353.482L414.241 351.82C408.379 293.812 403.6 234.644 409.465 206.66L443.315 205.206L458.682 254.216L466.158 287.443L489.832 339.776Z" fill="#2F2E41"/>
<path d="M420.89 377.362C419.523 377.655 418.099 377.503 416.824 376.93L412.383 374.931C408.659 374.74 406.123 375.482 404.05 372.776C403.465 372.003 403.097 371.087 402.986 370.124C402.874 369.16 403.023 368.185 403.415 367.298C403.805 366.408 404.424 365.638 405.209 365.067C405.994 364.496 406.917 364.144 407.884 364.047L413.983 360.203L414.304 363.085C417.092 364.664 420.402 363.982 423.909 362.444L425.823 369.145C426.07 370.009 426.137 370.915 426.02 371.806C425.902 372.697 425.603 373.554 425.14 374.324C424.678 375.095 424.062 375.762 423.331 376.284C422.6 376.807 421.769 377.174 420.89 377.362Z" fill="#2F2E41"/>
<path d="M496.822 363.617C495.624 364.338 494.227 364.657 492.835 364.528L487.986 364.08C484.402 365.109 482.244 366.634 479.405 364.748C478.6 364.206 477.956 363.459 477.537 362.585C477.119 361.71 476.942 360.739 477.026 359.773C477.105 358.805 477.441 357.876 477.998 357.08C478.555 356.285 479.314 355.652 480.196 355.247L484.717 349.631L485.956 352.252C489.106 352.841 492.015 351.12 494.833 348.527L498.82 354.243C499.334 354.98 499.691 355.815 499.869 356.696C500.047 357.577 500.042 358.485 499.855 359.364C499.668 360.242 499.302 361.073 498.78 361.805C498.258 362.537 497.592 363.153 496.822 363.617Z" fill="#2F2E41"/>
<path d="M430.854 146.228C439.112 146.228 445.807 139.533 445.807 131.275C445.807 123.018 439.112 116.323 430.854 116.323C422.597 116.323 415.902 123.018 415.902 131.275C415.902 139.533 422.597 146.228 430.854 146.228Z" fill="#FFB8B8"/>
<path d="M449.129 162.842L429.608 158.688L427.116 142.49L440.822 139.583L449.129 162.842Z" fill="#FFB8B8"/>
<path d="M443.73 207.283H408.841L416.705 187.539C416.134 180.745 419.013 175.749 423.134 171.399L428.362 158.273C436.81 152.713 443.178 153.128 449.96 160.349C458.001 171.734 452.435 188.847 443.73 207.283Z" fill="#6C63FF"/>
<path d="M427.947 249.232L426.955 260.146C426.601 264.041 424.555 266.731 420.742 265.86C419.834 265.652 418.983 265.251 418.245 264.684C417.506 264.117 416.9 263.397 416.466 262.574C416.032 261.75 415.781 260.843 415.73 259.913C415.679 258.984 415.83 258.054 416.172 257.189L419.64 248.401L429.608 207.698L427.947 178.209H444.561L442.484 209.775L427.947 249.232Z" fill="#FFB8B8"/>
<path d="M445.807 179.04H426.701L428.041 166.577C428.129 164.421 429.019 162.376 430.538 160.844C432.056 159.311 434.093 158.402 436.247 158.294C437.389 158.237 438.531 158.407 439.607 158.794C440.682 159.181 441.671 159.778 442.514 160.549C443.358 161.321 444.04 162.252 444.521 163.289C445.003 164.326 445.274 165.448 445.318 166.59L445.807 179.04Z" fill="#6C63FF"/>
<path d="M449.36 115.901C452.464 115.901 454.98 113.385 454.98 110.281C454.98 107.177 452.464 104.661 449.36 104.661C446.256 104.661 443.74 107.177 443.74 110.281C443.74 113.385 446.256 115.901 449.36 115.901Z" fill="#2F2E41"/>
<path d="M443.569 108.906C443.661 107.48 444.294 106.143 445.337 105.167C446.381 104.191 447.758 103.65 449.186 103.653C449.07 103.638 448.955 103.621 448.837 103.613C447.35 103.518 445.886 104.018 444.768 105.002C443.649 105.986 442.967 107.374 442.871 108.861C442.776 110.348 443.274 111.812 444.258 112.931C445.241 114.051 446.629 114.734 448.116 114.83C448.234 114.838 448.351 114.835 448.468 114.835C447.05 114.655 445.754 113.942 444.844 112.841C443.934 111.739 443.478 110.332 443.569 108.906Z" fill="#2F2E41"/>
<path d="M443.537 111.306C438.525 107.148 424.148 112.433 423.221 115.228C416.443 116.152 411.311 120.106 411.311 127.138V127.138C415.341 128.789 419.924 128.585 424.878 127.138C432.775 133.574 433.317 141.664 428.514 150.957L434.423 151.075L441.747 140.371L442.097 151.229L455.642 150.957V135.397C455.685 130.223 454.495 125.114 452.168 120.492C450.057 116.392 446.782 113.998 443.537 111.306Z" fill="#2F2E41"/>
<path d="M430.925 138.797C432.409 138.797 433.612 137.112 433.612 135.034C433.612 132.956 432.409 131.271 430.925 131.271C429.44 131.271 428.237 132.956 428.237 135.034C428.237 137.112 429.44 138.797 430.925 138.797Z" fill="#FFB8B8"/>
<path d="M92.7678 139.809C92.7678 139.809 94.3856 111.807 102.784 118.17C111.183 124.533 99.1165 142.406 99.1165 142.406L92.7678 139.809Z" fill="#FFB9B9"/>
<path d="M61.5207 222.87C61.5207 222.87 80.1772 243.815 69.7392 245.254C59.3012 246.694 55.1952 225.523 55.1952 225.523L61.5207 222.87Z" fill="#FFB9B9"/>
<path d="M37.1755 123.729C39.5171 124.345 41.6244 125.64 43.2328 127.449C44.8412 129.259 45.8791 131.504 46.2159 133.902L52.1504 176.141L60.4697 209.834C60.4697 209.834 64.6294 213.578 62.9655 215.658C61.3016 217.738 65.0453 226.473 65.0453 226.473L54.6461 229.801C54.6461 229.801 53.3982 221.066 51.3184 220.65C49.4906 220.284 29.0294 165.625 24.0974 152.383C23.4174 150.557 23.0326 149.519 23.0326 149.519C23.0326 149.519 23.8645 121.649 37.1755 123.729Z" fill="#575A89"/>
<path d="M39.075 344.002L45.4625 355.321C50.4089 365.882 46.0133 367.8 33.8852 362.566L31.1206 349.2L39.075 344.002Z" fill="#FFB9B9"/>
<path d="M42.2975 359.046C42.2975 359.046 45.3297 354.11 46.4265 354.936C47.5232 355.762 52.0467 359.343 52.0467 359.343L57.9389 364.987C57.9389 364.987 77.8459 367.091 65.1965 374.066C52.5472 381.041 45.5567 375.258 45.5567 375.258C45.5567 375.258 27.8401 376.179 28.1259 371.236C28.4116 366.293 34.1254 358.473 34.1254 358.473C34.1254 358.473 41.3267 363.301 42.2975 359.046Z" fill="#2F2E41"/>
<path d="M10.7303 216.053L16.7186 288.51C16.7186 288.51 16.9182 331.825 23.3057 340.209C29.6932 348.593 29.8928 352.784 29.8928 352.784L43.0669 345.998C43.0669 345.998 36.2802 334.689 37.6775 332.958C38.5388 331.86 39.1517 330.588 39.474 329.231L35.881 284.518L42.6677 206.671L10.7303 216.053Z" fill="#2F2E41"/>
<path d="M27.0978 344.002L21.5088 358.773L8.83362 353.474L15.5206 342.405L27.0978 344.002Z" fill="#FFB9B9"/>
<path d="M17.7741 353.798C17.7741 353.798 22.528 350.827 23.1222 352.016C23.7164 353.204 26.0933 358.255 26.0933 358.255L28.7674 365.683C28.7674 365.683 45.1087 376.082 31.1443 376.676C17.1799 377.27 13.6145 369.248 13.6145 369.248C13.6145 369.248 -2.13258 362.415 0.244353 358.255C2.62129 354.095 10.9405 349.781 10.9405 349.781C10.9405 349.781 15.1001 357.067 17.7741 353.798Z" fill="#2F2E41"/>
<path d="M61.4309 216.253L64.6247 282.922C64.6247 282.922 35.4818 343.204 32.2881 344.801C31.3364 345.292 30.4928 345.969 29.8072 346.792C29.1215 347.615 28.6076 348.567 28.2959 349.591L10.7303 345.2L18.7147 332.425L36.2803 289.709C36.2803 289.709 39.0748 288.511 39.8732 284.519C40.6717 280.527 42.2685 280.527 38.2763 279.728C34.2842 278.93 34.2842 274.938 34.2842 274.938L21.11 214.257L61.4309 216.253Z" fill="#2F2E41"/>
<path d="M62.8215 98.2469C64.2342 89.5415 58.3223 81.3392 49.6169 79.9265C40.9116 78.5138 32.7092 84.4257 31.2965 93.1311C29.8839 101.836 35.7958 110.039 44.5011 111.451C53.2065 112.864 61.4088 106.952 62.8215 98.2469Z" fill="#FFB9B9"/>
<path d="M32.8868 96.6865C32.8868 96.6865 31.6892 117.047 30.0923 119.043C28.4955 121.039 46.8594 120.64 46.8594 120.64C46.8594 120.64 45.6618 103.473 46.8594 101.876C48.0571 100.279 32.8868 96.6865 32.8868 96.6865Z" fill="#FFB9B9"/>
<path d="M62.6274 220.645C62.6274 220.645 17.5157 216.653 9.13428 220.645C9.13428 220.645 12.2197 209.198 11.4225 208.003C10.8427 207.128 12.4423 174.523 11.9402 155.716C11.6554 145.103 9.20675 134.739 16.325 126.859C18.7478 124.183 21.4502 121.936 24.3027 120.839C24.3027 120.839 23.5054 113.255 27.4968 112.856C27.4968 112.856 42.6704 111.256 48.2563 116.05C50.0423 117.572 51.1657 122.211 51.2848 126.207C48.5203 139.802 49.4987 154.887 52.0354 170.537C52.1907 171.531 52.3616 172.53 52.5324 173.529C55.2244 189.05 59.2934 205.052 62.6274 220.645Z" fill="#575A89"/>
<path d="M38.717 100.394C40.0675 100.314 41.3861 100.77 42.7272 100.948C47.5253 101.585 52.5168 98.1036 53.5762 93.3808C53.6611 92.7519 53.8486 92.1411 54.1311 91.5728C54.8696 90.3672 56.5513 90.1373 57.9377 90.4146C59.3241 90.6918 60.6382 91.3406 62.0501 91.4147C64.2301 91.5291 66.323 90.187 67.4848 88.3389C68.5827 86.4323 69.0496 84.2273 68.8187 82.0393L67.7736 83.1361C67.349 82.2377 67.185 81.2382 67.3004 80.2512C66.7466 80.1037 66.1642 80.1009 65.609 80.2429C65.0538 80.385 64.5443 80.6672 64.1294 81.0626C63.2079 81.1606 63.9034 79.3533 63.2188 78.7288C62.8858 78.5242 62.489 78.4499 62.1046 78.5203C60.1442 78.5392 58.5584 77.0398 57.0135 75.8327C54.3369 73.746 51.2069 72.3182 47.8764 71.6649C45.6627 71.2331 43.3088 71.1638 41.2094 71.9881C39.5147 72.7488 37.9853 73.8338 36.7071 75.1818C33.4204 78.3422 30.51 82.0556 29.1426 86.4054C28.031 89.9683 27.9995 93.7806 29.0521 97.3614C29.6031 99.221 31.2636 105.59 33.6945 105.738C36.7489 105.924 34.9151 100.621 38.717 100.394Z" fill="#2F2E41"/>
<path d="M45.3268 125.689L51.0478 126.302C51.0478 126.302 56.6639 137.198 56.256 139.471C55.8482 141.743 54.96 140.363 57.4877 144C60.0154 147.636 67.188 157.034 68.0762 158.414C68.9644 159.793 93.1784 141.319 91.673 135.783C91.673 135.783 99.3205 141.27 102.597 142C102.597 142 77.6424 174.727 74.1649 178.916C70.6874 183.104 67.8886 182.244 63.1096 179.76C58.3307 177.277 34.1538 152.507 34.1538 152.507L45.3268 125.689Z" fill="#575A89"/>
<path opacity="0.1" d="M52.5324 173.53L32.6478 153.645L37.6798 152.004L52.0354 170.537C52.1907 171.531 52.3616 172.53 52.5324 173.53Z" fill="black"/>
</g>
<defs>
<clipPath id="clip0">
<rect width="500" height="377.508" fill="white"/>
</clipPath>
</defs>
</svg>
