<svg width="250" height="190" viewBox="0 0 250 190" fill="none" xmlns="http://www.w3.org/2000/svg">
<g clip-path="url(#clip0)">
<path opacity="0.1" d="M235.046 102.868C226.257 114.928 229.158 132.143 234.238 145.857C235.94 150.448 237.873 155.304 236.99 160.299C235.913 166.405 230.848 170.98 225.584 173.472C215.987 178.014 204.65 177.289 196.065 171.566C188.657 166.627 183.442 158.42 175.89 153.717C163.251 145.848 146.842 149.364 132.775 155.371C122.824 159.621 111.922 165.094 102.224 161.17C95.3992 158.409 90.8038 151.38 88.386 143.866C87.2186 140.238 86.4014 136.3 84.0757 133.46C82.6928 131.772 80.8654 130.596 78.9864 129.613C61.8372 120.633 39.7783 126.245 23.1522 116.226C11.9274 109.46 4.94113 96.3289 2.03841 82.5247C-0.864312 68.7205 -0.145927 54.1486 1.01022 39.8258C1.83187 29.6472 3.1317 18.7704 9.25144 10.7716C15.7236 2.31488 26.5712 -1.04581 36.2717 0.278708C45.9721 1.60323 54.669 6.99111 62.2772 13.4229C71.7935 21.4464 80.5488 31.5194 92.3842 34.5658C100.446 36.6402 109.01 35.172 117.391 34.5232C131.399 33.4411 145.358 34.6871 159.232 36.0947C172.513 37.4416 185.886 38.9457 198.465 43.3616C207.366 46.4865 214.422 52.393 222.802 56.4294C228.264 59.0605 234.274 59.6711 239.415 63.07C245.759 67.2568 251.493 74.6741 249.632 83.5754C247.874 92.0366 239.716 96.4681 235.046 102.868Z" fill="#6C63FF"/>
<g opacity="0.5">
<path opacity="0.5" d="M191.941 157.874C191.941 157.874 192.682 135.928 204.555 123.527C209.539 118.323 212.812 111.714 213.679 104.561C214.084 101.167 214.177 97.7425 213.957 94.3311" stroke="#535461" stroke-width="2" stroke-miterlimit="10"/>
<path opacity="0.5" d="M221.395 86.4758C220.582 88.9272 213.789 94.5576 213.789 94.5576C213.789 94.5576 211.708 85.9796 212.521 83.5304C212.714 82.9477 213.02 82.4088 213.422 81.9444C213.823 81.48 214.312 81.0992 214.861 80.8239C215.41 80.5485 216.007 80.3839 216.619 80.3394C217.232 80.295 217.847 80.3716 218.43 80.5648C219.012 80.7581 219.551 81.0642 220.016 81.4657C220.48 81.8672 220.861 82.3563 221.136 82.905C221.411 83.4536 221.576 84.0512 221.62 84.6635C221.665 85.2758 221.588 85.8908 221.395 86.4735V86.4758Z" fill="#6C63FF"/>
<path opacity="0.5" d="M224.225 102.482C222.205 104.098 213.45 105.136 213.45 105.136C213.45 105.136 216.368 96.8046 218.389 95.1904C218.864 94.7768 219.418 94.4635 220.017 94.2694C220.616 94.0753 221.249 94.0043 221.876 94.0608C222.504 94.1173 223.113 94.3 223.668 94.598C224.223 94.8961 224.712 95.3032 225.106 95.7951C225.5 96.2869 225.79 96.8532 225.959 97.4601C226.129 98.0669 226.173 98.7017 226.091 99.3263C226.009 99.9509 225.801 100.552 225.481 101.095C225.16 101.637 224.733 102.109 224.225 102.482Z" fill="#6C63FF"/>
<path opacity="0.5" d="M216.216 125.57C213.661 125.947 205.572 122.427 205.572 122.427C205.572 122.427 212.294 116.707 214.848 116.33C215.456 116.24 216.075 116.271 216.67 116.42C217.266 116.569 217.826 116.835 218.319 117.201C218.812 117.567 219.228 118.026 219.543 118.553C219.858 119.08 220.067 119.663 220.157 120.271C220.246 120.878 220.216 121.497 220.066 122.092C219.917 122.688 219.651 123.248 219.285 123.741C218.92 124.234 218.46 124.65 217.933 124.965C217.407 125.28 216.823 125.489 216.216 125.579V125.57Z" fill="#6C63FF"/>
<path opacity="0.5" d="M206.219 141.674C203.765 142.478 195.196 140.368 195.196 140.368C195.196 140.368 200.855 133.595 203.309 132.791C204.487 132.404 205.771 132.501 206.877 133.06C207.984 133.62 208.823 134.596 209.21 135.774C209.597 136.952 209.5 138.235 208.941 139.342C208.381 140.448 207.405 141.287 206.227 141.674H206.219Z" fill="#6C63FF"/>
<path opacity="0.5" d="M203.974 102.52C205.166 104.81 212.776 109.293 212.776 109.293C212.776 109.293 213.468 100.495 212.276 98.2032C211.992 97.6587 211.605 97.1753 211.134 96.7807C210.664 96.386 210.121 96.0878 209.536 95.9031C208.95 95.7184 208.334 95.6509 207.723 95.7042C207.111 95.7576 206.516 95.9309 205.972 96.2142C205.427 96.4975 204.944 96.8853 204.549 97.3554C204.155 97.8255 203.856 98.3688 203.672 98.9542C203.487 99.5395 203.419 100.156 203.473 100.767C203.526 101.379 203.699 101.974 203.983 102.518L203.974 102.52Z" fill="#6C63FF"/>
<path opacity="0.5" d="M192.522 121.502C194.345 123.331 202.939 125.334 202.939 125.334C202.939 125.334 200.965 116.731 199.145 114.902C198.27 114.023 197.082 113.529 195.842 113.526C194.602 113.524 193.413 114.014 192.534 114.889C191.656 115.764 191.162 116.952 191.159 118.192C191.157 119.431 191.647 120.621 192.522 121.499V121.502Z" fill="#6C63FF"/>
<path opacity="0.5" d="M183.924 141.479C185.411 143.589 193.544 147.017 193.544 147.017C193.544 147.017 193.055 138.206 191.566 136.093C191.222 135.57 190.776 135.121 190.254 134.773C189.733 134.425 189.147 134.186 188.531 134.069C187.915 133.952 187.282 133.961 186.67 134.094C186.057 134.227 185.477 134.481 184.965 134.843C184.453 135.204 184.019 135.665 183.689 136.198C183.358 136.73 183.139 137.324 183.042 137.943C182.946 138.563 182.975 139.195 183.128 139.803C183.281 140.411 183.555 140.981 183.933 141.481L183.924 141.479Z" fill="#6C63FF"/>
<path opacity="0.5" d="M194.55 148.791C194.55 148.791 187.815 138.994 188.996 129.776C189.516 125.913 188.769 121.985 186.868 118.583C185.952 116.975 184.891 115.454 183.698 114.039" stroke="#535461" stroke-width="2" stroke-miterlimit="10"/>
<path opacity="0.5" d="M184.409 108.225C184.842 109.554 183.697 114.192 183.697 114.192C183.697 114.192 180.032 111.125 179.598 109.799C179.39 109.161 179.443 108.466 179.747 107.868C180.051 107.269 180.58 106.816 181.218 106.608C181.856 106.399 182.551 106.453 183.149 106.756C183.747 107.06 184.201 107.589 184.409 108.227V108.225Z" fill="#6C63FF"/>
<path opacity="0.5" d="M190.792 114.283C190.435 115.63 186.951 118.906 186.951 118.906C186.951 118.906 185.541 114.34 185.898 112.988C186.07 112.339 186.492 111.785 187.072 111.447C187.653 111.11 188.343 111.017 188.992 111.189C189.641 111.361 190.196 111.783 190.533 112.363C190.87 112.944 190.963 113.634 190.792 114.283Z" fill="#6C63FF"/>
<path opacity="0.5" d="M194.729 126.914C193.739 127.9 189.081 128.966 189.081 128.966C189.081 128.966 190.168 124.312 191.16 123.327C191.396 123.092 191.675 122.907 191.983 122.781C192.291 122.654 192.62 122.59 192.953 122.591C193.285 122.592 193.614 122.658 193.921 122.787C194.228 122.915 194.506 123.102 194.741 123.338C194.975 123.574 195.161 123.854 195.287 124.161C195.413 124.469 195.478 124.798 195.477 125.131C195.476 125.463 195.409 125.792 195.281 126.099C195.153 126.406 194.965 126.684 194.729 126.919V126.914Z" fill="#6C63FF"/>
<path opacity="0.5" d="M195.557 137.144C194.747 138.282 190.327 140.116 190.327 140.116C190.327 140.116 190.612 135.346 191.422 134.208C191.615 133.937 191.859 133.706 192.14 133.53C192.422 133.353 192.735 133.234 193.063 133.178C193.391 133.123 193.726 133.132 194.05 133.206C194.374 133.281 194.68 133.418 194.951 133.61C195.222 133.803 195.453 134.047 195.629 134.328C195.806 134.61 195.925 134.924 195.981 135.251C196.036 135.579 196.027 135.914 195.952 136.238C195.878 136.562 195.741 136.868 195.548 137.139L195.557 137.144Z" fill="#6C63FF"/>
<path opacity="0.5" d="M181.985 120.81C183.24 121.425 187.992 120.931 187.992 120.931C187.992 120.931 185.462 116.877 184.207 116.264C183.604 115.969 182.909 115.926 182.275 116.144C181.64 116.362 181.118 116.823 180.823 117.426C180.528 118.029 180.485 118.724 180.703 119.358C180.921 119.993 181.382 120.515 181.985 120.81Z" fill="#6C63FF"/>
<path opacity="0.5" d="M183.105 132.764C184.488 132.975 188.874 131.083 188.874 131.083C188.874 131.083 185.247 127.971 183.866 127.769C183.202 127.668 182.526 127.835 181.985 128.233C181.445 128.631 181.084 129.227 180.983 129.891C180.882 130.554 181.049 131.231 181.447 131.771C181.845 132.312 182.441 132.672 183.105 132.773V132.764Z" fill="#6C63FF"/>
<path opacity="0.5" d="M185.785 144.229C187.112 144.678 191.756 143.556 191.756 143.556C191.756 143.556 188.708 139.876 187.381 139.434C186.744 139.222 186.049 139.272 185.449 139.573C184.849 139.874 184.393 140.401 184.181 141.038C183.969 141.675 184.019 142.37 184.32 142.97C184.621 143.57 185.148 144.026 185.785 144.238V144.229Z" fill="#6C63FF"/>
<path opacity="0.5" d="M184.409 108.225C184.842 109.554 183.697 114.192 183.697 114.192C183.697 114.192 180.032 111.125 179.598 109.799C179.39 109.161 179.443 108.466 179.747 107.868C180.051 107.269 180.58 106.816 181.218 106.608C181.856 106.399 182.551 106.453 183.149 106.756C183.747 107.06 184.201 107.589 184.409 108.227V108.225Z" fill="white"/>
<path opacity="0.5" d="M190.792 114.283C190.435 115.63 186.951 118.906 186.951 118.906C186.951 118.906 185.541 114.34 185.898 112.988C186.07 112.339 186.492 111.785 187.072 111.447C187.653 111.11 188.343 111.017 188.992 111.189C189.641 111.361 190.196 111.783 190.533 112.363C190.87 112.944 190.963 113.634 190.792 114.283Z" fill="white"/>
<path opacity="0.5" d="M194.729 126.914C193.739 127.9 189.081 128.966 189.081 128.966C189.081 128.966 190.168 124.312 191.16 123.327C191.396 123.092 191.675 122.907 191.983 122.781C192.291 122.654 192.62 122.59 192.953 122.591C193.285 122.592 193.614 122.658 193.921 122.787C194.228 122.915 194.506 123.102 194.741 123.338C194.975 123.574 195.161 123.854 195.287 124.161C195.413 124.469 195.478 124.798 195.477 125.131C195.476 125.463 195.409 125.792 195.281 126.099C195.153 126.406 194.965 126.684 194.729 126.919V126.914Z" fill="white"/>
<path opacity="0.5" d="M195.557 137.144C194.747 138.282 190.327 140.116 190.327 140.116C190.327 140.116 190.612 135.346 191.422 134.208C191.615 133.937 191.859 133.706 192.14 133.53C192.422 133.353 192.735 133.234 193.063 133.178C193.391 133.123 193.726 133.132 194.05 133.206C194.374 133.281 194.68 133.418 194.951 133.61C195.222 133.803 195.453 134.047 195.629 134.328C195.806 134.61 195.925 134.924 195.981 135.251C196.036 135.579 196.027 135.914 195.952 136.238C195.878 136.562 195.741 136.868 195.548 137.139L195.557 137.144Z" fill="white"/>
<path opacity="0.5" d="M181.985 120.81C183.24 121.425 187.992 120.931 187.992 120.931C187.992 120.931 185.462 116.877 184.207 116.264C183.604 115.969 182.909 115.926 182.275 116.144C181.64 116.362 181.118 116.823 180.823 117.426C180.528 118.029 180.485 118.724 180.703 119.358C180.921 119.993 181.382 120.515 181.985 120.81Z" fill="white"/>
<path opacity="0.5" d="M183.105 132.764C184.488 132.975 188.874 131.083 188.874 131.083C188.874 131.083 185.247 127.971 183.866 127.769C183.202 127.668 182.526 127.835 181.985 128.233C181.445 128.631 181.084 129.227 180.983 129.891C180.882 130.554 181.049 131.231 181.447 131.771C181.845 132.312 182.441 132.672 183.105 132.773V132.764Z" fill="white"/>
<path opacity="0.5" d="M185.785 144.229C187.112 144.678 191.756 143.556 191.756 143.556C191.756 143.556 188.708 139.876 187.381 139.434C186.744 139.222 186.049 139.272 185.449 139.573C184.849 139.874 184.393 140.401 184.181 141.038C183.969 141.675 184.019 142.37 184.32 142.97C184.621 143.57 185.148 144.026 185.785 144.238V144.229Z" fill="white"/>
<path opacity="0.5" d="M182.088 175.355H201.244L206.035 146.142H177.299L182.088 175.355Z" fill="#474059"/>
<path opacity="0.1" d="M180.965 146.142L185.44 173.44H201.558L201.244 175.355H182.088L177.299 146.142H180.965Z" fill="black"/>
</g>
<path d="M185.72 8.82031H45.186V178.381H185.72V8.82031Z" fill="url(#paint0_linear)"/>
<path d="M183.924 10.9893H46.9819V176.218H183.924V10.9893Z" fill="white"/>
<path d="M155.413 29.6221H100.188V32.316H155.413V29.6221Z" fill="#C0BCCF"/>
<path d="M155.413 38.1533H100.188V40.8473H155.413V38.1533Z" fill="#C0BCCF"/>
<path d="M142.169 46.6836H113.433V49.3775H142.169V46.6836Z" fill="#6C63FF"/>
<path opacity="0.5" d="M155.413 83.7256H100.188V86.4195H155.413V83.7256Z" fill="#C0BCCF"/>
<path opacity="0.5" d="M155.413 92.2559H100.188V94.9498H155.413V92.2559Z" fill="#C0BCCF"/>
<path opacity="0.5" d="M142.169 100.787H113.433V103.481H142.169V100.787Z" fill="#6C63FF"/>
<path opacity="0.5" d="M155.413 137.829H100.188V140.523H155.413V137.829Z" fill="#C0BCCF"/>
<path opacity="0.5" d="M155.413 146.359H100.188V149.053H155.413V146.359Z" fill="#C0BCCF"/>
<path opacity="0.5" d="M142.169 154.891H113.433V157.585H142.169V154.891Z" fill="#6C63FF"/>
<g opacity="0.5">
<path opacity="0.5" d="M80.7438 98.7513L79.5854 98.2305C79.6031 98.0545 79.6106 97.8776 79.6078 97.7007C79.6159 97.5512 79.6159 97.4013 79.6078 97.2517C79.4934 96.0709 78.7413 95.0427 78.2092 93.9629C77.7221 92.9772 77.4128 91.9132 77.2956 90.8199C77.1541 89.473 77.2955 88.0766 76.8017 86.8105C76.3998 85.789 75.6051 84.9359 74.7543 84.1816C73.7992 83.2854 72.6833 82.5778 71.4654 82.0961C70.2217 81.6471 68.7917 81.5326 67.548 81.9905C66.4255 82.4036 65.5612 83.2275 64.7261 84.029C64.1196 84.5632 63.584 85.1728 63.1322 85.8429C62.6225 86.678 62.4048 87.6388 62.2342 88.5862C61.9661 90.103 61.7817 91.6334 61.6819 93.1704C61.5944 94.4523 61.4574 95.907 60.3619 96.6927C59.8276 97.0766 59.0755 97.2921 58.8308 97.8736C58.7615 98.0481 58.7338 98.2365 58.75 98.4236C58.7433 98.5793 58.7546 98.7352 58.7837 98.8883C58.7994 98.9781 58.8173 99.0656 58.8398 99.1554C58.5254 99.9369 58.2614 100.738 58.0496 101.553C57.8857 102.159 57.7353 102.754 57.6006 103.331H57.9643H58.1573L60.2496 103.38H60.2788L62.5238 103.432H62.535L64.6273 103.481H64.6789L65.2828 103.524H65.4804L73.8473 103.717H73.8922L74.4489 103.731H74.6443L76.319 103.769L78.7884 103.825H78.8064L80.6652 103.87H80.8628H81.2444L81.1456 101.921C81.5542 98.9377 80.7438 98.7513 80.7438 98.7513ZM71.3442 98.5134C71.3442 100.166 69.5752 102.188 69.5752 102.188L67.7949 99.7638L67.86 99.6695L69.5752 102.004C69.5752 102.004 71.3442 99.9838 71.3442 98.3293C71.3854 98.2452 71.4327 98.1641 71.4856 98.0868L71.526 98.2126C71.4581 98.3082 71.3973 98.4088 71.3442 98.5134ZM74.0651 104.997C74.0651 104.914 74.0651 104.828 74.0493 104.745C74.0336 104.662 74.0359 104.588 74.0247 104.507C74.0134 104.427 74.0044 104.348 73.9932 104.267C73.982 104.186 73.9663 104.108 73.9506 104.027C73.9349 103.946 73.9191 103.868 73.9012 103.787C73.9012 103.76 73.89 103.735 73.8832 103.706C73.8585 103.6 73.8316 103.495 73.8024 103.389C73.7732 103.284 73.7553 103.219 73.7283 103.136C73.7283 103.098 73.7059 103.059 73.6924 103.023C73.6789 102.988 73.6542 102.902 73.634 102.842L73.5936 102.725C73.5757 102.673 73.5577 102.619 73.5375 102.568C73.5038 102.473 73.4679 102.381 73.432 102.287C73.3961 102.193 73.3579 102.101 73.3197 102.009C73.2434 101.82 73.1603 101.634 73.0773 101.445C72.7518 100.718 72.3858 100.002 72.0491 99.2924C71.8685 98.9212 71.7081 98.5405 71.5687 98.1519L71.526 98.2081C71.458 98.3045 71.3972 98.4058 71.3442 98.5111C71.3442 100.163 69.5752 102.186 69.5752 102.186L67.7949 99.7616L66.2369 102.007C66.0124 102.119 65.7879 102.5 65.6128 103.044C65.5634 103.19 65.5163 103.351 65.4714 103.52C65.44 103.634 65.4108 103.744 65.3838 103.872C65.3681 103.933 65.3547 103.993 65.3412 104.056L65.3008 104.247V104.276C65.2738 104.406 65.2469 104.541 65.2222 104.678C65.1975 104.815 65.1683 104.972 65.1436 105.127C65.1257 105.224 65.11 105.321 65.0965 105.417C65.0651 105.603 65.0381 105.792 65.0112 105.98C64.9955 106.09 64.9797 106.205 64.9663 106.306L64.9124 106.723C65.0269 107.067 65.1548 107.397 65.2873 107.742C65.3715 107.924 65.421 108.12 65.4332 108.319C68.1949 109.056 71.1013 109.056 73.863 108.319C73.8621 108.313 73.8621 108.306 73.863 108.299C73.8216 108.111 73.8035 107.919 73.8091 107.727C73.8545 107.187 73.9294 106.651 74.0336 106.119C74.0668 105.857 74.0811 105.593 74.0763 105.329V105.235C74.0696 105.149 74.0673 105.073 74.0651 104.999V104.997ZM74.0651 104.997C74.0651 104.914 74.0651 104.828 74.0493 104.745C74.0336 104.662 74.0359 104.588 74.0247 104.507C74.0134 104.427 74.0044 104.348 73.9932 104.267C73.982 104.186 73.9663 104.108 73.9506 104.027C73.9349 103.946 73.9191 103.868 73.9012 103.787C73.9012 103.76 73.89 103.735 73.8832 103.706C73.8585 103.6 73.8316 103.495 73.8024 103.389C73.7732 103.284 73.7553 103.219 73.7283 103.136C73.7283 103.098 73.7059 103.059 73.6924 103.023C73.6789 102.988 73.6542 102.902 73.634 102.842L73.5936 102.725C73.5757 102.673 73.5577 102.619 73.5375 102.568C73.5038 102.473 73.4679 102.381 73.432 102.287C73.3961 102.193 73.3579 102.101 73.3197 102.009C73.2434 101.82 73.1603 101.634 73.0773 101.445C72.7518 100.718 72.3858 100.002 72.0491 99.2924C71.8685 98.9212 71.7081 98.5405 71.5687 98.1519L71.526 98.2081C71.458 98.3045 71.3972 98.4058 71.3442 98.5111C71.3442 100.163 69.5752 102.186 69.5752 102.186L67.7949 99.7616L66.2369 102.007C66.0124 102.119 65.7879 102.5 65.6128 103.044C65.5634 103.19 65.5163 103.351 65.4714 103.52C65.44 103.634 65.4108 103.744 65.3838 103.872C65.3681 103.933 65.3547 103.993 65.3412 104.056L65.3008 104.247V104.276C65.2738 104.406 65.2469 104.541 65.2222 104.678C65.1975 104.815 65.1683 104.972 65.1436 105.127C65.1257 105.224 65.11 105.321 65.0965 105.417C65.0651 105.603 65.0381 105.792 65.0112 105.98C64.9955 106.09 64.9797 106.205 64.9663 106.306L64.9124 106.723C65.0269 107.067 65.1548 107.397 65.2873 107.742C65.3715 107.924 65.421 108.12 65.4332 108.319C68.1949 109.056 71.1013 109.056 73.863 108.319C73.8621 108.313 73.8621 108.306 73.863 108.299C73.8216 108.111 73.8035 107.919 73.8091 107.727C73.8545 107.187 73.9294 106.651 74.0336 106.119C74.0668 105.857 74.0811 105.593 74.0763 105.329V105.235C74.0696 105.149 74.0673 105.073 74.0651 104.999V104.997ZM74.0651 104.997C74.0651 104.914 74.0651 104.828 74.0493 104.745C74.0336 104.662 74.0359 104.588 74.0247 104.507C74.0134 104.427 74.0044 104.348 73.9932 104.267C73.982 104.186 73.9663 104.108 73.9506 104.027C73.9349 103.946 73.9191 103.868 73.9012 103.787C73.9012 103.76 73.89 103.735 73.8832 103.706C73.8585 103.6 73.8316 103.495 73.8024 103.389C73.7732 103.284 73.7553 103.219 73.7283 103.136C73.7283 103.098 73.7059 103.059 73.6924 103.023C73.6789 102.988 73.6542 102.902 73.634 102.842L73.5936 102.725C73.5757 102.673 73.5577 102.619 73.5375 102.568C73.5038 102.473 73.4679 102.381 73.432 102.287C73.3961 102.193 73.3579 102.101 73.3197 102.009C73.2434 101.82 73.1603 101.634 73.0773 101.445C72.7518 100.718 72.3858 100.002 72.0491 99.2924C71.8685 98.9212 71.7081 98.5405 71.5687 98.1519L71.526 98.2081C71.458 98.3045 71.3972 98.4058 71.3442 98.5111C71.3442 100.163 69.5752 102.186 69.5752 102.186L67.7949 99.7616L66.2369 102.007C66.0124 102.119 65.7879 102.5 65.6128 103.044C65.5634 103.19 65.5163 103.351 65.4714 103.52C65.44 103.634 65.4108 103.744 65.3838 103.872C65.3681 103.933 65.3547 103.993 65.3412 104.056L65.3008 104.247V104.276C65.2738 104.406 65.2469 104.541 65.2222 104.678C65.1975 104.815 65.1683 104.972 65.1436 105.127C65.1257 105.224 65.11 105.321 65.0965 105.417C65.0651 105.603 65.0381 105.792 65.0112 105.98C64.9955 106.09 64.9797 106.205 64.9663 106.306L64.9124 106.723C65.0269 107.067 65.1548 107.397 65.2873 107.742C65.3715 107.924 65.421 108.12 65.4332 108.319C68.1949 109.056 71.1013 109.056 73.863 108.319C73.8621 108.313 73.8621 108.306 73.863 108.299C73.8216 108.111 73.8035 107.919 73.8091 107.727C73.8545 107.187 73.9294 106.651 74.0336 106.119C74.0668 105.857 74.0811 105.593 74.0763 105.329V105.235C74.0696 105.149 74.0673 105.073 74.0651 104.999V104.997ZM74.0651 104.997C74.0651 104.914 74.0651 104.828 74.0493 104.745C74.0336 104.662 74.0359 104.588 74.0247 104.507C74.0134 104.427 74.0044 104.348 73.9932 104.267C73.982 104.186 73.9663 104.108 73.9506 104.027C73.9349 103.946 73.9191 103.868 73.9012 103.787C73.9012 103.76 73.89 103.735 73.8832 103.706C73.8585 103.6 73.8316 103.495 73.8024 103.389C73.7732 103.284 73.7553 103.219 73.7283 103.136C73.7283 103.098 73.7059 103.059 73.6924 103.023C73.6789 102.988 73.6542 102.902 73.634 102.842L73.5936 102.725C73.5757 102.673 73.5577 102.619 73.5375 102.568C73.5038 102.473 73.4679 102.381 73.432 102.287C73.3961 102.193 73.3579 102.101 73.3197 102.009C73.2434 101.82 73.1603 101.634 73.0773 101.445C72.7518 100.718 72.3858 100.002 72.0491 99.2924C71.8685 98.9212 71.7081 98.5405 71.5687 98.1519L71.526 98.2081C71.458 98.3045 71.3972 98.4058 71.3442 98.5111C71.3442 100.163 69.5752 102.186 69.5752 102.186L67.7949 99.7616L66.2369 102.007C66.0124 102.119 65.7879 102.5 65.6128 103.044C65.5634 103.19 65.5163 103.351 65.4714 103.52C65.44 103.634 65.4108 103.744 65.3838 103.872C65.3681 103.933 65.3547 103.993 65.3412 104.056L65.3008 104.247V104.276C65.2738 104.406 65.2469 104.541 65.2222 104.678C65.1975 104.815 65.1683 104.972 65.1436 105.127C65.1257 105.224 65.11 105.321 65.0965 105.417C65.0651 105.603 65.0381 105.792 65.0112 105.98C64.9955 106.09 64.9797 106.205 64.9663 106.306L64.9124 106.723C65.0269 107.067 65.1548 107.397 65.2873 107.742C65.3715 107.924 65.421 108.12 65.4332 108.319C68.1949 109.056 71.1013 109.056 73.863 108.319C73.8621 108.313 73.8621 108.306 73.863 108.299C73.8216 108.111 73.8035 107.919 73.8091 107.727C73.8545 107.187 73.9294 106.651 74.0336 106.119C74.0668 105.857 74.0811 105.593 74.0763 105.329V105.235C74.0696 105.149 74.0673 105.073 74.0651 104.999V104.997Z" fill="url(#paint1_linear)"/>
<path opacity="0.5" d="M74.1461 89.3379H63.8193V96.2972H74.1461V89.3379Z" fill="#493545"/>
<path opacity="0.5" d="M75.8612 97.0141L71.5397 103.102L67.0228 102.71C67.0228 102.71 61.1298 103.1 65.0585 98.5855C66.9465 96.4147 67.5639 94.6052 67.6963 93.3144C67.84 91.918 67.4157 91.1233 67.4157 91.1233L72.3254 90.5352C72.1038 91.1967 72.0758 91.9078 72.2446 92.5848C72.8597 95.1351 75.8612 97.0141 75.8612 97.0141Z" fill="#C77485"/>
<path opacity="0.1" d="M72.2425 92.5777C71.6021 93.0626 70.8526 93.3829 70.0595 93.5105C69.2665 93.6381 68.4543 93.5691 67.6942 93.3095C67.8379 91.9132 67.4136 91.1185 67.4136 91.1185L72.3233 90.5303C72.1022 91.1912 72.0741 91.9014 72.2425 92.5777Z" fill="black"/>
<path opacity="0.5" d="M69.2813 93.377C71.9929 93.377 74.191 91.1789 74.191 88.4673C74.191 85.7558 71.9929 83.5576 69.2813 83.5576C66.5697 83.5576 64.3716 85.7558 64.3716 88.4673C64.3716 91.1789 66.5697 93.377 69.2813 93.377Z" fill="#C77485"/>
<path opacity="0.1" d="M75.6812 97.2651L75.5667 96.8161L75.468 96.421L75.322 95.8373L75.2951 95.7295L75.2727 95.6397C75.2727 95.6397 75.3894 95.2873 74.6194 95.4018L74.4757 95.4265C74.3545 95.4512 74.213 95.4848 74.0514 95.5297L73.9055 95.5746L73.7124 95.6353C73.1012 95.8343 72.5436 96.1706 72.0826 96.6185C71.8756 96.8165 71.6925 97.038 71.5371 97.2786C71.5213 97.301 71.5101 97.3212 71.4966 97.3392C71.4435 97.4226 71.3962 97.5096 71.3552 97.5996C71.3552 99.3686 69.5862 101.528 69.5862 101.528L67.8598 99.0341L67.8261 98.9847L67.4153 98.3876L67.2694 98.1945L67.22 98.1272L66.322 96.9216L66.0975 96.6208L66.0235 96.5198L65.9135 96.3738L65.6553 96.0304L64.6451 96.6208L63.2981 97.4065L62.5124 102.514V102.655L62.537 103.077L62.7009 105.852V105.89L62.4136 107.04L62.4562 107.062C63.1343 107.428 63.8398 107.74 64.5665 107.996L64.7573 108.063C64.9818 108.137 65.1928 108.205 65.4128 108.27C65.421 108.303 65.427 108.337 65.4308 108.371C65.4308 108.339 65.4308 108.306 65.4308 108.274C68.1856 109.062 71.1058 109.062 73.8606 108.274L73.9122 108.259C74.0402 108.223 74.1704 108.185 74.2961 108.142L74.5004 108.077C75.0544 107.892 75.5971 107.674 76.1257 107.426L76.3143 103.407L76.449 100.509V100.343L75.6812 97.2651Z" fill="black"/>
<path opacity="0.5" d="M74.0653 104.73C74.0653 104.64 74.0653 104.55 74.0496 104.46C74.0338 104.371 74.0361 104.292 74.0249 104.207C74.0136 104.121 74.0047 104.036 73.9934 103.951C73.9822 103.865 73.9665 103.78 73.9508 103.695C73.9351 103.61 73.9194 103.524 73.9014 103.439C73.9014 103.41 73.8902 103.383 73.8834 103.354C73.8587 103.241 73.8318 103.129 73.8026 103.015C73.7734 102.9 73.7555 102.833 73.7285 102.743C73.7285 102.703 73.7061 102.662 73.6926 102.624C73.6791 102.586 73.6545 102.494 73.6343 102.429L73.5938 102.303C73.5759 102.247 73.5579 102.191 73.5377 102.135C73.504 102.034 73.4681 101.935 73.4322 101.834C73.3963 101.733 73.3581 101.634 73.32 101.535C73.2436 101.333 73.1606 101.133 73.0775 100.934C72.752 100.157 72.3861 99.3913 72.0493 98.6325C71.8683 98.2347 71.708 97.8278 71.5689 97.4135L71.5262 97.4741C71.458 97.5774 71.3972 97.6854 71.3444 97.7974C71.3444 99.5642 69.5754 101.726 69.5754 101.726L67.7951 99.1331L66.2371 101.529C66.0126 101.647 65.7881 102.056 65.613 102.638C65.5637 102.795 65.5165 102.965 65.4716 103.147C65.4402 103.268 65.411 103.396 65.3841 103.524C65.3683 103.589 65.3549 103.654 65.3414 103.722L65.301 103.926V103.958C65.2741 104.097 65.2471 104.24 65.2224 104.386C65.1977 104.532 65.1685 104.701 65.1439 104.86C65.1259 104.963 65.1102 105.067 65.0967 105.17C65.0653 105.37 65.0383 105.572 65.0114 105.771C64.9957 105.888 64.98 105.996 64.9665 106.119L64.9126 106.568C65.0271 106.937 65.1551 107.3 65.2875 107.657C65.3721 107.853 65.4215 108.062 65.4335 108.275C68.1882 109.062 71.1084 109.062 73.8632 108.275C73.8622 108.267 73.8622 108.26 73.8632 108.252C73.8218 108.051 73.8037 107.845 73.8094 107.639C73.8547 107.063 73.9296 106.49 74.0339 105.922C74.067 105.642 74.0812 105.36 74.0765 105.078V104.977C74.0698 104.891 74.0675 104.811 74.0653 104.73ZM74.0653 104.73C74.0653 104.64 74.0653 104.55 74.0496 104.46C74.0338 104.371 74.0361 104.292 74.0249 104.207C74.0136 104.121 74.0047 104.036 73.9934 103.951C73.9822 103.865 73.9665 103.78 73.9508 103.695C73.9351 103.61 73.9194 103.524 73.9014 103.439C73.9014 103.41 73.8902 103.383 73.8834 103.354C73.8587 103.241 73.8318 103.129 73.8026 103.015C73.7734 102.9 73.7555 102.833 73.7285 102.743C73.7285 102.703 73.7061 102.662 73.6926 102.624C73.6791 102.586 73.6545 102.494 73.6343 102.429L73.5938 102.303C73.5759 102.247 73.5579 102.191 73.5377 102.135C73.504 102.034 73.4681 101.935 73.4322 101.834C73.3963 101.733 73.3581 101.634 73.32 101.535C73.2436 101.333 73.1606 101.133 73.0775 100.934C72.752 100.157 72.3861 99.3913 72.0493 98.6325C71.8683 98.2347 71.708 97.8278 71.5689 97.4135L71.5262 97.4741C71.458 97.5774 71.3972 97.6854 71.3444 97.7974C71.3444 99.5642 69.5754 101.726 69.5754 101.726L67.7951 99.1331L66.2371 101.529C66.0126 101.647 65.7881 102.056 65.613 102.638C65.5637 102.795 65.5165 102.965 65.4716 103.147C65.4402 103.268 65.411 103.396 65.3841 103.524C65.3683 103.589 65.3549 103.654 65.3414 103.722L65.301 103.926V103.958C65.2741 104.097 65.2471 104.24 65.2224 104.386C65.1977 104.532 65.1685 104.701 65.1439 104.86C65.1259 104.963 65.1102 105.067 65.0967 105.17C65.0653 105.37 65.0383 105.572 65.0114 105.771C64.9957 105.888 64.98 105.996 64.9665 106.119L64.9126 106.568C65.0271 106.937 65.1551 107.3 65.2875 107.657C65.3721 107.853 65.4215 108.062 65.4335 108.275C68.1882 109.062 71.1084 109.062 73.8632 108.275C73.8622 108.267 73.8622 108.26 73.8632 108.252C73.8218 108.051 73.8037 107.845 73.8094 107.639C73.8547 107.063 73.9296 106.49 74.0339 105.922C74.067 105.642 74.0812 105.36 74.0765 105.078V104.977C74.0698 104.891 74.0675 104.811 74.0653 104.73ZM74.0653 104.73C74.0653 104.64 74.0653 104.55 74.0496 104.46C74.0338 104.371 74.0361 104.292 74.0249 104.207C74.0136 104.121 74.0047 104.036 73.9934 103.951C73.9822 103.865 73.9665 103.78 73.9508 103.695C73.9351 103.61 73.9194 103.524 73.9014 103.439C73.9014 103.41 73.8902 103.383 73.8834 103.354C73.8587 103.241 73.8318 103.129 73.8026 103.015C73.7734 102.9 73.7555 102.833 73.7285 102.743C73.7285 102.703 73.7061 102.662 73.6926 102.624C73.6791 102.586 73.6545 102.494 73.6343 102.429L73.5938 102.303C73.5759 102.247 73.5579 102.191 73.5377 102.135C73.504 102.034 73.4681 101.935 73.4322 101.834C73.3963 101.733 73.3581 101.634 73.32 101.535C73.2436 101.333 73.1606 101.133 73.0775 100.934C72.752 100.157 72.3861 99.3913 72.0493 98.6325C71.8683 98.2347 71.708 97.8278 71.5689 97.4135L71.5262 97.4741C71.458 97.5774 71.3972 97.6854 71.3444 97.7974C71.3444 99.5642 69.5754 101.726 69.5754 101.726L67.7951 99.1331L66.2371 101.529C66.0126 101.647 65.7881 102.056 65.613 102.638C65.5637 102.795 65.5165 102.965 65.4716 103.147C65.4402 103.268 65.411 103.396 65.3841 103.524C65.3683 103.589 65.3549 103.654 65.3414 103.722L65.301 103.926V103.958C65.2741 104.097 65.2471 104.24 65.2224 104.386C65.1977 104.532 65.1685 104.701 65.1439 104.86C65.1259 104.963 65.1102 105.067 65.0967 105.17C65.0653 105.37 65.0383 105.572 65.0114 105.771C64.9957 105.888 64.98 105.996 64.9665 106.119L64.9126 106.568C65.0271 106.937 65.1551 107.3 65.2875 107.657C65.3721 107.853 65.4215 108.062 65.4335 108.275C68.1882 109.062 71.1084 109.062 73.8632 108.275C73.8622 108.267 73.8622 108.26 73.8632 108.252C73.8218 108.051 73.8037 107.845 73.8094 107.639C73.8547 107.063 73.9296 106.49 74.0339 105.922C74.067 105.642 74.0812 105.36 74.0765 105.078V104.977C74.0698 104.891 74.0675 104.811 74.0653 104.73ZM76.4449 100.516L75.6435 97.317L75.5065 96.7692L75.4684 96.6188L75.2731 95.8376C75.2735 95.8308 75.2735 95.8241 75.2731 95.8173C75.2777 95.7829 75.2723 95.7478 75.2573 95.7163C75.2282 95.658 75.1541 95.5973 74.9812 95.5816C74.9155 95.577 74.8494 95.577 74.7837 95.5816C74.5886 95.6009 74.3956 95.637 74.2067 95.6894C74.1147 95.7141 74.0159 95.741 73.9104 95.7747L73.7173 95.8353H73.6994C73.1823 96.005 72.7023 96.2717 72.285 96.621C72.0094 96.8508 71.7676 97.1184 71.5666 97.4158L71.524 97.4764C71.4557 97.5796 71.395 97.6877 71.3422 97.7996C71.3422 99.5664 69.5731 101.728 69.5731 101.728L67.7929 99.1354L67.6919 98.9895L67.6739 98.9648L67.4157 98.5854L67.2204 98.325L67.1688 98.2576L66.2484 97.0296L65.9565 96.6323V96.6188L65.8555 96.4819L65.6624 96.2259L64.9889 96.6188L63.3052 97.5998L62.5285 102.653V102.707L62.5509 103.075L62.7171 105.888V106.048L62.4634 107.06C63.1414 107.426 63.847 107.738 64.5736 107.994L64.7645 108.061C64.9889 108.135 65.2 108.203 65.42 108.268C65.4281 108.301 65.4341 108.335 65.4379 108.369C65.4379 108.337 65.4379 108.304 65.4379 108.272C68.1927 109.06 71.1129 109.06 73.8677 108.272L73.9194 108.257C74.0473 108.221 74.1775 108.183 74.3032 108.14L74.5075 108.075C75.0615 107.89 75.6042 107.672 76.1329 107.424L76.3192 103.41L76.4539 100.543L76.4449 100.516ZM65.4043 108.268C65.4124 108.301 65.4184 108.335 65.4222 108.369C65.4222 108.337 65.4222 108.304 65.4222 108.272L65.4043 108.268ZM74.0653 104.73C74.0653 104.64 74.0653 104.55 74.0496 104.46C74.0338 104.371 74.0361 104.292 74.0249 104.207C74.0136 104.121 74.0047 104.036 73.9934 103.951C73.9822 103.865 73.9665 103.78 73.9508 103.695C73.9351 103.61 73.9194 103.524 73.9014 103.439C73.9014 103.41 73.8902 103.383 73.8834 103.354C73.8587 103.241 73.8318 103.129 73.8026 103.015C73.7734 102.9 73.7555 102.833 73.7285 102.743C73.7285 102.703 73.7061 102.662 73.6926 102.624C73.6791 102.586 73.6545 102.494 73.6343 102.429L73.5938 102.303C73.5759 102.247 73.5579 102.191 73.5377 102.135C73.504 102.034 73.4681 101.935 73.4322 101.834C73.3963 101.733 73.3581 101.634 73.32 101.535C73.2436 101.333 73.1606 101.133 73.0775 100.934C72.752 100.157 72.3861 99.3913 72.0493 98.6325C71.8683 98.2347 71.708 97.8278 71.5689 97.4135L71.5262 97.4741C71.458 97.5774 71.3972 97.6854 71.3444 97.7974C71.3444 99.5642 69.5754 101.726 69.5754 101.726L67.7951 99.1331L66.2371 101.529C66.0126 101.647 65.7881 102.056 65.613 102.638C65.5637 102.795 65.5165 102.965 65.4716 103.147C65.4402 103.268 65.411 103.396 65.3841 103.524C65.3683 103.589 65.3549 103.654 65.3414 103.722L65.301 103.926V103.958C65.2741 104.097 65.2471 104.24 65.2224 104.386C65.1977 104.532 65.1685 104.701 65.1439 104.86C65.1259 104.963 65.1102 105.067 65.0967 105.17C65.0653 105.37 65.0383 105.572 65.0114 105.771C64.9957 105.888 64.98 105.996 64.9665 106.119L64.9126 106.568C65.0271 106.937 65.1551 107.3 65.2875 107.657C65.3721 107.853 65.4215 108.062 65.4335 108.275C68.1882 109.062 71.1084 109.062 73.8632 108.275C73.8622 108.267 73.8622 108.26 73.8632 108.252C73.8218 108.051 73.8037 107.845 73.8094 107.639C73.8547 107.063 73.9296 106.49 74.0339 105.922C74.067 105.642 74.0812 105.36 74.0765 105.078V104.977C74.0698 104.891 74.0675 104.811 74.0653 104.73ZM74.0653 104.73C74.0653 104.64 74.0653 104.55 74.0496 104.46C74.0338 104.371 74.0361 104.292 74.0249 104.207C74.0136 104.121 74.0047 104.036 73.9934 103.951C73.9822 103.865 73.9665 103.78 73.9508 103.695C73.9351 103.61 73.9194 103.524 73.9014 103.439C73.9014 103.41 73.8902 103.383 73.8834 103.354C73.8587 103.241 73.8318 103.129 73.8026 103.015C73.7734 102.9 73.7555 102.833 73.7285 102.743C73.7285 102.703 73.7061 102.662 73.6926 102.624C73.6791 102.586 73.6545 102.494 73.6343 102.429L73.5938 102.303C73.5759 102.247 73.5579 102.191 73.5377 102.135C73.504 102.034 73.4681 101.935 73.4322 101.834C73.3963 101.733 73.3581 101.634 73.32 101.535C73.2436 101.333 73.1606 101.133 73.0775 100.934C72.752 100.157 72.3861 99.3913 72.0493 98.6325C71.8683 98.2347 71.708 97.8278 71.5689 97.4135L71.5262 97.4741C71.458 97.5774 71.3972 97.6854 71.3444 97.7974C71.3444 99.5642 69.5754 101.726 69.5754 101.726L67.7951 99.1331L66.2371 101.529C66.0126 101.647 65.7881 102.056 65.613 102.638C65.5637 102.795 65.5165 102.965 65.4716 103.147C65.4402 103.268 65.411 103.396 65.3841 103.524C65.3683 103.589 65.3549 103.654 65.3414 103.722L65.301 103.926V103.958C65.2741 104.097 65.2471 104.24 65.2224 104.386C65.1977 104.532 65.1685 104.701 65.1439 104.86C65.1259 104.963 65.1102 105.067 65.0967 105.17C65.0653 105.37 65.0383 105.572 65.0114 105.771C64.9957 105.888 64.98 105.996 64.9665 106.119L64.9126 106.568C65.0271 106.937 65.1551 107.3 65.2875 107.657C65.3721 107.853 65.4215 108.062 65.4335 108.275C68.1882 109.062 71.1084 109.062 73.8632 108.275C73.8622 108.267 73.8622 108.26 73.8632 108.252C73.8218 108.051 73.8037 107.845 73.8094 107.639C73.8547 107.063 73.9296 106.49 74.0339 105.922C74.067 105.642 74.0812 105.36 74.0765 105.078V104.977C74.0698 104.891 74.0675 104.811 74.0653 104.73ZM74.0653 104.73C74.0653 104.64 74.0653 104.55 74.0496 104.46C74.0338 104.371 74.0361 104.292 74.0249 104.207C74.0136 104.121 74.0047 104.036 73.9934 103.951C73.9822 103.865 73.9665 103.78 73.9508 103.695C73.9351 103.61 73.9194 103.524 73.9014 103.439C73.9014 103.41 73.8902 103.383 73.8834 103.354C73.8587 103.241 73.8318 103.129 73.8026 103.015C73.7734 102.9 73.7555 102.833 73.7285 102.743C73.7285 102.703 73.7061 102.662 73.6926 102.624C73.6791 102.586 73.6545 102.494 73.6343 102.429L73.5938 102.303C73.5759 102.247 73.5579 102.191 73.5377 102.135C73.504 102.034 73.4681 101.935 73.4322 101.834C73.3963 101.733 73.3581 101.634 73.32 101.535C73.2436 101.333 73.1606 101.133 73.0775 100.934C72.752 100.157 72.3861 99.3913 72.0493 98.6325C71.8683 98.2347 71.708 97.8278 71.5689 97.4135L71.5262 97.4741C71.458 97.5774 71.3972 97.6854 71.3444 97.7974C71.3444 99.5642 69.5754 101.726 69.5754 101.726L67.7951 99.1331L66.2371 101.529C66.0126 101.647 65.7881 102.056 65.613 102.638C65.5637 102.795 65.5165 102.965 65.4716 103.147C65.4402 103.268 65.411 103.396 65.3841 103.524C65.3683 103.589 65.3549 103.654 65.3414 103.722L65.301 103.926V103.958C65.2741 104.097 65.2471 104.24 65.2224 104.386C65.1977 104.532 65.1685 104.701 65.1439 104.86C65.1259 104.963 65.1102 105.067 65.0967 105.17C65.0653 105.37 65.0383 105.572 65.0114 105.771C64.9957 105.888 64.98 105.996 64.9665 106.119L64.9126 106.568C65.0271 106.937 65.1551 107.3 65.2875 107.657C65.3721 107.853 65.4215 108.062 65.4335 108.275C68.1882 109.062 71.1084 109.062 73.8632 108.275C73.8622 108.267 73.8622 108.26 73.8632 108.252C73.8218 108.051 73.8037 107.845 73.8094 107.639C73.8547 107.063 73.9296 106.49 74.0339 105.922C74.067 105.642 74.0812 105.36 74.0765 105.078V104.977C74.0698 104.891 74.0675 104.811 74.0653 104.73ZM74.0653 104.73C74.0653 104.64 74.0653 104.55 74.0496 104.46C74.0338 104.371 74.0361 104.292 74.0249 104.207C74.0136 104.121 74.0047 104.036 73.9934 103.951C73.9822 103.865 73.9665 103.78 73.9508 103.695C73.9351 103.61 73.9194 103.524 73.9014 103.439C73.9014 103.41 73.8902 103.383 73.8834 103.354C73.8587 103.241 73.8318 103.129 73.8026 103.015C73.7734 102.9 73.7555 102.833 73.7285 102.743C73.7285 102.703 73.7061 102.662 73.6926 102.624C73.6791 102.586 73.6545 102.494 73.6343 102.429L73.5938 102.303C73.5759 102.247 73.5579 102.191 73.5377 102.135C73.504 102.034 73.4681 101.935 73.4322 101.834C73.3963 101.733 73.3581 101.634 73.32 101.535C73.2436 101.333 73.1606 101.133 73.0775 100.934C72.752 100.157 72.3861 99.3913 72.0493 98.6325C71.8683 98.2347 71.708 97.8278 71.5689 97.4135L71.5262 97.4741C71.458 97.5774 71.3972 97.6854 71.3444 97.7974C71.3444 99.5642 69.5754 101.726 69.5754 101.726L67.7951 99.1331L66.2371 101.529C66.0126 101.647 65.7881 102.056 65.613 102.638C65.5637 102.795 65.5165 102.965 65.4716 103.147C65.4402 103.268 65.411 103.396 65.3841 103.524C65.3683 103.589 65.3549 103.654 65.3414 103.722L65.301 103.926V103.958C65.2741 104.097 65.2471 104.24 65.2224 104.386C65.1977 104.532 65.1685 104.701 65.1439 104.86C65.1259 104.963 65.1102 105.067 65.0967 105.17C65.0653 105.37 65.0383 105.572 65.0114 105.771C64.9957 105.888 64.98 105.996 64.9665 106.119L64.9126 106.568C65.0271 106.937 65.1551 107.3 65.2875 107.657C65.3721 107.853 65.4215 108.062 65.4335 108.275C68.1882 109.062 71.1084 109.062 73.8632 108.275C73.8622 108.267 73.8622 108.26 73.8632 108.252C73.8218 108.051 73.8037 107.845 73.8094 107.639C73.8547 107.063 73.9296 106.49 74.0339 105.922C74.067 105.642 74.0812 105.36 74.0765 105.078V104.977C74.0698 104.891 74.0675 104.811 74.0653 104.73ZM74.0653 104.73C74.0653 104.64 74.0653 104.55 74.0496 104.46C74.0338 104.371 74.0361 104.292 74.0249 104.207C74.0136 104.121 74.0047 104.036 73.9934 103.951C73.9822 103.865 73.9665 103.78 73.9508 103.695C73.9351 103.61 73.9194 103.524 73.9014 103.439C73.9014 103.41 73.8902 103.383 73.8834 103.354C73.8587 103.241 73.8318 103.129 73.8026 103.015C73.7734 102.9 73.7555 102.833 73.7285 102.743C73.7285 102.703 73.7061 102.662 73.6926 102.624C73.6791 102.586 73.6545 102.494 73.6343 102.429L73.5938 102.303C73.5759 102.247 73.5579 102.191 73.5377 102.135C73.504 102.034 73.4681 101.935 73.4322 101.834C73.3963 101.733 73.3581 101.634 73.32 101.535C73.2436 101.333 73.1606 101.133 73.0775 100.934C72.752 100.157 72.3861 99.3913 72.0493 98.6325C71.8683 98.2347 71.708 97.8278 71.5689 97.4135L71.5262 97.4741C71.458 97.5774 71.3972 97.6854 71.3444 97.7974C71.3444 99.5642 69.5754 101.726 69.5754 101.726L67.7951 99.1331L66.2371 101.529C66.0126 101.647 65.7881 102.056 65.613 102.638C65.5637 102.795 65.5165 102.965 65.4716 103.147C65.4402 103.268 65.411 103.396 65.3841 103.524C65.3683 103.589 65.3549 103.654 65.3414 103.722L65.301 103.926V103.958C65.2741 104.097 65.2471 104.24 65.2224 104.386C65.1977 104.532 65.1685 104.701 65.1439 104.86C65.1259 104.963 65.1102 105.067 65.0967 105.17C65.0653 105.37 65.0383 105.572 65.0114 105.771C64.9957 105.888 64.98 105.996 64.9665 106.119L64.9126 106.568C65.0271 106.937 65.1551 107.3 65.2875 107.657C65.3721 107.853 65.4215 108.062 65.4335 108.275C68.1882 109.062 71.1084 109.062 73.8632 108.275C73.8622 108.267 73.8622 108.26 73.8632 108.252C73.8218 108.051 73.8037 107.845 73.8094 107.639C73.8547 107.063 73.9296 106.49 74.0339 105.922C74.067 105.642 74.0812 105.36 74.0765 105.078V104.977C74.0698 104.891 74.0675 104.811 74.0653 104.73ZM74.0653 104.73C74.0653 104.64 74.0653 104.55 74.0496 104.46C74.0338 104.371 74.0361 104.292 74.0249 104.207C74.0136 104.121 74.0047 104.036 73.9934 103.951C73.9822 103.865 73.9665 103.78 73.9508 103.695C73.9351 103.61 73.9194 103.524 73.9014 103.439C73.9014 103.41 73.8902 103.383 73.8834 103.354C73.8587 103.241 73.8318 103.129 73.8026 103.015C73.7734 102.9 73.7555 102.833 73.7285 102.743C73.7285 102.703 73.7061 102.662 73.6926 102.624C73.6791 102.586 73.6545 102.494 73.6343 102.429L73.5938 102.303C73.5759 102.247 73.5579 102.191 73.5377 102.135C73.504 102.034 73.4681 101.935 73.4322 101.834C73.3963 101.733 73.3581 101.634 73.32 101.535C73.2436 101.333 73.1606 101.133 73.0775 100.934C72.752 100.157 72.3861 99.3913 72.0493 98.6325C71.8683 98.2347 71.708 97.8278 71.5689 97.4135L71.5262 97.4741C71.458 97.5774 71.3972 97.6854 71.3444 97.7974C71.3444 99.5642 69.5754 101.726 69.5754 101.726L67.7951 99.1331L66.2371 101.529C66.0126 101.647 65.7881 102.056 65.613 102.638C65.5637 102.795 65.5165 102.965 65.4716 103.147C65.4402 103.268 65.411 103.396 65.3841 103.524C65.3683 103.589 65.3549 103.654 65.3414 103.722L65.301 103.926V103.958C65.2741 104.097 65.2471 104.24 65.2224 104.386C65.1977 104.532 65.1685 104.701 65.1439 104.86C65.1259 104.963 65.1102 105.067 65.0967 105.17C65.0653 105.37 65.0383 105.572 65.0114 105.771C64.9957 105.888 64.98 105.996 64.9665 106.119L64.9126 106.568C65.0271 106.937 65.1551 107.3 65.2875 107.657C65.3721 107.853 65.4215 108.062 65.4335 108.275C68.1882 109.062 71.1084 109.062 73.8632 108.275C73.8622 108.267 73.8622 108.26 73.8632 108.252C73.8218 108.051 73.8037 107.845 73.8094 107.639C73.8547 107.063 73.9296 106.49 74.0339 105.922C74.067 105.642 74.0812 105.36 74.0765 105.078V104.977C74.0698 104.891 74.0675 104.811 74.0653 104.73ZM74.0653 104.73C74.0653 104.64 74.0653 104.55 74.0496 104.46C74.0338 104.371 74.0361 104.292 74.0249 104.207C74.0136 104.121 74.0047 104.036 73.9934 103.951C73.9822 103.865 73.9665 103.78 73.9508 103.695C73.9351 103.61 73.9194 103.524 73.9014 103.439C73.9014 103.41 73.8902 103.383 73.8834 103.354C73.8587 103.241 73.8318 103.129 73.8026 103.015C73.7734 102.9 73.7555 102.833 73.7285 102.743C73.7285 102.703 73.7061 102.662 73.6926 102.624C73.6791 102.586 73.6545 102.494 73.6343 102.429L73.5938 102.303C73.5759 102.247 73.5579 102.191 73.5377 102.135C73.504 102.034 73.4681 101.935 73.4322 101.834C73.3963 101.733 73.3581 101.634 73.32 101.535C73.2436 101.333 73.1606 101.133 73.0775 100.934C72.752 100.157 72.3861 99.3913 72.0493 98.6325C71.8683 98.2347 71.708 97.8278 71.5689 97.4135L71.5262 97.4741C71.458 97.5774 71.3972 97.6854 71.3444 97.7974C71.3444 99.5642 69.5754 101.726 69.5754 101.726L67.7951 99.1331L66.2371 101.529C66.0126 101.647 65.7881 102.056 65.613 102.638C65.5637 102.795 65.5165 102.965 65.4716 103.147C65.4402 103.268 65.411 103.396 65.3841 103.524C65.3683 103.589 65.3549 103.654 65.3414 103.722L65.301 103.926V103.958C65.2741 104.097 65.2471 104.24 65.2224 104.386C65.1977 104.532 65.1685 104.701 65.1439 104.86C65.1259 104.963 65.1102 105.067 65.0967 105.17C65.0653 105.37 65.0383 105.572 65.0114 105.771C64.9957 105.888 64.98 105.996 64.9665 106.119L64.9126 106.568C65.0271 106.937 65.1551 107.3 65.2875 107.657C65.3721 107.853 65.4215 108.062 65.4335 108.275C68.1882 109.062 71.1084 109.062 73.8632 108.275C73.8622 108.267 73.8622 108.26 73.8632 108.252C73.8218 108.051 73.8037 107.845 73.8094 107.639C73.8547 107.063 73.9296 106.49 74.0339 105.922C74.067 105.642 74.0812 105.36 74.0765 105.078V104.977C74.0698 104.891 74.0675 104.811 74.0653 104.73ZM74.0653 104.73C74.0653 104.64 74.0653 104.55 74.0496 104.46C74.0338 104.371 74.0361 104.292 74.0249 104.207C74.0136 104.121 74.0047 104.036 73.9934 103.951C73.9822 103.865 73.9665 103.78 73.9508 103.695C73.9351 103.61 73.9194 103.524 73.9014 103.439C73.9014 103.41 73.8902 103.383 73.8834 103.354C73.8587 103.241 73.8318 103.129 73.8026 103.015C73.7734 102.9 73.7555 102.833 73.7285 102.743C73.7285 102.703 73.7061 102.662 73.6926 102.624C73.6791 102.586 73.6545 102.494 73.6343 102.429L73.5938 102.303C73.5759 102.247 73.5579 102.191 73.5377 102.135C73.504 102.034 73.4681 101.935 73.4322 101.834C73.3963 101.733 73.3581 101.634 73.32 101.535C73.2436 101.333 73.1606 101.133 73.0775 100.934C72.752 100.157 72.3861 99.3913 72.0493 98.6325C71.8683 98.2347 71.708 97.8278 71.5689 97.4135L71.5262 97.4741C71.458 97.5774 71.3972 97.6854 71.3444 97.7974C71.3444 99.5642 69.5754 101.726 69.5754 101.726L67.7951 99.1331L66.2371 101.529C66.0126 101.647 65.7881 102.056 65.613 102.638C65.5637 102.795 65.5165 102.965 65.4716 103.147C65.4402 103.268 65.411 103.396 65.3841 103.524C65.3683 103.589 65.3549 103.654 65.3414 103.722L65.301 103.926V103.958C65.2741 104.097 65.2471 104.24 65.2224 104.386C65.1977 104.532 65.1685 104.701 65.1439 104.86C65.1259 104.963 65.1102 105.067 65.0967 105.17C65.0653 105.37 65.0383 105.572 65.0114 105.771C64.9957 105.888 64.98 105.996 64.9665 106.119L64.9126 106.568C65.0271 106.937 65.1551 107.3 65.2875 107.657C65.3721 107.853 65.4215 108.062 65.4335 108.275C68.1882 109.062 71.1084 109.062 73.8632 108.275C73.8622 108.267 73.8622 108.26 73.8632 108.252C73.8218 108.051 73.8037 107.845 73.8094 107.639C73.8547 107.063 73.9296 106.49 74.0339 105.922C74.067 105.642 74.0812 105.36 74.0765 105.078V104.977C74.0698 104.891 74.0675 104.811 74.0653 104.73Z" fill="white"/>
<path opacity="0.1" d="M67.8259 98.983L67.6755 98.9628C67.4484 98.932 67.2234 98.887 67.002 98.8281L66.9189 98.8056C66.3711 98.6507 65.7717 98.3723 65.637 97.8829C65.5969 97.7254 65.6016 97.5598 65.6505 97.4048C65.7259 97.1377 65.8282 96.8789 65.9558 96.6325V96.619C65.9727 96.5844 65.9914 96.5507 66.012 96.518C66.1972 96.1559 66.4773 95.851 66.8224 95.6357L66.553 95.6784L64.2721 96.0488L60.7363 96.619C60.7363 96.619 60.1077 96.4933 59.2524 98.8505C59.2524 98.8797 59.2322 98.9066 59.2232 98.9381C59.0167 99.515 58.7989 100.236 58.5744 101.136C58.4195 101.76 58.2781 102.373 58.1479 102.968C58.1097 103.147 58.0716 103.325 58.0356 103.5C58.4404 103.977 58.8761 104.427 59.34 104.847L59.414 104.916C60.3226 105.739 61.3265 106.45 62.4043 107.033L62.447 107.056C63.125 107.422 63.8306 107.734 64.5572 107.99L64.748 108.057C64.7885 107.642 64.8334 107.182 64.8872 106.71C64.8872 106.663 64.8872 106.616 64.9052 106.569L64.9591 106.12C64.9725 106.005 64.9883 105.895 65.004 105.772C65.0309 105.572 65.0579 105.37 65.0893 105.17C65.1028 105.067 65.1185 104.964 65.1364 104.86C65.1611 104.701 65.1881 104.541 65.215 104.387C65.2419 104.232 65.2666 104.097 65.2936 103.958V103.926L65.334 103.722C65.3475 103.655 65.3609 103.59 65.3766 103.525C65.4036 103.397 65.4328 103.269 65.4642 103.147C65.5091 102.966 65.5562 102.795 65.6056 102.638C65.7852 102.056 65.994 101.648 66.2297 101.529L67.7877 99.1334L67.8528 99.0324L67.882 98.9875L67.8259 98.983Z" fill="black"/>
<path opacity="0.1" d="M64.9906 83.082C64.7661 83.3918 64.784 83.8184 64.683 84.2045C64.4428 85.0823 63.4909 85.6323 63.2732 86.5168C63.1452 87.0331 63.2934 87.5809 63.2058 88.1062C63.0464 89.0738 62.1619 89.7293 61.668 90.5757C61.4177 91.0117 61.2692 91.4987 61.2338 92.0002C61.1985 92.5018 61.2771 93.0048 61.4637 93.4716C61.5793 93.7071 61.6747 93.9519 61.7489 94.2035C61.8055 94.5784 61.7818 94.961 61.6793 95.326C61.5109 96.1252 61.338 97.0052 61.7242 97.7258C62.0497 98.3342 62.7254 98.6912 63.4056 98.8034C64.0925 98.881 64.7873 98.8492 65.4643 98.7091C66.2073 98.5946 66.9684 98.4622 67.6149 98.0805L65.1836 92.2122C64.9389 91.6196 64.6875 91.0067 64.6897 90.3646C64.7095 89.891 64.8121 89.4245 64.9928 88.9862C65.4635 87.7165 66.1467 86.536 67.0133 85.4953C67.3657 85.9039 67.3388 86.5258 67.6329 86.9792C67.8927 87.3145 68.2388 87.5729 68.6341 87.7268C69.7861 88.2888 70.9697 88.7835 72.1789 89.2085C72.2548 89.218 72.3271 89.2461 72.3895 89.2903C72.4519 89.3345 72.5025 89.3934 72.5367 89.4617C72.5709 89.5301 72.5877 89.6059 72.5856 89.6823C72.5835 89.7588 72.5625 89.8335 72.5246 89.8999L71.6087 93.6804C71.4066 94.5133 71.2293 95.4764 71.7479 96.1499C72.2665 96.8233 73.4361 97.1421 73.4428 98.0109C73.4332 98.1485 73.4332 98.2865 73.4428 98.424C73.5034 98.8303 73.9861 99.0256 74.3969 99.0458C75.0713 99.0592 75.7285 98.8324 76.2512 98.4059C76.7738 97.9795 77.1279 97.3812 77.2502 96.7178C77.4747 95.2317 76.4915 93.8623 76.0806 92.4143C75.3892 89.9785 76.3051 87.1207 74.9469 84.9812C73.8469 83.2459 71.8422 82.7744 69.9384 82.5589C68.6027 82.4018 65.9312 81.8406 64.9906 83.082Z" fill="black"/>
<path opacity="0.5" d="M64.9906 82.8574C64.7661 83.1672 64.784 83.5937 64.683 83.9799C64.4428 84.8577 63.4909 85.4077 63.2732 86.2922C63.1452 86.8085 63.2934 87.3563 63.2058 87.8816C63.0464 88.8492 62.1619 89.5047 61.668 90.351C61.4177 90.7871 61.2692 91.2741 61.2338 91.7756C61.1985 92.2772 61.2771 92.7802 61.4637 93.247C61.5793 93.4825 61.6747 93.7273 61.7489 93.9789C61.8055 94.3538 61.7818 94.7364 61.6793 95.1014C61.5109 95.9006 61.338 96.7806 61.7242 97.5012C62.0497 98.1096 62.7254 98.4665 63.4056 98.5788C64.0925 98.6564 64.7873 98.6246 65.4643 98.4845C66.2073 98.37 66.9684 98.2376 67.6149 97.8559L65.1836 91.9876C64.9389 91.3949 64.6875 90.7821 64.6897 90.14C64.7095 89.6664 64.8121 89.1999 64.9928 88.7616C65.4635 87.4919 66.1467 86.3114 67.0133 85.2707C67.3657 85.6793 67.3388 86.3012 67.6329 86.7546C67.8927 87.0899 68.2388 87.3483 68.6341 87.5022C69.7861 88.0642 70.9697 88.5589 72.1789 88.9839C72.2548 88.9934 72.3271 89.0215 72.3895 89.0657C72.4519 89.1098 72.5025 89.1687 72.5367 89.2371C72.5709 89.3055 72.5877 89.3813 72.5856 89.4577C72.5835 89.5342 72.5625 89.6089 72.5246 89.6753L71.6087 93.4558C71.4066 94.2887 71.2293 95.2518 71.7479 95.9253C72.2665 96.5987 73.4361 96.9175 73.4428 97.7863C73.4332 97.9239 73.4332 98.0619 73.4428 98.1994C73.5034 98.6057 73.9861 98.801 74.3969 98.8212C75.0713 98.8346 75.7285 98.6078 76.2512 98.1813C76.7738 97.7549 77.1279 97.1566 77.2502 96.4932C77.4747 95.0071 76.4915 93.6377 76.0806 92.1897C75.3892 89.7539 76.3051 86.8961 74.9469 84.7566C73.8469 83.0213 71.8422 82.5498 69.9384 82.3343C68.6027 82.1772 65.9312 81.6159 64.9906 82.8574Z" fill="#493545"/>
</g>
<g opacity="0.5">
<path opacity="0.5" d="M63.6106 142.988C63.6308 143.74 63.119 144.382 62.7126 145.008C62.3063 145.635 62.0055 146.49 62.423 147.116C62.56 147.323 62.7665 147.482 62.89 147.698C63.3233 148.45 62.6026 149.314 62.34 150.14C62.0369 151.094 62.3894 152.161 63.0269 152.935C63.6645 153.71 64.5445 154.233 65.4335 154.693C67.3027 155.689 69.3089 156.403 71.3871 156.812C72.4737 157.012 73.6321 157.102 74.6513 156.666C75.3584 156.342 75.9361 155.789 76.2915 155.097C76.6469 154.405 76.7595 153.614 76.6111 152.85C76.3529 151.669 75.4886 150.72 75.0396 149.604C74.9348 149.385 74.884 149.144 74.8915 148.901C74.9296 148.477 75.2552 148.145 75.5088 147.801C76.145 146.866 76.4048 145.725 76.2362 144.607C76.059 143.488 75.6307 142.424 74.9835 141.495C74.7522 141.11 74.4471 140.774 74.0855 140.507C73.5961 140.177 72.99 140.083 72.4063 140C69.9683 139.659 67.4427 139.286 64.9845 139.16C64.2078 139.12 63.6375 139.273 63.2537 140C62.6677 141.084 63.5814 141.899 63.6106 142.988Z" fill="#444176"/>
<path opacity="0.5" d="M76.1669 150.623L71.54 157.203L67.0232 156.81C67.0232 156.81 66.875 158.382 65.0589 152.686C64.0442 149.501 66.1073 150.608 66.5136 149.725C66.9199 148.843 67.6361 148.064 67.6967 147.413C67.8404 146.017 67.4161 145.222 67.4161 145.222L72.3258 144.634C72.1042 145.295 72.0762 146.006 72.245 146.683C72.8601 149.238 76.1669 150.623 76.1669 150.623Z" fill="#C77485"/>
<path opacity="0.5" d="M69.2075 145.013C72.4311 145.013 75.0444 142.952 75.0444 140.411C75.0444 137.869 72.4311 135.809 69.2075 135.809C65.9839 135.809 63.3706 137.869 63.3706 140.411C63.3706 142.952 65.9839 145.013 69.2075 145.013Z" fill="#444176"/>
<path opacity="0.1" d="M72.243 146.681C71.6026 147.166 70.853 147.486 70.06 147.614C69.267 147.742 68.4548 147.673 67.6947 147.413C67.8384 146.017 67.4141 145.222 67.4141 145.222L72.3238 144.634C72.1027 145.295 72.0746 146.005 72.243 146.681Z" fill="black"/>
<path opacity="0.5" d="M69.2818 147.481C71.9933 147.481 74.1915 145.282 74.1915 142.571C74.1915 139.859 71.9933 137.661 69.2818 137.661C66.5702 137.661 64.3721 139.859 64.3721 142.571C64.3721 145.282 66.5702 147.481 69.2818 147.481Z" fill="#C77485"/>
<path opacity="0.1" d="M75.6817 151.369L75.5672 150.92L75.4685 150.525L75.3225 149.941L75.2956 149.833L75.2731 149.743C75.2731 149.743 75.3899 149.391 74.6199 149.505L74.4762 149.53C74.355 149.555 74.2135 149.588 74.0519 149.633L73.906 149.678L73.7129 149.739C73.1017 149.938 72.5441 150.274 72.0831 150.722C71.8761 150.92 71.693 151.142 71.5375 151.382C71.5218 151.405 71.5106 151.425 71.4971 151.443C71.444 151.526 71.3967 151.613 71.3557 151.703C71.3557 153.472 69.5867 155.632 69.5867 155.632L67.8603 153.138L67.8266 153.088L67.4158 152.491L67.2699 152.298L67.2205 152.231L66.3225 151.025L66.098 150.724L66.0239 150.623L65.9139 150.477L65.6558 150.134L64.6455 150.724L63.2986 151.51L62.5128 156.617V156.759L62.5375 157.181L62.7014 159.956V159.994L62.4141 161.143L62.4567 161.166C63.1348 161.531 63.8403 161.844 64.567 162.099L64.7578 162.167C64.9823 162.241 65.1933 162.308 65.4133 162.373C65.4215 162.407 65.4275 162.44 65.4313 162.474C65.4313 162.443 65.4313 162.409 65.4313 162.378C68.1861 163.165 71.1063 163.165 73.8611 162.378L73.9127 162.362C74.0407 162.326 74.1709 162.288 74.2966 162.245L74.5009 162.18C75.0548 161.995 75.5975 161.778 76.1262 161.529L76.3148 157.511L76.4495 154.613V154.446L75.6817 151.369Z" fill="black"/>
<path opacity="0.5" d="M74.0658 158.833C74.0658 158.744 74.0658 158.654 74.0501 158.564C74.0343 158.474 74.0366 158.396 74.0254 158.31C74.0141 158.225 74.0052 158.14 73.9939 158.054C73.9827 157.969 73.967 157.884 73.9513 157.798C73.9356 157.713 73.9199 157.628 73.9019 157.542C73.9019 157.513 73.8907 157.486 73.8839 157.457C73.8592 157.345 73.8323 157.233 73.8031 157.118C73.7739 157.004 73.756 156.936 73.729 156.847C73.729 156.806 73.7066 156.766 73.6931 156.728C73.6796 156.689 73.6549 156.597 73.6347 156.532L73.5943 156.407C73.5764 156.35 73.5584 156.294 73.5382 156.238C73.5045 156.137 73.4686 156.038 73.4327 155.937C73.3968 155.836 73.3586 155.738 73.3204 155.639C73.2441 155.437 73.1611 155.237 73.078 155.037C72.7525 154.26 72.3865 153.495 72.0498 152.736C71.8688 152.338 71.7085 151.931 71.5694 151.517L71.5267 151.578C71.4585 151.681 71.3977 151.789 71.3449 151.901C71.3449 153.668 69.5759 155.83 69.5759 155.83L67.7956 153.237L66.2376 155.632C66.0131 155.751 65.7886 156.16 65.6135 156.741C65.5641 156.898 65.517 157.069 65.4721 157.251C65.4407 157.372 65.4115 157.5 65.3845 157.628C65.3688 157.693 65.3554 157.758 65.3419 157.825L65.3015 158.03V158.061C65.2745 158.2 65.2476 158.344 65.2229 158.49C65.1982 158.636 65.169 158.804 65.1443 158.964C65.1264 159.067 65.1107 159.17 65.0972 159.273C65.0658 159.473 65.0388 159.675 65.0119 159.875C64.9962 159.992 64.9805 160.099 64.967 160.223L64.9131 160.672C65.0276 161.04 65.1556 161.404 65.288 161.761C65.3726 161.956 65.422 162.165 65.4339 162.378C68.1887 163.165 71.1089 163.165 73.8637 162.378C73.8627 162.371 73.8627 162.363 73.8637 162.356C73.8222 162.154 73.8042 161.948 73.8098 161.743C73.8552 161.167 73.9301 160.594 74.0343 160.025C74.0675 159.745 74.0817 159.463 74.077 159.181V159.08C74.0703 158.995 74.068 158.914 74.0658 158.833ZM74.0658 158.833C74.0658 158.744 74.0658 158.654 74.0501 158.564C74.0343 158.474 74.0366 158.396 74.0254 158.31C74.0141 158.225 74.0052 158.14 73.9939 158.054C73.9827 157.969 73.967 157.884 73.9513 157.798C73.9356 157.713 73.9199 157.628 73.9019 157.542C73.9019 157.513 73.8907 157.486 73.8839 157.457C73.8592 157.345 73.8323 157.233 73.8031 157.118C73.7739 157.004 73.756 156.936 73.729 156.847C73.729 156.806 73.7066 156.766 73.6931 156.728C73.6796 156.689 73.6549 156.597 73.6347 156.532L73.5943 156.407C73.5764 156.35 73.5584 156.294 73.5382 156.238C73.5045 156.137 73.4686 156.038 73.4327 155.937C73.3968 155.836 73.3586 155.738 73.3204 155.639C73.2441 155.437 73.1611 155.237 73.078 155.037C72.7525 154.26 72.3865 153.495 72.0498 152.736C71.8688 152.338 71.7085 151.931 71.5694 151.517L71.5267 151.578C71.4585 151.681 71.3977 151.789 71.3449 151.901C71.3449 153.668 69.5759 155.83 69.5759 155.83L67.7956 153.237L66.2376 155.632C66.0131 155.751 65.7886 156.16 65.6135 156.741C65.5641 156.898 65.517 157.069 65.4721 157.251C65.4407 157.372 65.4115 157.5 65.3845 157.628C65.3688 157.693 65.3554 157.758 65.3419 157.825L65.3015 158.03V158.061C65.2745 158.2 65.2476 158.344 65.2229 158.49C65.1982 158.636 65.169 158.804 65.1443 158.964C65.1264 159.067 65.1107 159.17 65.0972 159.273C65.0658 159.473 65.0388 159.675 65.0119 159.875C64.9962 159.992 64.9805 160.099 64.967 160.223L64.9131 160.672C65.0276 161.04 65.1556 161.404 65.288 161.761C65.3726 161.956 65.422 162.165 65.4339 162.378C68.1887 163.165 71.1089 163.165 73.8637 162.378C73.8627 162.371 73.8627 162.363 73.8637 162.356C73.8222 162.154 73.8042 161.948 73.8098 161.743C73.8552 161.167 73.9301 160.594 74.0343 160.025C74.0675 159.745 74.0817 159.463 74.077 159.181V159.08C74.0703 158.995 74.068 158.914 74.0658 158.833ZM74.0658 158.833C74.0658 158.744 74.0658 158.654 74.0501 158.564C74.0343 158.474 74.0366 158.396 74.0254 158.31C74.0141 158.225 74.0052 158.14 73.9939 158.054C73.9827 157.969 73.967 157.884 73.9513 157.798C73.9356 157.713 73.9199 157.628 73.9019 157.542C73.9019 157.513 73.8907 157.486 73.8839 157.457C73.8592 157.345 73.8323 157.233 73.8031 157.118C73.7739 157.004 73.756 156.936 73.729 156.847C73.729 156.806 73.7066 156.766 73.6931 156.728C73.6796 156.689 73.6549 156.597 73.6347 156.532L73.5943 156.407C73.5764 156.35 73.5584 156.294 73.5382 156.238C73.5045 156.137 73.4686 156.038 73.4327 155.937C73.3968 155.836 73.3586 155.738 73.3204 155.639C73.2441 155.437 73.1611 155.237 73.078 155.037C72.7525 154.26 72.3865 153.495 72.0498 152.736C71.8688 152.338 71.7085 151.931 71.5694 151.517L71.5267 151.578C71.4585 151.681 71.3977 151.789 71.3449 151.901C71.3449 153.668 69.5759 155.83 69.5759 155.83L67.7956 153.237L66.2376 155.632C66.0131 155.751 65.7886 156.16 65.6135 156.741C65.5641 156.898 65.517 157.069 65.4721 157.251C65.4407 157.372 65.4115 157.5 65.3845 157.628C65.3688 157.693 65.3554 157.758 65.3419 157.825L65.3015 158.03V158.061C65.2745 158.2 65.2476 158.344 65.2229 158.49C65.1982 158.636 65.169 158.804 65.1443 158.964C65.1264 159.067 65.1107 159.17 65.0972 159.273C65.0658 159.473 65.0388 159.675 65.0119 159.875C64.9962 159.992 64.9805 160.099 64.967 160.223L64.9131 160.672C65.0276 161.04 65.1556 161.404 65.288 161.761C65.3726 161.956 65.422 162.165 65.4339 162.378C68.1887 163.165 71.1089 163.165 73.8637 162.378C73.8627 162.371 73.8627 162.363 73.8637 162.356C73.8222 162.154 73.8042 161.948 73.8098 161.743C73.8552 161.167 73.9301 160.594 74.0343 160.025C74.0675 159.745 74.0817 159.463 74.077 159.181V159.08C74.0703 158.995 74.068 158.914 74.0658 158.833ZM76.4454 154.62L75.644 151.42L75.507 150.873L75.4689 150.722L75.2736 149.941C75.274 149.934 75.274 149.928 75.2736 149.921C75.2782 149.886 75.2728 149.851 75.2578 149.82C75.2287 149.761 75.1546 149.701 74.9817 149.685C74.9159 149.68 74.8499 149.68 74.7842 149.685C74.5891 149.704 74.3961 149.741 74.2072 149.793C74.1152 149.818 74.0164 149.845 73.9109 149.878L73.7178 149.939H73.6998C73.1828 150.109 72.7028 150.375 72.2855 150.725C72.0099 150.954 71.768 151.222 71.5671 151.519L71.5245 151.58C71.4562 151.683 71.3955 151.791 71.3426 151.903C71.3426 153.67 69.5736 155.832 69.5736 155.832L67.7934 153.239L67.6924 153.093L67.6744 153.068L67.4162 152.689L67.2209 152.428L67.1693 152.361L66.2489 151.133L65.957 150.736V150.722L65.856 150.585L65.6629 150.329L64.9894 150.722L63.3057 151.703L62.529 156.757V156.811L62.5514 157.179L62.7175 159.992V160.151L62.4639 161.164C63.1419 161.529 63.8475 161.842 64.5741 162.097L64.7649 162.165C64.9894 162.239 65.2005 162.306 65.4205 162.371C65.4286 162.405 65.4346 162.438 65.4384 162.472C65.4384 162.441 65.4384 162.407 65.4384 162.376C68.1932 163.163 71.1134 163.163 73.8682 162.376L73.9198 162.36C74.0478 162.324 74.178 162.286 74.3037 162.243L74.508 162.178C75.062 161.993 75.6047 161.776 76.1334 161.527L76.3197 157.513L76.4544 154.646L76.4454 154.62ZM65.4048 162.371C65.4129 162.405 65.4189 162.438 65.4227 162.472C65.4227 162.441 65.4227 162.407 65.4227 162.376L65.4048 162.371ZM74.0658 158.833C74.0658 158.744 74.0658 158.654 74.0501 158.564C74.0343 158.474 74.0366 158.396 74.0254 158.31C74.0141 158.225 74.0052 158.14 73.9939 158.054C73.9827 157.969 73.967 157.884 73.9513 157.798C73.9356 157.713 73.9199 157.628 73.9019 157.542C73.9019 157.513 73.8907 157.486 73.8839 157.457C73.8592 157.345 73.8323 157.233 73.8031 157.118C73.7739 157.004 73.756 156.936 73.729 156.847C73.729 156.806 73.7066 156.766 73.6931 156.728C73.6796 156.689 73.6549 156.597 73.6347 156.532L73.5943 156.407C73.5764 156.35 73.5584 156.294 73.5382 156.238C73.5045 156.137 73.4686 156.038 73.4327 155.937C73.3968 155.836 73.3586 155.738 73.3204 155.639C73.2441 155.437 73.1611 155.237 73.078 155.037C72.7525 154.26 72.3865 153.495 72.0498 152.736C71.8688 152.338 71.7085 151.931 71.5694 151.517L71.5267 151.578C71.4585 151.681 71.3977 151.789 71.3449 151.901C71.3449 153.668 69.5759 155.83 69.5759 155.83L67.7956 153.237L66.2376 155.632C66.0131 155.751 65.7886 156.16 65.6135 156.741C65.5641 156.898 65.517 157.069 65.4721 157.251C65.4407 157.372 65.4115 157.5 65.3845 157.628C65.3688 157.693 65.3554 157.758 65.3419 157.825L65.3015 158.03V158.061C65.2745 158.2 65.2476 158.344 65.2229 158.49C65.1982 158.636 65.169 158.804 65.1443 158.964C65.1264 159.067 65.1107 159.17 65.0972 159.273C65.0658 159.473 65.0388 159.675 65.0119 159.875C64.9962 159.992 64.9805 160.099 64.967 160.223L64.9131 160.672C65.0276 161.04 65.1556 161.404 65.288 161.761C65.3726 161.956 65.422 162.165 65.4339 162.378C68.1887 163.165 71.1089 163.165 73.8637 162.378C73.8627 162.371 73.8627 162.363 73.8637 162.356C73.8222 162.154 73.8042 161.948 73.8098 161.743C73.8552 161.167 73.9301 160.594 74.0343 160.025C74.0675 159.745 74.0817 159.463 74.077 159.181V159.08C74.0703 158.995 74.068 158.914 74.0658 158.833ZM74.0658 158.833C74.0658 158.744 74.0658 158.654 74.0501 158.564C74.0343 158.474 74.0366 158.396 74.0254 158.31C74.0141 158.225 74.0052 158.14 73.9939 158.054C73.9827 157.969 73.967 157.884 73.9513 157.798C73.9356 157.713 73.9199 157.628 73.9019 157.542C73.9019 157.513 73.8907 157.486 73.8839 157.457C73.8592 157.345 73.8323 157.233 73.8031 157.118C73.7739 157.004 73.756 156.936 73.729 156.847C73.729 156.806 73.7066 156.766 73.6931 156.728C73.6796 156.689 73.6549 156.597 73.6347 156.532L73.5943 156.407C73.5764 156.35 73.5584 156.294 73.5382 156.238C73.5045 156.137 73.4686 156.038 73.4327 155.937C73.3968 155.836 73.3586 155.738 73.3204 155.639C73.2441 155.437 73.1611 155.237 73.078 155.037C72.7525 154.26 72.3865 153.495 72.0498 152.736C71.8688 152.338 71.7085 151.931 71.5694 151.517L71.5267 151.578C71.4585 151.681 71.3977 151.789 71.3449 151.901C71.3449 153.668 69.5759 155.83 69.5759 155.83L67.7956 153.237L66.2376 155.632C66.0131 155.751 65.7886 156.16 65.6135 156.741C65.5641 156.898 65.517 157.069 65.4721 157.251C65.4407 157.372 65.4115 157.5 65.3845 157.628C65.3688 157.693 65.3554 157.758 65.3419 157.825L65.3015 158.03V158.061C65.2745 158.2 65.2476 158.344 65.2229 158.49C65.1982 158.636 65.169 158.804 65.1443 158.964C65.1264 159.067 65.1107 159.17 65.0972 159.273C65.0658 159.473 65.0388 159.675 65.0119 159.875C64.9962 159.992 64.9805 160.099 64.967 160.223L64.9131 160.672C65.0276 161.04 65.1556 161.404 65.288 161.761C65.3726 161.956 65.422 162.165 65.4339 162.378C68.1887 163.165 71.1089 163.165 73.8637 162.378C73.8627 162.371 73.8627 162.363 73.8637 162.356C73.8222 162.154 73.8042 161.948 73.8098 161.743C73.8552 161.167 73.9301 160.594 74.0343 160.025C74.0675 159.745 74.0817 159.463 74.077 159.181V159.08C74.0703 158.995 74.068 158.914 74.0658 158.833ZM74.0658 158.833C74.0658 158.744 74.0658 158.654 74.0501 158.564C74.0343 158.474 74.0366 158.396 74.0254 158.31C74.0141 158.225 74.0052 158.14 73.9939 158.054C73.9827 157.969 73.967 157.884 73.9513 157.798C73.9356 157.713 73.9199 157.628 73.9019 157.542C73.9019 157.513 73.8907 157.486 73.8839 157.457C73.8592 157.345 73.8323 157.233 73.8031 157.118C73.7739 157.004 73.756 156.936 73.729 156.847C73.729 156.806 73.7066 156.766 73.6931 156.728C73.6796 156.689 73.6549 156.597 73.6347 156.532L73.5943 156.407C73.5764 156.35 73.5584 156.294 73.5382 156.238C73.5045 156.137 73.4686 156.038 73.4327 155.937C73.3968 155.836 73.3586 155.738 73.3204 155.639C73.2441 155.437 73.1611 155.237 73.078 155.037C72.7525 154.26 72.3865 153.495 72.0498 152.736C71.8688 152.338 71.7085 151.931 71.5694 151.517L71.5267 151.578C71.4585 151.681 71.3977 151.789 71.3449 151.901C71.3449 153.668 69.5759 155.83 69.5759 155.83L67.7956 153.237L66.2376 155.632C66.0131 155.751 65.7886 156.16 65.6135 156.741C65.5641 156.898 65.517 157.069 65.4721 157.251C65.4407 157.372 65.4115 157.5 65.3845 157.628C65.3688 157.693 65.3554 157.758 65.3419 157.825L65.3015 158.03V158.061C65.2745 158.2 65.2476 158.344 65.2229 158.49C65.1982 158.636 65.169 158.804 65.1443 158.964C65.1264 159.067 65.1107 159.17 65.0972 159.273C65.0658 159.473 65.0388 159.675 65.0119 159.875C64.9962 159.992 64.9805 160.099 64.967 160.223L64.9131 160.672C65.0276 161.04 65.1556 161.404 65.288 161.761C65.3726 161.956 65.422 162.165 65.4339 162.378C68.1887 163.165 71.1089 163.165 73.8637 162.378C73.8627 162.371 73.8627 162.363 73.8637 162.356C73.8222 162.154 73.8042 161.948 73.8098 161.743C73.8552 161.167 73.9301 160.594 74.0343 160.025C74.0675 159.745 74.0817 159.463 74.077 159.181V159.08C74.0703 158.995 74.068 158.914 74.0658 158.833ZM74.0658 158.833C74.0658 158.744 74.0658 158.654 74.0501 158.564C74.0343 158.474 74.0366 158.396 74.0254 158.31C74.0141 158.225 74.0052 158.14 73.9939 158.054C73.9827 157.969 73.967 157.884 73.9513 157.798C73.9356 157.713 73.9199 157.628 73.9019 157.542C73.9019 157.513 73.8907 157.486 73.8839 157.457C73.8592 157.345 73.8323 157.233 73.8031 157.118C73.7739 157.004 73.756 156.936 73.729 156.847C73.729 156.806 73.7066 156.766 73.6931 156.728C73.6796 156.689 73.6549 156.597 73.6347 156.532L73.5943 156.407C73.5764 156.35 73.5584 156.294 73.5382 156.238C73.5045 156.137 73.4686 156.038 73.4327 155.937C73.3968 155.836 73.3586 155.738 73.3204 155.639C73.2441 155.437 73.1611 155.237 73.078 155.037C72.7525 154.26 72.3865 153.495 72.0498 152.736C71.8688 152.338 71.7085 151.931 71.5694 151.517L71.5267 151.578C71.4585 151.681 71.3977 151.789 71.3449 151.901C71.3449 153.668 69.5759 155.83 69.5759 155.83L67.7956 153.237L66.2376 155.632C66.0131 155.751 65.7886 156.16 65.6135 156.741C65.5641 156.898 65.517 157.069 65.4721 157.251C65.4407 157.372 65.4115 157.5 65.3845 157.628C65.3688 157.693 65.3554 157.758 65.3419 157.825L65.3015 158.03V158.061C65.2745 158.2 65.2476 158.344 65.2229 158.49C65.1982 158.636 65.169 158.804 65.1443 158.964C65.1264 159.067 65.1107 159.17 65.0972 159.273C65.0658 159.473 65.0388 159.675 65.0119 159.875C64.9962 159.992 64.9805 160.099 64.967 160.223L64.9131 160.672C65.0276 161.04 65.1556 161.404 65.288 161.761C65.3726 161.956 65.422 162.165 65.4339 162.378C68.1887 163.165 71.1089 163.165 73.8637 162.378C73.8627 162.371 73.8627 162.363 73.8637 162.356C73.8222 162.154 73.8042 161.948 73.8098 161.743C73.8552 161.167 73.9301 160.594 74.0343 160.025C74.0675 159.745 74.0817 159.463 74.077 159.181V159.08C74.0703 158.995 74.068 158.914 74.0658 158.833ZM74.0658 158.833C74.0658 158.744 74.0658 158.654 74.0501 158.564C74.0343 158.474 74.0366 158.396 74.0254 158.31C74.0141 158.225 74.0052 158.14 73.9939 158.054C73.9827 157.969 73.967 157.884 73.9513 157.798C73.9356 157.713 73.9199 157.628 73.9019 157.542C73.9019 157.513 73.8907 157.486 73.8839 157.457C73.8592 157.345 73.8323 157.233 73.8031 157.118C73.7739 157.004 73.756 156.936 73.729 156.847C73.729 156.806 73.7066 156.766 73.6931 156.728C73.6796 156.689 73.6549 156.597 73.6347 156.532L73.5943 156.407C73.5764 156.35 73.5584 156.294 73.5382 156.238C73.5045 156.137 73.4686 156.038 73.4327 155.937C73.3968 155.836 73.3586 155.738 73.3204 155.639C73.2441 155.437 73.1611 155.237 73.078 155.037C72.7525 154.26 72.3865 153.495 72.0498 152.736C71.8688 152.338 71.7085 151.931 71.5694 151.517L71.5267 151.578C71.4585 151.681 71.3977 151.789 71.3449 151.901C71.3449 153.668 69.5759 155.83 69.5759 155.83L67.7956 153.237L66.2376 155.632C66.0131 155.751 65.7886 156.16 65.6135 156.741C65.5641 156.898 65.517 157.069 65.4721 157.251C65.4407 157.372 65.4115 157.5 65.3845 157.628C65.3688 157.693 65.3554 157.758 65.3419 157.825L65.3015 158.03V158.061C65.2745 158.2 65.2476 158.344 65.2229 158.49C65.1982 158.636 65.169 158.804 65.1443 158.964C65.1264 159.067 65.1107 159.17 65.0972 159.273C65.0658 159.473 65.0388 159.675 65.0119 159.875C64.9962 159.992 64.9805 160.099 64.967 160.223L64.9131 160.672C65.0276 161.04 65.1556 161.404 65.288 161.761C65.3726 161.956 65.422 162.165 65.4339 162.378C68.1887 163.165 71.1089 163.165 73.8637 162.378C73.8627 162.371 73.8627 162.363 73.8637 162.356C73.8222 162.154 73.8042 161.948 73.8098 161.743C73.8552 161.167 73.9301 160.594 74.0343 160.025C74.0675 159.745 74.0817 159.463 74.077 159.181V159.08C74.0703 158.995 74.068 158.914 74.0658 158.833ZM74.0658 158.833C74.0658 158.744 74.0658 158.654 74.0501 158.564C74.0343 158.474 74.0366 158.396 74.0254 158.31C74.0141 158.225 74.0052 158.14 73.9939 158.054C73.9827 157.969 73.967 157.884 73.9513 157.798C73.9356 157.713 73.9199 157.628 73.9019 157.542C73.9019 157.513 73.8907 157.486 73.8839 157.457C73.8592 157.345 73.8323 157.233 73.8031 157.118C73.7739 157.004 73.756 156.936 73.729 156.847C73.729 156.806 73.7066 156.766 73.6931 156.728C73.6796 156.689 73.6549 156.597 73.6347 156.532L73.5943 156.407C73.5764 156.35 73.5584 156.294 73.5382 156.238C73.5045 156.137 73.4686 156.038 73.4327 155.937C73.3968 155.836 73.3586 155.738 73.3204 155.639C73.2441 155.437 73.1611 155.237 73.078 155.037C72.7525 154.26 72.3865 153.495 72.0498 152.736C71.8688 152.338 71.7085 151.931 71.5694 151.517L71.5267 151.578C71.4585 151.681 71.3977 151.789 71.3449 151.901C71.3449 153.668 69.5759 155.83 69.5759 155.83L67.7956 153.237L66.2376 155.632C66.0131 155.751 65.7886 156.16 65.6135 156.741C65.5641 156.898 65.517 157.069 65.4721 157.251C65.4407 157.372 65.4115 157.5 65.3845 157.628C65.3688 157.693 65.3554 157.758 65.3419 157.825L65.3015 158.03V158.061C65.2745 158.2 65.2476 158.344 65.2229 158.49C65.1982 158.636 65.169 158.804 65.1443 158.964C65.1264 159.067 65.1107 159.17 65.0972 159.273C65.0658 159.473 65.0388 159.675 65.0119 159.875C64.9962 159.992 64.9805 160.099 64.967 160.223L64.9131 160.672C65.0276 161.04 65.1556 161.404 65.288 161.761C65.3726 161.956 65.422 162.165 65.4339 162.378C68.1887 163.165 71.1089 163.165 73.8637 162.378C73.8627 162.371 73.8627 162.363 73.8637 162.356C73.8222 162.154 73.8042 161.948 73.8098 161.743C73.8552 161.167 73.9301 160.594 74.0343 160.025C74.0675 159.745 74.0817 159.463 74.077 159.181V159.08C74.0703 158.995 74.068 158.914 74.0658 158.833ZM74.0658 158.833C74.0658 158.744 74.0658 158.654 74.0501 158.564C74.0343 158.474 74.0366 158.396 74.0254 158.31C74.0141 158.225 74.0052 158.14 73.9939 158.054C73.9827 157.969 73.967 157.884 73.9513 157.798C73.9356 157.713 73.9199 157.628 73.9019 157.542C73.9019 157.513 73.8907 157.486 73.8839 157.457C73.8592 157.345 73.8323 157.233 73.8031 157.118C73.7739 157.004 73.756 156.936 73.729 156.847C73.729 156.806 73.7066 156.766 73.6931 156.728C73.6796 156.689 73.6549 156.597 73.6347 156.532L73.5943 156.407C73.5764 156.35 73.5584 156.294 73.5382 156.238C73.5045 156.137 73.4686 156.038 73.4327 155.937C73.3968 155.836 73.3586 155.738 73.3204 155.639C73.2441 155.437 73.1611 155.237 73.078 155.037C72.7525 154.26 72.3865 153.495 72.0498 152.736C71.8688 152.338 71.7085 151.931 71.5694 151.517L71.5267 151.578C71.4585 151.681 71.3977 151.789 71.3449 151.901C71.3449 153.668 69.5759 155.83 69.5759 155.83L67.7956 153.237L66.2376 155.632C66.0131 155.751 65.7886 156.16 65.6135 156.741C65.5641 156.898 65.517 157.069 65.4721 157.251C65.4407 157.372 65.4115 157.5 65.3845 157.628C65.3688 157.693 65.3554 157.758 65.3419 157.825L65.3015 158.03V158.061C65.2745 158.2 65.2476 158.344 65.2229 158.49C65.1982 158.636 65.169 158.804 65.1443 158.964C65.1264 159.067 65.1107 159.17 65.0972 159.273C65.0658 159.473 65.0388 159.675 65.0119 159.875C64.9962 159.992 64.9805 160.099 64.967 160.223L64.9131 160.672C65.0276 161.04 65.1556 161.404 65.288 161.761C65.3726 161.956 65.422 162.165 65.4339 162.378C68.1887 163.165 71.1089 163.165 73.8637 162.378C73.8627 162.371 73.8627 162.363 73.8637 162.356C73.8222 162.154 73.8042 161.948 73.8098 161.743C73.8552 161.167 73.9301 160.594 74.0343 160.025C74.0675 159.745 74.0817 159.463 74.077 159.181V159.08C74.0703 158.995 74.068 158.914 74.0658 158.833ZM74.0658 158.833C74.0658 158.744 74.0658 158.654 74.0501 158.564C74.0343 158.474 74.0366 158.396 74.0254 158.31C74.0141 158.225 74.0052 158.14 73.9939 158.054C73.9827 157.969 73.967 157.884 73.9513 157.798C73.9356 157.713 73.9199 157.628 73.9019 157.542C73.9019 157.513 73.8907 157.486 73.8839 157.457C73.8592 157.345 73.8323 157.233 73.8031 157.118C73.7739 157.004 73.756 156.936 73.729 156.847C73.729 156.806 73.7066 156.766 73.6931 156.728C73.6796 156.689 73.6549 156.597 73.6347 156.532L73.5943 156.407C73.5764 156.35 73.5584 156.294 73.5382 156.238C73.5045 156.137 73.4686 156.038 73.4327 155.937C73.3968 155.836 73.3586 155.738 73.3204 155.639C73.2441 155.437 73.1611 155.237 73.078 155.037C72.7525 154.26 72.3865 153.495 72.0498 152.736C71.8688 152.338 71.7085 151.931 71.5694 151.517L71.5267 151.578C71.4585 151.681 71.3977 151.789 71.3449 151.901C71.3449 153.668 69.5759 155.83 69.5759 155.83L67.7956 153.237L66.2376 155.632C66.0131 155.751 65.7886 156.16 65.6135 156.741C65.5641 156.898 65.517 157.069 65.4721 157.251C65.4407 157.372 65.4115 157.5 65.3845 157.628C65.3688 157.693 65.3554 157.758 65.3419 157.825L65.3015 158.03V158.061C65.2745 158.2 65.2476 158.344 65.2229 158.49C65.1982 158.636 65.169 158.804 65.1443 158.964C65.1264 159.067 65.1107 159.17 65.0972 159.273C65.0658 159.473 65.0388 159.675 65.0119 159.875C64.9962 159.992 64.9805 160.099 64.967 160.223L64.9131 160.672C65.0276 161.04 65.1556 161.404 65.288 161.761C65.3726 161.956 65.422 162.165 65.4339 162.378C68.1887 163.165 71.1089 163.165 73.8637 162.378C73.8627 162.371 73.8627 162.363 73.8637 162.356C73.8222 162.154 73.8042 161.948 73.8098 161.743C73.8552 161.167 73.9301 160.594 74.0343 160.025C74.0675 159.745 74.0817 159.463 74.077 159.181V159.08C74.0703 158.995 74.068 158.914 74.0658 158.833Z" fill="#444176"/>
<path opacity="0.1" d="M67.8268 153.086L67.6764 153.065C67.4493 153.035 67.2244 152.99 67.0029 152.931L66.9199 152.908C66.3721 152.753 65.7727 152.475 65.638 151.985C65.5979 151.828 65.6026 151.662 65.6515 151.507C65.7269 151.24 65.8292 150.981 65.9568 150.735V150.722C65.9737 150.687 65.9924 150.653 66.0129 150.621C66.1982 150.258 66.4783 149.954 66.8233 149.738L66.554 149.781L64.2731 150.151L60.7373 150.722C60.7373 150.722 60.1087 150.596 59.2534 152.953C59.2534 152.982 59.2332 153.009 59.2242 153.041C59.0177 153.618 58.7999 154.338 58.5754 155.238C58.4205 155.863 58.2791 156.475 58.1489 157.07C58.1107 157.25 58.0725 157.427 58.0366 157.602C58.4414 158.079 58.8771 158.529 59.3409 158.949L59.415 159.019C60.3235 159.842 61.3275 160.552 62.4053 161.136L62.4479 161.158C63.126 161.524 63.8315 161.836 64.5582 162.092L64.749 162.16C64.7894 161.744 64.8343 161.284 64.8882 160.813C64.8882 160.765 64.8882 160.718 64.9062 160.671L64.96 160.222C64.9735 160.108 64.9892 159.998 65.0049 159.874C65.0319 159.674 65.0588 159.472 65.0903 159.273C65.1037 159.169 65.1194 159.066 65.1374 158.963C65.1621 158.803 65.189 158.644 65.216 158.489C65.2429 158.334 65.2676 158.2 65.2945 158.06V158.029L65.335 157.825C65.3484 157.757 65.3619 157.692 65.3776 157.627C65.4045 157.499 65.4337 157.371 65.4652 157.25C65.5101 157.068 65.5572 156.897 65.6066 156.74C65.7862 156.159 65.995 155.75 66.2307 155.631L67.7887 153.236L67.8538 153.135L67.883 153.09L67.8268 153.086Z" fill="black"/>
<path opacity="0.1" d="M68.2014 141.134C68.9018 141.015 69.6067 140.759 70.3027 140.909C70.8864 141.03 71.3735 141.419 71.9078 141.688C72.4237 141.948 72.9879 142.097 73.5646 142.126C73.7749 142.154 73.9886 142.112 74.173 142.007C74.4514 141.814 74.4918 141.419 74.4446 141.082C74.3099 140.126 73.7128 139.304 73.0976 138.559C72.8521 138.24 72.5687 137.953 72.2535 137.703C71.4476 137.108 70.3813 137.007 69.3823 137.052C68.2418 137.104 67.0834 137.324 66.0934 137.896C65.4199 138.283 63.8754 139.499 64.4119 140.379C64.9754 141.3 67.3191 141.284 68.2014 141.134Z" fill="black"/>
<path opacity="0.5" d="M68.2014 140.909C68.9018 140.79 69.6067 140.534 70.3027 140.685C70.8864 140.806 71.3735 141.194 71.9078 141.464C72.4237 141.723 72.9879 141.872 73.5646 141.901C73.7749 141.929 73.9886 141.887 74.173 141.782C74.4514 141.589 74.4918 141.194 74.4446 140.857C74.3099 139.901 73.7128 139.079 73.0976 138.334C72.8521 138.016 72.5687 137.728 72.2535 137.479C71.4476 136.884 70.3813 136.783 69.3823 136.828C68.2418 136.879 67.0834 137.099 66.0934 137.672C65.4199 138.058 63.8754 139.275 64.4119 140.155C64.9754 141.075 67.3191 141.059 68.2014 140.909Z" fill="#444176"/>
</g>
<path d="M129.85 129.916H129.884C129.933 131.42 130.147 132.78 130.558 133.157C131.536 134.055 135.595 132.259 135.317 131.173C135.261 130.948 135.166 130.58 135.047 130.116C136.143 129.979 137.079 129.667 137.452 129.024L138.157 131.198L138.206 131.352H138.22H138.26C138.725 135.757 139.778 144.903 140.619 146.129C141.742 147.752 143.033 154.785 143.033 154.785L145.446 169.214C145.446 169.214 146.375 177.52 146.932 178.418C147.094 178.589 147.309 178.701 147.543 178.734C147.217 179.709 146.75 180.847 146.196 181.482C145.073 182.744 143.596 185.269 142.296 185.09C140.997 184.91 140.626 187.615 143.039 187.975C144.375 188.174 146.506 187.932 148.142 187.676C148.142 188.399 148.645 189.23 149.909 189.418C152.322 189.78 157.335 188.698 157.335 188.698C157.335 188.698 161.601 186.902 161.792 185.631C161.926 184.71 161.273 181.015 160.909 179.078C161.583 177.998 160.864 168.679 160.864 168.679L159.565 150.825C159.565 150.825 160.308 140.907 159.565 139.102C159.1 137.98 158.927 132.816 158.862 129.123L159.76 129.182C159.811 129.12 159.857 129.055 159.899 128.986L160.124 129.002C160.124 129.002 161.246 127.74 160.31 125.756C159.621 124.281 159.751 117.622 159.861 114.307L159.993 112.735C160.043 112.687 160.08 112.629 160.103 112.564C161.845 112.329 163.537 111.817 165.116 111.047C165.593 110.849 166.036 110.579 166.432 110.248C167.361 109.35 166.802 103.935 164.946 95.8194C163.089 87.7039 161.419 88.4245 161.419 88.4245C161.419 88.4245 156.963 88.0631 154.92 85.3579C152.877 82.6528 151.505 82.6887 151.505 82.6887C151.454 82.334 151.418 81.9995 151.393 81.6874C151.393 81.5707 151.375 81.4629 151.368 81.3462C152.063 80.7003 152.592 79.8974 152.913 79.0047C153.33 78.7802 153.844 78.7061 154.244 78.4233C154.346 78.3492 154.439 78.2633 154.52 78.1673C154.921 77.7979 155.175 77.2967 155.236 76.7553C155.3 76.1641 155.272 75.5666 155.153 74.984C155.012 74.1219 154.803 73.2397 154.3 72.5617C153.797 71.8837 153.045 71.4751 152.32 71.0957C150.357 70.0646 148.388 69.0439 146.414 68.0336C146.028 67.798 145.598 67.6451 145.15 67.5846C144.36 67.5397 143.65 68.0808 143.013 68.5949C142.758 68.795 142.515 69.0086 142.283 69.2347C142.086 69.4093 141.906 69.6025 141.746 69.8116C141.001 70.8106 140.685 72.6919 141.012 73.9401C141.116 74.3352 141.338 74.4497 141.612 74.4452C141.205 75.2531 140.994 76.145 140.994 77.0494C140.999 78.0395 141.252 79.0126 141.731 79.8792C142.21 80.7458 142.899 81.478 143.735 82.0085C143.735 82.1342 143.735 82.2576 143.747 82.3766C143.756 82.8373 143.741 83.2982 143.702 83.7573C143.702 83.7573 138.763 86.4265 138.208 87.6882C137.654 88.9498 135.609 89.8523 135.609 89.8523C135.609 89.8523 131.709 91.8369 131.709 98.8703L129.666 108.788L129.296 127.725C129.296 127.725 129.552 127.5 129.969 127.181C129.956 127.307 129.945 127.437 129.933 127.57C129.878 128.293 129.859 129.02 129.877 129.745L129.85 129.916ZM154.792 178.925C154.715 179.215 154.603 179.599 154.462 180.048C154.399 179.675 154.336 179.307 154.273 178.957C154.435 178.941 154.608 178.932 154.792 178.925Z" fill="url(#paint2_linear)"/>
<path d="M148.048 176.599C148.048 176.599 147.332 179.818 146.252 181.069C145.172 182.319 143.758 184.825 142.509 184.645C141.261 184.465 140.9 187.148 143.226 187.505C145.551 187.862 150.367 186.791 150.367 186.791C150.367 186.791 154.479 184.995 154.657 183.751C154.834 182.508 153.584 176.062 153.584 176.062L148.048 176.599Z" fill="#53526B"/>
<path opacity="0.05" d="M148.048 176.599C148.048 176.599 147.332 179.818 146.252 181.069C145.172 182.319 143.758 184.825 142.509 184.645C141.261 184.465 140.9 187.148 143.226 187.505C145.551 187.862 150.367 186.791 150.367 186.791C150.367 186.791 154.479 184.995 154.657 183.751C154.834 182.508 153.584 176.062 153.584 176.062L148.048 176.599Z" fill="black"/>
<path d="M154.664 178.029C154.664 178.029 153.947 181.248 152.868 182.499C151.788 183.749 150.367 186.255 149.121 186.075C147.875 185.895 147.511 188.578 149.837 188.935C152.163 189.292 156.989 188.219 156.989 188.219C156.989 188.219 161.102 186.423 161.28 185.179C161.457 183.935 160.206 177.49 160.206 177.49L154.664 178.029Z" fill="#53526B"/>
<path d="M138.393 129.042C138.393 129.042 139.823 144.418 140.896 146.027C141.969 147.637 143.219 154.61 143.219 154.61L145.543 168.912C145.543 168.912 146.441 177.138 146.973 178.031C147.505 178.925 154.141 178.541 154.141 178.541L150.015 131.186L138.393 129.042Z" fill="#5F5D7E"/>
<path opacity="0.05" d="M138.393 129.042C138.393 129.042 139.823 144.418 140.896 146.027C141.969 147.637 143.219 154.61 143.219 154.61L145.543 168.912C145.543 168.912 146.441 177.138 146.973 178.031C147.505 178.925 154.141 178.541 154.141 178.541L150.015 131.186L138.393 129.042Z" fill="black"/>
<path d="M135.532 121.708L135.999 123.192L138.525 131.209L138.574 131.361H138.588C138.927 131.438 146.084 133.083 147.628 133.588C147.711 133.614 147.793 133.645 147.873 133.68C148.589 134.037 149.482 146.91 149.482 146.91C149.482 146.91 150.019 159.068 150.38 159.962C150.742 160.855 152.176 179.269 153.063 178.734C153.95 178.2 160.393 178.734 160.393 178.734C161.109 178.018 160.393 168.365 160.393 168.365L159.122 150.668C159.122 150.668 159.838 140.835 159.122 139.046C158.406 137.257 158.406 125.28 158.406 125.28L143.771 122.992L142.357 122.768L135.532 121.708Z" fill="#5F5D7E"/>
<path opacity="0.02" d="M136 123.194L138.525 131.21L138.586 131.367C138.925 131.444 146.082 133.089 147.626 133.594H147.781L143.783 122.994L143.668 122.688L142.368 122.772L136 123.194Z" fill="black"/>
<path opacity="0.1" d="M152.697 85.9521C152.697 85.9521 146.081 93.1046 141.968 87.2026L138.035 89.8853L138.751 93.9981L136.425 125.106C136.425 125.106 142.505 124.927 146.795 126.357C147.99 126.781 149.281 126.854 150.516 126.569C151.751 126.284 152.879 125.652 153.768 124.747L153.06 97.3947L154.67 88.9918L152.697 85.9521Z" fill="black"/>
<path d="M152.697 85.416C152.697 85.416 146.081 92.5684 141.968 86.6665L138.035 89.3492L138.751 93.4619L136.425 124.57C136.425 124.57 142.505 124.391 146.795 125.821C147.99 126.244 149.281 126.318 150.516 126.033C151.751 125.748 152.879 125.116 153.768 124.211L153.06 96.8585L154.67 88.4557L152.697 85.416Z" fill="#53526B"/>
<path d="M139.49 117.268V118.395H139.131V117.645H137.817V118.395H137.456V117.27L139.49 117.268Z" fill="#E82127"/>
<path d="M139.169 116.904H137.781C137.691 116.882 137.607 116.836 137.541 116.77C137.474 116.705 137.427 116.622 137.404 116.531H139.544C139.521 116.622 139.473 116.704 139.407 116.77C139.34 116.836 139.257 116.882 139.167 116.904" fill="#E82127"/>
<path d="M151.713 116.545C151.69 116.635 151.642 116.716 151.576 116.781C151.51 116.846 151.428 116.893 151.338 116.915H150.755L150.725 116.927V118.399H150.366V116.927L150.333 116.915H149.749C149.659 116.892 149.577 116.846 149.512 116.781C149.446 116.715 149.398 116.634 149.374 116.545H151.713Z" fill="#E82127"/>
<path d="M138.929 122.426C138.929 122.426 138.929 127.075 137.856 129.042C136.783 131.008 130.526 129.94 130.526 129.94L131.776 123.324L138.929 122.426Z" fill="#D6DBE6"/>
<path d="M131.206 133.157C132.149 134.055 136.057 132.259 135.788 131.191C135.599 130.434 134.939 127.727 134.564 126.191L134.304 125.111C134.304 125.111 132.014 124.395 131.206 125.111C130.912 125.372 130.705 126.398 130.609 127.637C130.443 129.79 130.611 132.587 131.206 133.157Z" fill="#FDC2CC"/>
<path d="M139.816 88.6324L146.073 93.4591C146.073 93.4591 155.369 92.9225 153.045 88.4528C152.034 86.487 151.423 84.3396 151.249 82.1355C151.174 81.3223 151.174 80.5039 151.249 79.6908C151.249 79.6908 142.667 71.8334 143.74 80.7638C143.825 81.4493 143.874 82.1387 143.888 82.8292C144.016 89.5326 139.816 88.6324 139.816 88.6324Z" fill="#FDC2CC"/>
<path opacity="0.1" d="M143.757 80.7668C143.842 81.4523 143.891 82.1417 143.906 82.8322C144.869 83.4701 145.999 83.809 147.154 83.8065C148.755 83.8065 149.933 82.2485 150.997 81.2136C150.878 79.7297 151.265 79.6937 151.265 79.6937C151.265 79.6937 142.684 71.8274 143.757 80.7668Z" fill="black"/>
<path d="M147.155 83.4489C150.413 83.4489 153.054 80.8075 153.054 77.5491C153.054 74.2908 150.413 71.6494 147.155 71.6494C143.896 71.6494 141.255 74.2908 141.255 77.5491C141.255 80.8075 143.896 83.4489 147.155 83.4489Z" fill="#FDC2CC"/>
<path opacity="0.1" d="M151.354 83.1797C151.354 83.1797 152.337 83.2695 154.304 85.95C156.271 88.6304 160.561 88.9896 160.561 88.9896C160.561 88.9896 162.17 88.2735 163.957 96.3194C165.744 104.365 166.281 109.728 165.387 110.622C164.494 111.515 160.918 112.77 159.122 112.77C159.122 112.77 158.585 124.033 159.479 126C160.372 127.966 159.299 129.219 159.299 129.219L151.442 128.683C151.442 128.683 148.759 125.286 148.222 119.386C147.686 113.487 145.899 96.6786 146.792 94.712C147.686 92.7454 151.619 87.7392 151.442 87.2026C151.264 86.6661 151.354 83.1797 151.354 83.1797Z" fill="black"/>
<path d="M151.375 83.126C151.375 83.126 152.697 83.0901 154.664 85.7728C156.63 88.4555 160.918 88.8125 160.918 88.8125C160.918 88.8125 162.528 88.0963 164.315 96.1422C166.102 104.188 166.638 109.551 165.745 110.445C164.851 111.338 161.275 112.591 159.488 112.591C159.488 112.591 158.952 123.854 159.845 125.82C160.739 127.787 159.665 129.04 159.665 129.04L151.808 128.503C151.808 128.503 149.125 125.107 148.589 119.207C148.052 113.307 146.261 96.5014 147.154 94.5438C148.048 92.5862 151.981 87.571 151.804 87.0345C151.626 86.4979 151.375 83.126 151.375 83.126Z" fill="#D6DBE6"/>
<path opacity="0.1" d="M130.611 127.635C131.467 126.982 133.081 125.965 134.567 126.189L134.307 125.109C134.307 125.109 132.017 124.393 131.208 125.109C130.91 125.37 130.706 126.393 130.611 127.635Z" fill="black"/>
<path opacity="0.1" d="M143.856 84.2529C143.856 84.2529 139.297 87.2028 138.76 88.4555C138.224 89.7082 136.257 90.6017 136.257 90.6017C136.257 90.6017 132.504 92.5682 132.504 99.5411L130.537 109.374L139.476 121.89C139.476 121.89 140.55 109.374 141.086 106.334C141.623 103.295 142.337 97.579 142.337 97.579C142.337 97.579 145.019 94.1824 144.66 93.2889C144.301 92.3954 143.856 84.2529 143.856 84.2529Z" fill="black"/>
<path d="M143.857 84.1992C143.857 84.1992 139.102 86.846 138.568 88.0964C138.033 89.3469 136.064 90.2426 136.064 90.2426C136.064 90.2426 132.311 92.2092 132.311 99.182L130.344 109.015L129.987 127.787C129.987 127.787 133.207 124.747 135.53 126.178C137.854 127.608 139.284 121.528 139.284 121.528C139.284 121.528 140.357 109.013 140.893 105.973C141.43 102.933 142.144 97.2177 142.144 97.2177C142.144 97.2177 144.826 93.8211 144.467 92.9276C144.108 92.0341 143.857 84.1992 143.857 84.1992Z" fill="#D6DBE6"/>
<path opacity="0.1" d="M141.975 70.3729C142.278 69.9878 142.628 69.6424 143.017 69.3447C143.632 68.8329 144.312 68.2986 145.076 68.3435C145.507 68.401 145.922 68.5494 146.292 68.779C148.193 69.7802 150.088 70.792 151.979 71.8142C152.677 72.1913 153.398 72.5909 153.885 73.2689C154.372 73.9469 154.569 74.8179 154.706 75.671C154.821 76.2488 154.848 76.8406 154.787 77.4265C154.732 78.001 154.453 78.5306 154.01 78.9015C153.501 79.2719 152.803 79.2741 152.376 79.759C152.129 80.0397 152.021 80.4325 151.846 80.7738C151.671 81.115 151.368 81.4472 151.022 81.3866C150.677 81.326 150.468 80.9601 150.418 80.5897C150.396 80.2142 150.418 79.8375 150.484 79.4672C150.551 78.7937 150.466 78.0798 150.075 77.5792C149.806 77.238 149.419 77.0314 149.159 76.6812C148.535 75.8371 148.82 74.4363 148.135 73.6438C147.937 73.4366 147.686 73.2859 147.41 73.2071C147.134 73.1282 146.842 73.124 146.564 73.1948C146.009 73.3115 145.502 73.6124 144.992 73.8683C144.304 74.2156 143.583 74.4938 142.84 74.6989C142.215 74.8695 141.493 75.2781 141.279 74.4475C140.954 73.2285 141.257 71.3629 141.975 70.3729Z" fill="black"/>
<path d="M142.155 70.1952C142.458 69.8101 142.808 69.4646 143.197 69.167C143.812 68.6551 144.492 68.1208 145.255 68.1657C145.687 68.2232 146.102 68.3717 146.472 68.6013C148.371 69.6025 149.949 68.6551 152.158 71.6364C152.63 72.274 153.577 72.4132 154.064 73.0912C154.552 73.7691 154.749 74.6402 154.886 75.4933C155.001 76.0711 155.028 76.6629 154.967 77.2488C154.911 77.8232 154.632 78.3529 154.19 78.7237C153.681 79.0941 152.982 79.0964 152.556 79.5813C152.309 79.8619 152.201 80.2548 152.026 80.596C151.851 80.9373 151.548 81.2695 151.202 81.2089C150.856 81.1483 150.648 80.7823 150.598 80.4119C150.576 80.0365 150.598 79.6598 150.663 79.2895C150.731 78.616 150.645 77.9021 150.255 77.4015C149.985 77.0602 149.599 76.8537 149.339 76.5035C148.715 75.6594 149 74.2585 148.315 73.4661C148.116 73.2589 147.866 73.1082 147.59 73.0293C147.314 72.9505 147.022 72.9462 146.744 73.0171C146.189 73.1338 145.682 73.4346 145.172 73.6906C144.484 74.0379 143.763 74.3161 143.019 74.5212C142.395 74.6918 141.672 75.1004 141.459 74.2698C141.131 73.0507 141.437 71.1829 142.155 70.1952Z" fill="#865A61"/>
<path opacity="0.1" d="M158.269 97.4824C158.269 97.4824 160.654 103.562 158.864 106.065L154.931 105.167C154.931 105.167 158.507 106.24 157.971 104.094C157.434 101.948 158.269 97.4824 158.269 97.4824Z" fill="black"/>
<path opacity="0.1" d="M159.571 112.503C159.571 112.503 154.386 112.86 152.956 111.787C154.839 113.225 157.063 114.149 159.41 114.47L159.571 112.503Z" fill="black"/>
<path opacity="0.1" d="M137.232 101.055C137.232 101.055 134.549 109.28 134.729 110.531C134.908 111.781 135.265 125.549 135.265 125.549L135.802 125.37L135.622 110.351L137.232 101.055Z" fill="black"/>
<path d="M160.202 111.107L98.9145 61.7185C98.5578 61.362 98.1343 61.0793 97.6682 60.8867C97.202 60.6941 96.7025 60.5953 96.1981 60.5961H93.594C98.798 53.9272 101.262 45.5244 100.485 37.1012C99.7069 28.6779 95.7456 20.8685 89.4085 15.2652C83.0714 9.66193 74.8356 6.68675 66.3806 6.94633C57.9255 7.2059 49.8877 10.6807 43.9063 16.6621C37.9248 22.6436 34.45 30.6813 34.1905 39.1364C33.9309 47.5915 36.9061 55.8272 42.5094 62.1644C48.1126 68.5015 55.9221 72.4628 64.3453 73.2405C72.7686 74.0182 81.1713 71.5539 87.8402 66.3499V68.9518C87.8395 69.4561 87.9382 69.9557 88.1308 70.4218C88.3234 70.8879 88.6061 71.3115 88.9627 71.6682L150.25 121.057C150.605 121.415 151.027 121.699 151.492 121.892C151.957 122.086 152.456 122.186 152.959 122.186C153.463 122.186 153.962 122.086 154.427 121.892C154.892 121.699 155.314 121.415 155.669 121.057L160.186 116.545C160.907 115.825 161.313 114.848 161.316 113.829C161.319 112.81 160.918 111.832 160.202 111.107ZM67.3797 60.5961C63.333 60.5961 59.3772 59.3961 56.0125 57.1478C52.6478 54.8996 50.0253 51.7041 48.4767 47.9655C46.9281 44.2268 46.5229 40.1129 47.3124 36.1439C48.1018 32.175 50.0505 28.5293 52.912 25.6678C55.7734 22.8064 59.4191 20.8577 63.3881 20.0682C67.357 19.2788 71.4709 19.6839 75.2096 21.2326C78.9483 22.7812 82.1438 25.4036 84.392 28.7683C86.6402 32.133 87.8402 36.0889 87.8402 40.1356C87.8423 42.8233 87.3145 45.485 86.287 47.9686C85.2596 50.4522 83.7526 52.7088 81.8523 54.6095C79.9521 56.5102 77.6957 58.0177 75.2124 59.0457C72.729 60.0737 70.0674 60.602 67.3797 60.6005V60.5961Z" fill="url(#paint3_linear)"/>
<path d="M160.651 110.658L99.3638 61.2693C99.007 60.9128 98.5835 60.6301 98.1174 60.4375C97.6513 60.2449 97.1517 60.1461 96.6474 60.1468H94.0432C99.2472 53.4779 101.712 45.0752 100.934 36.652C100.156 28.2287 96.1948 20.4193 89.8577 14.816C83.5206 9.21271 75.2849 6.23753 66.8298 6.49711C58.3747 6.75668 50.337 10.2315 44.3555 16.2129C38.374 22.1944 34.8993 30.2321 34.6397 38.6872C34.3801 47.1423 37.3553 55.378 42.9586 61.7151C48.5619 68.0523 56.3713 72.0135 64.7945 72.7913C73.2178 73.569 81.6205 71.1047 88.2894 65.9007V68.5026C88.2887 69.0069 88.3874 69.5064 88.58 69.9726C88.7727 70.4387 89.0553 70.8622 89.4119 71.2189L150.699 120.608C151.054 120.966 151.476 121.25 151.941 121.443C152.406 121.637 152.905 121.737 153.409 121.737C153.913 121.737 154.411 121.637 154.876 121.443C155.341 121.25 155.764 120.966 156.118 120.608L160.635 116.096C161.356 115.375 161.762 114.399 161.765 113.38C161.768 112.361 161.367 111.383 160.651 110.658ZM67.8289 60.1468C63.7822 60.1468 59.8264 58.9469 56.4617 56.6986C53.097 54.4504 50.4745 51.2549 48.9259 47.5162C47.3773 43.7776 46.9721 39.6637 47.7616 35.6947C48.5511 31.7258 50.4997 28.0801 53.3612 25.2186C56.2226 22.3572 59.8683 20.4085 63.8373 19.619C67.8062 18.8295 71.9202 19.2347 75.6588 20.7833C79.3975 22.3319 82.593 24.9544 84.8412 28.3191C87.0894 31.6838 88.2894 35.6397 88.2894 39.6864C88.2915 42.3741 87.7637 45.0358 86.7363 47.5194C85.7088 50.0029 84.2018 52.2596 82.3016 54.1603C80.4013 56.061 78.1449 57.5685 75.6616 58.5965C73.1783 59.6244 70.5166 60.1528 67.8289 60.1513V60.1468Z" fill="#6C63FF"/>
<path d="M156.094 106.155C156.094 106.155 147.148 95.8956 148.405 102.936C149.303 107.942 152.695 110.625 154.305 111.161C155.914 111.698 156.094 106.155 156.094 106.155Z" fill="#FDC2CC"/>
<path d="M158.24 96.6787C158.24 96.6787 158.419 103.295 159.313 104.188C160.206 105.082 158.776 106.155 158.776 106.155L155.2 105.257C155.2 105.257 156.098 111.156 152.34 110.442C152.34 110.442 154.843 112.766 157.346 113.125C159.849 113.484 159.67 112.589 159.67 112.589L163.423 108.119L158.24 96.6787Z" fill="#D6DBE6"/>
<path d="M159.23 112.685L162.858 111.888L162.373 110.215L160.128 109.317L157.209 110.664L159.23 112.685Z" fill="#D6DBE6"/>
<path d="M70.067 48.1656L74.8959 44.4412C74.8959 44.4412 71.6609 45.1349 71.753 39.9648C71.7519 39.9476 71.7519 39.9304 71.753 39.9132C71.753 39.4462 71.7979 38.9344 71.8652 38.3709C72.6936 31.4721 66.071 37.5425 66.071 37.5425C66.128 38.1533 66.128 38.7681 66.071 39.3789C66.071 39.3946 66.071 39.4125 66.071 39.4283C65.94 41.1283 65.4714 42.7852 64.6926 44.302C62.8944 47.7503 70.067 48.1656 70.067 48.1656Z" fill="#FDC2CC"/>
<path opacity="0.1" d="M66.6888 38.4203C67.5082 39.2172 68.0088 40.6652 69.2413 40.6652C70.133 40.6672 71.0054 40.4055 71.7489 39.9132C71.7489 39.4462 71.7938 38.9344 71.8611 38.3709C72.6895 31.4721 66.0669 37.5425 66.0669 37.5425C66.0669 37.5425 66.7763 37.2978 66.6888 38.4203Z" fill="black"/>
<path d="M69.2412 40.4405C71.7557 40.4405 73.794 38.4021 73.794 35.8877C73.794 33.3733 71.7557 31.335 69.2412 31.335C66.7268 31.335 64.6885 33.3733 64.6885 35.8877C64.6885 38.4021 66.7268 40.4405 69.2412 40.4405Z" fill="#FDC2CC"/>
<path opacity="0.1" d="M73.6074 30.0575C73.3463 29.7275 73.0446 29.4318 72.7094 29.1774C72.1841 28.7397 71.6004 28.2795 70.9471 28.3199C70.5775 28.3691 70.2225 28.4961 69.9055 28.6925C68.2779 29.5501 66.9287 28.7397 65.0362 31.2899C64.6321 31.8355 63.8217 31.9634 63.4041 32.5359C62.9865 33.1083 62.8182 33.8604 62.6992 34.5923C62.6008 35.0873 62.5774 35.5943 62.6296 36.0964C62.6795 36.5891 62.9214 37.0424 63.3031 37.358C63.7386 37.6746 64.338 37.6768 64.7039 38.0921C64.8879 38.3627 65.0387 38.6544 65.1529 38.9609C65.3011 39.2528 65.5615 39.5289 65.8578 39.4862C66.1542 39.4436 66.3315 39.1226 66.3742 38.8128C66.3927 38.4921 66.3739 38.1704 66.318 37.8542C66.2619 37.2862 66.3338 36.6666 66.6683 36.2378C66.8928 35.9437 67.2295 35.7686 67.4518 35.47C67.9861 34.7494 67.7436 33.5394 68.3295 32.8704C68.5009 32.6944 68.7158 32.567 68.9524 32.5012C69.189 32.4353 69.4389 32.4334 69.6765 32.4955C70.1484 32.6302 70.6011 32.8248 71.0235 33.0747C71.6128 33.3722 72.2302 33.6106 72.8666 33.7863C73.4009 33.9322 74.0205 34.2825 74.2023 33.5618C74.4874 32.5022 74.2203 30.9038 73.6074 30.0575Z" fill="black"/>
<path d="M73.6074 29.8328C73.3463 29.5029 73.0446 29.2072 72.7094 28.9528C72.1841 28.5151 71.6004 28.0548 70.9471 28.0953C70.5775 28.1444 70.2225 28.2715 69.9055 28.4679C68.2779 29.3255 66.9287 28.5151 65.0362 31.0653C64.6321 31.6109 63.8217 31.7388 63.4041 32.3113C62.9865 32.8837 62.8182 33.6358 62.6992 34.3676C62.6008 34.8627 62.5774 35.3697 62.6296 35.8718C62.6795 36.3645 62.9214 36.8178 63.3031 37.1334C63.7386 37.45 64.338 37.4522 64.7039 37.8675C64.8879 38.138 65.0387 38.4298 65.1529 38.7363C65.3011 39.0282 65.5615 39.3043 65.8578 39.2616C66.1542 39.219 66.3315 38.898 66.3742 38.5882C66.3927 38.2675 66.3739 37.9458 66.318 37.6296C66.2619 37.0616 66.3338 36.442 66.6683 36.0132C66.8928 35.7191 67.2295 35.544 67.4518 35.2454C67.9861 34.5248 67.7436 33.3148 68.3295 32.6458C68.5009 32.4698 68.7158 32.3424 68.9524 32.2766C69.189 32.2107 69.4389 32.2087 69.6765 32.2709C70.1484 32.4056 70.6011 32.6002 71.0235 32.8501C71.6128 33.1476 72.2302 33.386 72.8666 33.5617C73.4009 33.7076 74.0205 34.0578 74.2023 33.3372C74.4874 32.2776 74.2203 30.6792 73.6074 29.8328Z" fill="#865A61"/>
<path opacity="0.1" d="M64.6878 50.5605L64.5981 54.0065C65.9027 54.3611 67.2488 54.54 68.6008 54.5386C68.8253 54.5386 69.061 54.5386 69.29 54.5229C70.4889 54.4712 71.6774 54.2768 72.8303 53.9437H72.8527C73.066 53.8808 73.277 53.8157 73.4858 53.7439H73.5083L73.6991 53.6765C74.4257 53.4206 75.1313 53.1084 75.8093 52.7426L75.852 52.7202C75.9261 52.6798 76.0001 52.6394 76.0765 52.5967L75.7285 47.9519L76.283 44.7663L73.2478 42.6987C73.0775 42.9448 72.8867 43.1761 72.6776 43.3902C72.378 43.7031 72.0273 43.9627 71.6405 44.1579C69.4629 45.231 66.9844 43.5249 65.752 42.4697L65.4713 42.2206C65.1525 41.931 64.9707 41.7334 64.9707 41.7334L63.4531 44.0771L64.6878 50.5605Z" fill="black"/>
<path d="M64.6878 50.7852L64.5981 54.2312C65.9027 54.5857 67.2488 54.7647 68.6008 54.7632C68.8253 54.7632 69.061 54.7632 69.29 54.7475C70.4889 54.6958 71.6774 54.5014 72.8303 54.1683H72.8527C73.066 54.1054 73.277 54.0403 73.4858 53.9685H73.5083L73.6991 53.9011C74.4257 53.6452 75.1313 53.333 75.8093 52.9672L75.852 52.9448C75.9261 52.9044 76.0001 52.864 76.0765 52.8213L75.7285 48.1765L76.283 44.9909L73.2478 42.9233C73.0775 43.1694 72.8867 43.4007 72.6776 43.6148C72.378 43.9277 72.0273 44.1874 71.6405 44.3826C69.4629 45.4556 66.9844 43.7495 65.752 42.6944L65.4713 42.4452C65.1525 42.1556 64.9707 41.958 64.9707 41.958L63.4531 44.3017L64.6878 50.7852Z" fill="#53526B"/>
<path d="M73.1024 51.0617C73.1024 51.0617 73.2686 52.384 73.4863 53.9644H73.5088L73.6996 53.8971C74.4263 53.6412 75.1318 53.3289 75.8099 52.9632L75.8525 52.9407C75.9266 52.9003 76.0007 52.8599 76.077 52.8172C77.0722 52.2586 78.0015 51.5899 78.8473 50.8237L78.9214 50.7541C79.3852 50.3342 79.8209 49.8843 80.2257 49.4072L80.2728 49.351C79.4714 46.5695 77.8034 45.694 77.8034 45.694C77.8034 45.694 76.2858 45.0026 75.8705 44.0372C75.4552 43.0719 71.7892 41.0312 71.7892 41.0312V41.047C71.7892 41.2198 71.7308 42.8025 71.6432 44.3942C71.5871 45.4291 71.5175 46.4685 71.4367 47.1285C71.4192 47.343 71.3801 47.5551 71.32 47.7616C71.0349 48.4418 73.1024 51.0617 73.1024 51.0617Z" fill="#555388"/>
</g>
<defs>
<linearGradient id="paint0_linear" x1="115.453" y1="178.384" x2="115.453" y2="8.82031" gradientUnits="userSpaceOnUse">
<stop stop-color="#808080" stop-opacity="0.25"/>
<stop offset="0.54" stop-color="#808080" stop-opacity="0.12"/>
<stop offset="1" stop-color="#808080" stop-opacity="0.1"/>
</linearGradient>
<linearGradient id="paint1_linear" x1="8396.86" y1="13907.5" x2="8396.86" y2="10619.5" gradientUnits="userSpaceOnUse">
<stop stop-color="#808080" stop-opacity="0.25"/>
<stop offset="0.54" stop-color="#808080" stop-opacity="0.12"/>
<stop offset="1" stop-color="#808080" stop-opacity="0.1"/>
</linearGradient>
<linearGradient id="paint2_linear" x1="-39255" y1="105885" x2="-39255" y2="39688.3" gradientUnits="userSpaceOnUse">
<stop stop-color="#808080" stop-opacity="0.25"/>
<stop offset="0.54" stop-color="#808080" stop-opacity="0.12"/>
<stop offset="1" stop-color="#808080" stop-opacity="0.1"/>
</linearGradient>
<linearGradient id="paint3_linear" x1="60872.5" y1="65489.2" x2="60872.5" y2="6296.41" gradientUnits="userSpaceOnUse">
<stop stop-color="#808080" stop-opacity="0.25"/>
<stop offset="0.54" stop-color="#808080" stop-opacity="0.12"/>
<stop offset="1" stop-color="#808080" stop-opacity="0.1"/>
</linearGradient>
<clipPath id="clip0">
<rect width="250" height="189.505" fill="white"/>
</clipPath>
</defs>
</svg>
