<svg width="501" height="290" viewBox="0 0 501 290" fill="none" xmlns="http://www.w3.org/2000/svg">
<g clip-path="url(#clip0)">
<path d="M500.995 198.137H0.995117V199.305H500.995V198.137Z" fill="#3F3D56"/>
<path d="M362.55 280.619H29.2022C26.2378 280.619 23.3948 279.442 21.2987 277.346C19.2025 275.249 18.0249 272.406 18.0249 269.442C138.863 255.398 257.431 255.398 373.728 269.442C373.728 270.91 373.439 272.363 372.877 273.719C372.315 275.075 371.492 276.308 370.454 277.346C369.416 278.383 368.184 279.207 366.828 279.768C365.472 280.33 364.018 280.619 362.55 280.619Z" fill="#2F2E41"/>
<path d="M373.728 270.099L18.0249 269.442L59.2496 200.077L59.4468 199.748V46.8746C59.4467 45.019 59.8121 43.1816 60.5221 41.4673C61.2321 39.7529 62.2729 38.1953 63.5849 36.8832C64.897 35.5711 66.4547 34.5304 68.169 33.8203C69.8834 33.1103 71.7208 32.745 73.5763 32.7451H316.204C318.059 32.745 319.897 33.1103 321.611 33.8203C323.325 34.5304 324.883 35.5711 326.195 36.8832C327.507 38.1953 328.548 39.7529 329.258 41.4673C329.968 43.1816 330.333 45.019 330.333 46.8746V200.8L373.728 270.099Z" fill="#3F3D56"/>
<path d="M73.2543 42.6074C72.0341 42.6088 70.8642 43.0941 70.0014 43.957C69.1386 44.8198 68.6532 45.9896 68.6519 47.2099V186.598C68.6533 187.818 69.1386 188.988 70.0015 189.851C70.8643 190.714 72.0341 191.199 73.2543 191.2H318.498C319.719 191.199 320.888 190.714 321.751 189.851C322.614 188.988 323.099 187.818 323.101 186.598V47.2099C323.099 45.9896 322.614 44.8198 321.751 43.957C320.888 43.0942 319.719 42.6088 318.498 42.6074H73.2543Z" fill="white"/>
<path d="M74.2817 209.609C73.9047 209.61 73.5356 209.718 73.2181 209.922C72.9006 210.125 72.6479 210.415 72.4897 210.757L59.7871 238.372C59.6488 238.673 59.5883 239.003 59.6112 239.333C59.6341 239.663 59.7396 239.982 59.918 240.26C60.0964 240.539 60.3421 240.768 60.6323 240.927C60.9225 241.086 61.248 241.169 61.5788 241.169H328.708C329.044 241.169 329.375 241.083 329.668 240.919C329.962 240.755 330.209 240.519 330.386 240.233C330.562 239.947 330.663 239.621 330.678 239.285C330.693 238.949 330.622 238.615 330.472 238.314L316.664 210.7C316.502 210.371 316.25 210.095 315.938 209.903C315.627 209.71 315.267 209.608 314.901 209.609H74.2817Z" fill="#2F2E41"/>
<path d="M194.89 40.3061C196.524 40.3061 197.849 38.9814 197.849 37.3474C197.849 35.7133 196.524 34.3887 194.89 34.3887C193.256 34.3887 191.932 35.7133 191.932 37.3474C191.932 38.9814 193.256 40.3061 194.89 40.3061Z" fill="white"/>
<path d="M168.633 246.43C168.2 246.43 167.778 246.573 167.434 246.837C167.09 247.101 166.842 247.471 166.729 247.889L163.543 259.724C163.464 260.016 163.453 260.323 163.512 260.62C163.571 260.917 163.697 261.196 163.881 261.437C164.065 261.677 164.302 261.872 164.574 262.006C164.845 262.14 165.144 262.21 165.447 262.21H226.044C226.358 262.21 226.668 262.134 226.948 261.99C227.227 261.846 227.468 261.637 227.65 261.381C227.833 261.125 227.951 260.829 227.996 260.518C228.04 260.206 228.01 259.889 227.907 259.592L223.811 247.757C223.676 247.369 223.425 247.033 223.091 246.796C222.756 246.558 222.357 246.43 221.947 246.43H168.633Z" fill="#2F2E41"/>
<path d="M330.334 197.446V200.076H59.25L59.4539 199.748V197.446H330.334Z" fill="#2F2E41"/>
<path d="M103.382 71.5488C102.422 71.5637 101.507 71.9585 100.838 72.6467C100.169 73.335 99.8005 74.2605 99.8128 75.2202V158.439C99.8005 159.399 100.169 160.324 100.838 161.012C101.507 161.701 102.422 162.095 103.382 162.11H288.371C289.331 162.095 290.245 161.701 290.914 161.012C291.583 160.324 291.952 159.399 291.94 158.439V75.2202C291.952 74.2605 291.583 73.335 290.914 72.6467C290.245 71.9585 289.331 71.5637 288.371 71.5488H103.382Z" fill="#E6E6E6"/>
<path d="M209.654 162.259H276.994C277.423 162.259 277.842 162.132 278.198 161.893C278.555 161.655 278.833 161.317 278.997 160.921C279.161 160.525 279.204 160.089 279.12 159.668C279.037 159.248 278.83 158.862 278.527 158.558L235.428 115.46C235.022 115.054 234.47 114.826 233.896 114.826C233.321 114.826 232.77 115.054 232.363 115.46L221.645 126.177C221.223 126.599 220.722 126.934 220.17 127.163C219.619 127.392 219.027 127.509 218.43 127.509C217.833 127.509 217.242 127.392 216.69 127.163C216.139 126.934 215.637 126.599 215.215 126.177L181.647 92.6085C181.24 92.2026 180.688 91.9746 180.114 91.9746C179.539 91.9746 178.988 92.2026 178.581 92.6085L112.928 158.261C112.625 158.564 112.419 158.95 112.335 159.371C112.251 159.791 112.294 160.227 112.459 160.623C112.623 161.019 112.9 161.358 113.257 161.596C113.613 161.834 114.032 161.961 114.461 161.961H209.74L209.654 162.259Z" fill="#6C63FF"/>
<path d="M129.554 99.5056C134.153 99.5056 137.882 95.7772 137.882 91.1781C137.882 86.5789 134.153 82.8506 129.554 82.8506C124.955 82.8506 121.227 86.5789 121.227 91.1781C121.227 95.7772 124.955 99.5056 129.554 99.5056Z" fill="#6C63FF"/>
<path d="M107.821 101.673C107.664 101.673 107.512 101.611 107.401 101.499C107.289 101.388 107.227 101.236 107.227 101.079V61.2257C107.227 61.0679 107.289 60.9166 107.401 60.8051C107.512 60.6935 107.664 60.6309 107.821 60.6309H153.623C153.701 60.6306 153.778 60.6458 153.851 60.6756C153.923 60.7054 153.989 60.7492 154.044 60.8044C154.1 60.8597 154.144 60.9253 154.174 60.9976C154.204 61.0699 154.219 61.1474 154.219 61.2257C154.219 61.304 154.204 61.3815 154.174 61.4537C154.144 61.526 154.1 61.5917 154.044 61.6469C153.989 61.7022 153.923 61.746 153.851 61.7758C153.778 61.8056 153.701 61.8208 153.623 61.8205H108.416V101.079C108.416 101.236 108.354 101.388 108.242 101.499C108.13 101.611 107.979 101.673 107.821 101.673Z" fill="#3F3D56"/>
<path d="M283.888 102.268C283.81 102.268 283.733 102.253 283.661 102.223C283.588 102.193 283.523 102.149 283.468 102.094C283.412 102.039 283.369 101.973 283.339 101.901C283.309 101.829 283.293 101.752 283.293 101.673V62.4152H238.087C237.929 62.4152 237.778 62.3526 237.666 62.241C237.555 62.1295 237.492 61.9781 237.492 61.8204C237.492 61.6626 237.555 61.5113 237.666 61.3998C237.778 61.2882 237.929 61.2256 238.087 61.2256H283.888C283.966 61.2256 284.044 61.2409 284.116 61.2708C284.188 61.3007 284.254 61.3445 284.309 61.3998C284.364 61.455 284.408 61.5206 284.438 61.5927C284.468 61.6649 284.483 61.7423 284.483 61.8204V101.673C284.483 101.752 284.468 101.829 284.438 101.901C284.408 101.973 284.364 102.039 284.309 102.094C284.254 102.149 284.188 102.193 284.116 102.223C284.044 102.253 283.966 102.268 283.888 102.268Z" fill="#3F3D56"/>
<path d="M153.623 172.457H107.821C107.743 172.457 107.666 172.441 107.594 172.411C107.522 172.381 107.456 172.338 107.401 172.282C107.346 172.227 107.302 172.162 107.272 172.089C107.242 172.017 107.227 171.94 107.227 171.862V132.009C107.226 131.931 107.242 131.853 107.271 131.781C107.301 131.708 107.345 131.642 107.4 131.587C107.455 131.532 107.521 131.488 107.593 131.458C107.666 131.428 107.743 131.412 107.821 131.412C107.9 131.412 107.977 131.428 108.049 131.458C108.122 131.488 108.187 131.532 108.243 131.587C108.298 131.642 108.342 131.708 108.371 131.781C108.401 131.853 108.416 131.931 108.416 132.009V171.267H153.623C153.701 171.267 153.778 171.282 153.851 171.312C153.923 171.341 153.989 171.385 154.044 171.44C154.1 171.496 154.144 171.561 154.174 171.634C154.204 171.706 154.219 171.783 154.219 171.862C154.219 171.94 154.204 172.018 154.174 172.09C154.144 172.162 154.1 172.228 154.044 172.283C153.989 172.338 153.923 172.382 153.851 172.412C153.778 172.442 153.701 172.457 153.623 172.457Z" fill="#3F3D56"/>
<path d="M283.888 173.051H238.087C237.929 173.051 237.778 172.989 237.666 172.877C237.555 172.766 237.492 172.614 237.492 172.457C237.492 172.299 237.555 172.148 237.666 172.036C237.778 171.924 237.929 171.862 238.087 171.862H283.293V132.604C283.293 132.446 283.356 132.295 283.468 132.183C283.579 132.071 283.73 132.009 283.888 132.009C284.046 132.009 284.197 132.071 284.309 132.183C284.42 132.295 284.483 132.446 284.483 132.604V172.457C284.483 172.535 284.468 172.612 284.438 172.684C284.408 172.756 284.364 172.822 284.309 172.877C284.254 172.933 284.188 172.976 284.116 173.006C284.044 173.036 283.966 173.051 283.888 173.051Z" fill="#3F3D56"/>
<path d="M476.224 164.111C477.156 164.202 478.096 164.097 478.985 163.802C479.874 163.508 480.691 163.031 481.384 162.402C482.078 161.773 482.632 161.006 483.011 160.15C483.39 159.294 483.586 158.368 483.586 157.432V143.134L474.235 142.012L470.415 155.619C470.15 156.563 470.095 157.554 470.255 158.522C470.414 159.49 470.784 160.411 471.337 161.221C471.891 162.031 472.616 162.709 473.46 163.208C474.304 163.708 475.248 164.016 476.224 164.111Z" fill="#FFB8B8"/>
<path d="M395.344 170.76C396.275 170.668 397.177 170.381 397.992 169.92C398.806 169.458 399.515 168.831 400.073 168.079C400.63 167.327 401.025 166.467 401.23 165.554C401.435 164.64 401.447 163.694 401.265 162.776L398.482 148.751L389.091 149.47L387.993 163.561C387.917 164.539 388.056 165.521 388.401 166.44C388.745 167.358 389.287 168.19 389.988 168.876C390.689 169.563 391.531 170.087 392.457 170.412C393.382 170.738 394.368 170.856 395.344 170.76Z" fill="#FFB8B8"/>
<path d="M421.867 276.672L432.796 277.139C430.458 232.969 431.187 195.605 437.578 170.814C445.532 199.118 448.267 236.26 448.477 277.68L460.395 276.672C465.489 227.625 468.072 182.278 462.639 148.745C445.592 138.841 426.715 138.811 405.783 149.867C405.313 187.432 411.756 230.572 421.867 276.672Z" fill="#2F2E41"/>
<path d="M423.863 274.399L419.226 275.945C419.226 275.945 409.436 273.369 412.012 280.067C414.589 286.765 421.802 285.734 421.802 285.734C421.802 285.734 430.56 292.432 434.167 287.28L432.106 276.46L423.863 274.399Z" fill="#2F2E41"/>
<path d="M456.529 274.399L461.166 275.945C461.166 275.945 470.955 273.369 468.379 280.067C465.803 286.765 458.59 285.734 458.59 285.734C458.59 285.734 449.831 292.432 446.225 287.28L448.285 276.46L456.529 274.399Z" fill="#2F2E41"/>
<path d="M419.249 34.658C427.719 34.658 434.585 27.7917 434.585 19.3217C434.585 10.8517 427.719 3.98535 419.249 3.98535C410.779 3.98535 403.913 10.8517 403.913 19.3217C403.913 27.7917 410.779 34.658 419.249 34.658Z" fill="#FFB8B8"/>
<path d="M417.378 49.9939L440.57 43.635C434.702 36.4409 432.575 28.3069 433.837 19.3213H417.378V49.9939Z" fill="#FFB8B8"/>
<path d="M404.286 153.234C425.008 145.593 445.305 144.171 464.883 153.234C459.224 116.01 457.431 82.4227 463.484 59.0629C464.078 56.8016 463.848 54.4027 462.835 52.2955C461.822 50.1883 460.093 48.5103 457.956 47.5617L437.203 38.3984L417.378 41.3909L400.643 53.5376C398.877 54.8179 397.588 56.6496 396.979 58.7438C396.37 60.8379 396.476 63.0752 397.28 65.1025C406.098 87.3163 407.715 117.487 404.286 153.234Z" fill="#6C63FF"/>
<path d="M473.861 143.134L484.709 144.257L473.649 66.2088C473.04 61.9125 471.23 57.8756 468.427 54.5632C465.625 51.2507 461.943 48.7974 457.807 47.486L456.28 47.002L458.525 88.8962L473.861 143.134Z" fill="#6C63FF"/>
<path d="M399.141 150.549L388.608 153.376L387.157 74.5617C387.077 70.2233 388.224 65.9506 390.467 62.2357C392.709 58.5209 395.955 55.5151 399.831 53.5646L401.262 52.8447L405.686 94.5651L399.141 150.549Z" fill="#6C63FF"/>
<path d="M434.348 30.9183C434.348 30.9183 446.922 15.6747 435.23 4.52998C427.119 -3.2016 415.616 0.651899 409.33 3.73739C407.631 4.54452 406.153 5.75292 405.024 7.2584C403.895 8.76388 403.149 10.5213 402.851 12.3791C402.432 15.2647 403.123 17.854 407.562 16.6693C416.44 14.3 413.778 22.143 413.778 22.143C413.778 22.143 420.092 22.043 419.994 27.6166C419.897 33.1902 434.348 30.9183 434.348 30.9183Z" fill="#2F2E41"/>
</g>
<defs>
<clipPath id="clip0">
<rect width="500" height="289.228" fill="white" transform="translate(0.995117)"/>
</clipPath>
</defs>
</svg>
